<?xml version="1.0" encoding="utf-8"?>
<svg xmlns="http://www.w3.org/2000/svg" xmlns:xlink="http://www.w3.org/1999/xlink" style="margin: auto; display: block; z-index: 1; position: relative; shape-rendering: auto;" width="1536" height="696" preserveAspectRatio="xMidYMid" viewBox="0 0 1536 696">
<g transform="translate(768,348) scale(1,1) translate(-768,-348)"><g transform="translate(-100 69.28728521163234) rotate(0)">
  <animateTransform attributeName="transform" type="translate" keyTimes="0;1" values="-100 69.28728521163234;1536 69.28728521163234" dur="66.66666666666667s" repeatCount="indefinite" begin="-28.98142291527958s"></animateTransform>
  <path d="M84.717,33.597c0.791-2.503,1.186-5.138,1.186-7.773C85.903,11.594,74.308,0,60.079,0 c-9.881,0-18.445,5.534-22.793,13.702c-1.581-0.527-3.426-0.791-5.138-0.791c-9.486,0-17.128,7.642-17.128,17.128 c0,1.186,0.132,2.372,0.395,3.426C6.719,34.783,0,42.424,0,51.515C0,61.66,8.169,69.829,18.314,69.829h63.373 C91.831,69.829,100,61.66,100,51.515C99.868,42.556,93.281,35.046,84.717,33.597z" fill="#cee7ff" transform="scale(0.55)"></path>
</g><g transform="translate(-100 208.62983464248327) rotate(0)">
  <animateTransform attributeName="transform" type="translate" keyTimes="0;1" values="-100 208.62983464248327;1536 208.62983464248327" dur="66.66666666666667s" repeatCount="indefinite" begin="-19.257602867806764s"></animateTransform>
  <path d="M84.717,33.597c0.791-2.503,1.186-5.138,1.186-7.773C85.903,11.594,74.308,0,60.079,0 c-9.881,0-18.445,5.534-22.793,13.702c-1.581-0.527-3.426-0.791-5.138-0.791c-9.486,0-17.128,7.642-17.128,17.128 c0,1.186,0.132,2.372,0.395,3.426C6.719,34.783,0,42.424,0,51.515C0,61.66,8.169,69.829,18.314,69.829h63.373 C91.831,69.829,100,61.66,100,51.515C99.868,42.556,93.281,35.046,84.717,33.597z" fill="#cee7ff" transform="scale(0.55)"></path>
</g><g transform="translate(-100 286.432386872734) rotate(0)">
  <animateTransform attributeName="transform" type="translate" keyTimes="0;1" values="-100 286.432386872734;1536 286.432386872734" dur="66.66666666666667s" repeatCount="indefinite" begin="-50.73496981855837s"></animateTransform>
  <path d="M84.717,33.597c0.791-2.503,1.186-5.138,1.186-7.773C85.903,11.594,74.308,0,60.079,0 c-9.881,0-18.445,5.534-22.793,13.702c-1.581-0.527-3.426-0.791-5.138-0.791c-9.486,0-17.128,7.642-17.128,17.128 c0,1.186,0.132,2.372,0.395,3.426C6.719,34.783,0,42.424,0,51.515C0,61.66,8.169,69.829,18.314,69.829h63.373 C91.831,69.829,100,61.66,100,51.515C99.868,42.556,93.281,35.046,84.717,33.597z" fill="#cee7ff" transform="scale(0.55)"></path>
</g><g transform="translate(-100 209.0762524190715) rotate(0)">
  <animateTransform attributeName="transform" type="translate" keyTimes="0;1" values="-100 209.0762524190715;1536 209.0762524190715" dur="66.66666666666667s" repeatCount="indefinite" begin="-59.05399117554626s"></animateTransform>
  <path d="M84.717,33.597c0.791-2.503,1.186-5.138,1.186-7.773C85.903,11.594,74.308,0,60.079,0 c-9.881,0-18.445,5.534-22.793,13.702c-1.581-0.527-3.426-0.791-5.138-0.791c-9.486,0-17.128,7.642-17.128,17.128 c0,1.186,0.132,2.372,0.395,3.426C6.719,34.783,0,42.424,0,51.515C0,61.66,8.169,69.829,18.314,69.829h63.373 C91.831,69.829,100,61.66,100,51.515C99.868,42.556,93.281,35.046,84.717,33.597z" fill="#cee7ff" transform="scale(0.55)"></path>
</g><g transform="translate(-100 22.94165252107784) rotate(0)">
  <animateTransform attributeName="transform" type="translate" keyTimes="0;1" values="-100 22.94165252107784;1536 22.94165252107784" dur="66.66666666666667s" repeatCount="indefinite" begin="-28.643444915874813s"></animateTransform>
  <path d="M84.717,33.597c0.791-2.503,1.186-5.138,1.186-7.773C85.903,11.594,74.308,0,60.079,0 c-9.881,0-18.445,5.534-22.793,13.702c-1.581-0.527-3.426-0.791-5.138-0.791c-9.486,0-17.128,7.642-17.128,17.128 c0,1.186,0.132,2.372,0.395,3.426C6.719,34.783,0,42.424,0,51.515C0,61.66,8.169,69.829,18.314,69.829h63.373 C91.831,69.829,100,61.66,100,51.515C99.868,42.556,93.281,35.046,84.717,33.597z" fill="#cee7ff" transform="scale(0.55)"></path>
</g><g transform="translate(-100 338.6166732483126) rotate(0)">
  <animateTransform attributeName="transform" type="translate" keyTimes="0;1" values="-100 338.6166732483126;1536 338.6166732483126" dur="66.66666666666667s" repeatCount="indefinite" begin="-16.205355078265274s"></animateTransform>
  <path d="M84.717,33.597c0.791-2.503,1.186-5.138,1.186-7.773C85.903,11.594,74.308,0,60.079,0 c-9.881,0-18.445,5.534-22.793,13.702c-1.581-0.527-3.426-0.791-5.138-0.791c-9.486,0-17.128,7.642-17.128,17.128 c0,1.186,0.132,2.372,0.395,3.426C6.719,34.783,0,42.424,0,51.515C0,61.66,8.169,69.829,18.314,69.829h63.373 C91.831,69.829,100,61.66,100,51.515C99.868,42.556,93.281,35.046,84.717,33.597z" fill="#cee7ff" transform="scale(0.55)"></path>
</g><g transform="translate(-100 589.9940921223919) rotate(0)">
  <animateTransform attributeName="transform" type="translate" keyTimes="0;1" values="-100 589.9940921223919;1536 589.9940921223919" dur="66.66666666666667s" repeatCount="indefinite" begin="-57.99919732840516s"></animateTransform>
  <path d="M84.717,33.597c0.791-2.503,1.186-5.138,1.186-7.773C85.903,11.594,74.308,0,60.079,0 c-9.881,0-18.445,5.534-22.793,13.702c-1.581-0.527-3.426-0.791-5.138-0.791c-9.486,0-17.128,7.642-17.128,17.128 c0,1.186,0.132,2.372,0.395,3.426C6.719,34.783,0,42.424,0,51.515C0,61.66,8.169,69.829,18.314,69.829h63.373 C91.831,69.829,100,61.66,100,51.515C99.868,42.556,93.281,35.046,84.717,33.597z" fill="#cee7ff" transform="scale(0.55)"></path>
</g><g transform="translate(-100 405.45817744703305) rotate(0)">
  <animateTransform attributeName="transform" type="translate" keyTimes="0;1" values="-100 405.45817744703305;1536 405.45817744703305" dur="66.66666666666667s" repeatCount="indefinite" begin="-32.456318985267856s"></animateTransform>
  <path d="M84.717,33.597c0.791-2.503,1.186-5.138,1.186-7.773C85.903,11.594,74.308,0,60.079,0 c-9.881,0-18.445,5.534-22.793,13.702c-1.581-0.527-3.426-0.791-5.138-0.791c-9.486,0-17.128,7.642-17.128,17.128 c0,1.186,0.132,2.372,0.395,3.426C6.719,34.783,0,42.424,0,51.515C0,61.66,8.169,69.829,18.314,69.829h63.373 C91.831,69.829,100,61.66,100,51.515C99.868,42.556,93.281,35.046,84.717,33.597z" fill="#cee7ff" transform="scale(0.55)"></path>
</g><g transform="translate(-100 510.54187372201477) rotate(0)">
  <animateTransform attributeName="transform" type="translate" keyTimes="0;1" values="-100 510.54187372201477;1536 510.54187372201477" dur="66.66666666666667s" repeatCount="indefinite" begin="-7.487806096560871s"></animateTransform>
  <path d="M84.717,33.597c0.791-2.503,1.186-5.138,1.186-7.773C85.903,11.594,74.308,0,60.079,0 c-9.881,0-18.445,5.534-22.793,13.702c-1.581-0.527-3.426-0.791-5.138-0.791c-9.486,0-17.128,7.642-17.128,17.128 c0,1.186,0.132,2.372,0.395,3.426C6.719,34.783,0,42.424,0,51.515C0,61.66,8.169,69.829,18.314,69.829h63.373 C91.831,69.829,100,61.66,100,51.515C99.868,42.556,93.281,35.046,84.717,33.597z" fill="#cee7ff" transform="scale(0.55)"></path>
</g><g transform="translate(-100 278.9977255163288) rotate(0)">
  <animateTransform attributeName="transform" type="translate" keyTimes="0;1" values="-100 278.9977255163288;1536 278.9977255163288" dur="66.66666666666667s" repeatCount="indefinite" begin="-26.928097592040885s"></animateTransform>
  <path d="M84.717,33.597c0.791-2.503,1.186-5.138,1.186-7.773C85.903,11.594,74.308,0,60.079,0 c-9.881,0-18.445,5.534-22.793,13.702c-1.581-0.527-3.426-0.791-5.138-0.791c-9.486,0-17.128,7.642-17.128,17.128 c0,1.186,0.132,2.372,0.395,3.426C6.719,34.783,0,42.424,0,51.515C0,61.66,8.169,69.829,18.314,69.829h63.373 C91.831,69.829,100,61.66,100,51.515C99.868,42.556,93.281,35.046,84.717,33.597z" fill="#cee7ff" transform="scale(0.55)"></path>
</g><g transform="translate(-100 20.13262529576828) rotate(0)">
  <animateTransform attributeName="transform" type="translate" keyTimes="0;1" values="-100 20.13262529576828;1536 20.13262529576828" dur="66.66666666666667s" repeatCount="indefinite" begin="-25.584231039440212s"></animateTransform>
  <path d="M84.717,33.597c0.791-2.503,1.186-5.138,1.186-7.773C85.903,11.594,74.308,0,60.079,0 c-9.881,0-18.445,5.534-22.793,13.702c-1.581-0.527-3.426-0.791-5.138-0.791c-9.486,0-17.128,7.642-17.128,17.128 c0,1.186,0.132,2.372,0.395,3.426C6.719,34.783,0,42.424,0,51.515C0,61.66,8.169,69.829,18.314,69.829h63.373 C91.831,69.829,100,61.66,100,51.515C99.868,42.556,93.281,35.046,84.717,33.597z" fill="#cee7ff" transform="scale(0.55)"></path>
</g><g transform="translate(-100 232.149466191593) rotate(0)">
  <animateTransform attributeName="transform" type="translate" keyTimes="0;1" values="-100 232.149466191593;1536 232.149466191593" dur="33.333333333333336s" repeatCount="indefinite" begin="-32.582226389728945s"></animateTransform>
  <path d="M84.717,33.597c0.791-2.503,1.186-5.138,1.186-7.773C85.903,11.594,74.308,0,60.079,0 c-9.881,0-18.445,5.534-22.793,13.702c-1.581-0.527-3.426-0.791-5.138-0.791c-9.486,0-17.128,7.642-17.128,17.128 c0,1.186,0.132,2.372,0.395,3.426C6.719,34.783,0,42.424,0,51.515C0,61.66,8.169,69.829,18.314,69.829h63.373 C91.831,69.829,100,61.66,100,51.515C99.868,42.556,93.281,35.046,84.717,33.597z" fill="#d0d0d0" transform="scale(0.7)"></path>
</g><g transform="translate(-100 677.524606573189) rotate(0)">
  <animateTransform attributeName="transform" type="translate" keyTimes="0;1" values="-100 677.524606573189;1536 677.524606573189" dur="33.333333333333336s" repeatCount="indefinite" begin="-65.68210729653939s"></animateTransform>
  <path d="M84.717,33.597c0.791-2.503,1.186-5.138,1.186-7.773C85.903,11.594,74.308,0,60.079,0 c-9.881,0-18.445,5.534-22.793,13.702c-1.581-0.527-3.426-0.791-5.138-0.791c-9.486,0-17.128,7.642-17.128,17.128 c0,1.186,0.132,2.372,0.395,3.426C6.719,34.783,0,42.424,0,51.515C0,61.66,8.169,69.829,18.314,69.829h63.373 C91.831,69.829,100,61.66,100,51.515C99.868,42.556,93.281,35.046,84.717,33.597z" fill="#d0d0d0" transform="scale(0.7)"></path>
</g><g transform="translate(-100 229.87634859619703) rotate(0)">
  <animateTransform attributeName="transform" type="translate" keyTimes="0;1" values="-100 229.87634859619703;1536 229.87634859619703" dur="33.333333333333336s" repeatCount="indefinite" begin="-21.910107836531033s"></animateTransform>
  <path d="M84.717,33.597c0.791-2.503,1.186-5.138,1.186-7.773C85.903,11.594,74.308,0,60.079,0 c-9.881,0-18.445,5.534-22.793,13.702c-1.581-0.527-3.426-0.791-5.138-0.791c-9.486,0-17.128,7.642-17.128,17.128 c0,1.186,0.132,2.372,0.395,3.426C6.719,34.783,0,42.424,0,51.515C0,61.66,8.169,69.829,18.314,69.829h63.373 C91.831,69.829,100,61.66,100,51.515C99.868,42.556,93.281,35.046,84.717,33.597z" fill="#d0d0d0" transform="scale(0.7)"></path>
</g><g transform="translate(-100 415.90640102840723) rotate(0)">
  <animateTransform attributeName="transform" type="translate" keyTimes="0;1" values="-100 415.90640102840723;1536 415.90640102840723" dur="33.333333333333336s" repeatCount="indefinite" begin="-24.44561239082517s"></animateTransform>
  <path d="M84.717,33.597c0.791-2.503,1.186-5.138,1.186-7.773C85.903,11.594,74.308,0,60.079,0 c-9.881,0-18.445,5.534-22.793,13.702c-1.581-0.527-3.426-0.791-5.138-0.791c-9.486,0-17.128,7.642-17.128,17.128 c0,1.186,0.132,2.372,0.395,3.426C6.719,34.783,0,42.424,0,51.515C0,61.66,8.169,69.829,18.314,69.829h63.373 C91.831,69.829,100,61.66,100,51.515C99.868,42.556,93.281,35.046,84.717,33.597z" fill="#d0d0d0" transform="scale(0.7)"></path>
</g><g transform="translate(-100 336.165508194037) rotate(0)">
  <animateTransform attributeName="transform" type="translate" keyTimes="0;1" values="-100 336.165508194037;1536 336.165508194037" dur="33.333333333333336s" repeatCount="indefinite" begin="-15.319946377044932s"></animateTransform>
  <path d="M84.717,33.597c0.791-2.503,1.186-5.138,1.186-7.773C85.903,11.594,74.308,0,60.079,0 c-9.881,0-18.445,5.534-22.793,13.702c-1.581-0.527-3.426-0.791-5.138-0.791c-9.486,0-17.128,7.642-17.128,17.128 c0,1.186,0.132,2.372,0.395,3.426C6.719,34.783,0,42.424,0,51.515C0,61.66,8.169,69.829,18.314,69.829h63.373 C91.831,69.829,100,61.66,100,51.515C99.868,42.556,93.281,35.046,84.717,33.597z" fill="#d0d0d0" transform="scale(0.7)"></path>
</g><g transform="translate(-100 489.4920064966249) rotate(0)">
  <animateTransform attributeName="transform" type="translate" keyTimes="0;1" values="-100 489.4920064966249;1536 489.4920064966249" dur="33.333333333333336s" repeatCount="indefinite" begin="-15.883504554351843s"></animateTransform>
  <path d="M84.717,33.597c0.791-2.503,1.186-5.138,1.186-7.773C85.903,11.594,74.308,0,60.079,0 c-9.881,0-18.445,5.534-22.793,13.702c-1.581-0.527-3.426-0.791-5.138-0.791c-9.486,0-17.128,7.642-17.128,17.128 c0,1.186,0.132,2.372,0.395,3.426C6.719,34.783,0,42.424,0,51.515C0,61.66,8.169,69.829,18.314,69.829h63.373 C91.831,69.829,100,61.66,100,51.515C99.868,42.556,93.281,35.046,84.717,33.597z" fill="#d0d0d0" transform="scale(0.7)"></path>
</g><g transform="translate(-100 382.3253385968157) rotate(0)">
  <animateTransform attributeName="transform" type="translate" keyTimes="0;1" values="-100 382.3253385968157;1536 382.3253385968157" dur="33.333333333333336s" repeatCount="indefinite" begin="-27.780561115698074s"></animateTransform>
  <path d="M84.717,33.597c0.791-2.503,1.186-5.138,1.186-7.773C85.903,11.594,74.308,0,60.079,0 c-9.881,0-18.445,5.534-22.793,13.702c-1.581-0.527-3.426-0.791-5.138-0.791c-9.486,0-17.128,7.642-17.128,17.128 c0,1.186,0.132,2.372,0.395,3.426C6.719,34.783,0,42.424,0,51.515C0,61.66,8.169,69.829,18.314,69.829h63.373 C91.831,69.829,100,61.66,100,51.515C99.868,42.556,93.281,35.046,84.717,33.597z" fill="#d0d0d0" transform="scale(0.7)"></path>
</g><g transform="translate(-100 479.52924762745795) rotate(0)">
  <animateTransform attributeName="transform" type="translate" keyTimes="0;1" values="-100 479.52924762745795;1536 479.52924762745795" dur="33.333333333333336s" repeatCount="indefinite" begin="-12.862390448696178s"></animateTransform>
  <path d="M84.717,33.597c0.791-2.503,1.186-5.138,1.186-7.773C85.903,11.594,74.308,0,60.079,0 c-9.881,0-18.445,5.534-22.793,13.702c-1.581-0.527-3.426-0.791-5.138-0.791c-9.486,0-17.128,7.642-17.128,17.128 c0,1.186,0.132,2.372,0.395,3.426C6.719,34.783,0,42.424,0,51.515C0,61.66,8.169,69.829,18.314,69.829h63.373 C91.831,69.829,100,61.66,100,51.515C99.868,42.556,93.281,35.046,84.717,33.597z" fill="#d0d0d0" transform="scale(0.7)"></path>
</g><g transform="translate(-100 585.8806753183318) rotate(0)">
  <animateTransform attributeName="transform" type="translate" keyTimes="0;1" values="-100 585.8806753183318;1536 585.8806753183318" dur="33.333333333333336s" repeatCount="indefinite" begin="-20.629790398949606s"></animateTransform>
  <path d="M84.717,33.597c0.791-2.503,1.186-5.138,1.186-7.773C85.903,11.594,74.308,0,60.079,0 c-9.881,0-18.445,5.534-22.793,13.702c-1.581-0.527-3.426-0.791-5.138-0.791c-9.486,0-17.128,7.642-17.128,17.128 c0,1.186,0.132,2.372,0.395,3.426C6.719,34.783,0,42.424,0,51.515C0,61.66,8.169,69.829,18.314,69.829h63.373 C91.831,69.829,100,61.66,100,51.515C99.868,42.556,93.281,35.046,84.717,33.597z" fill="#d0d0d0" transform="scale(0.7)"></path>
</g><g transform="translate(-100 398.7482168933212) rotate(0)">
  <animateTransform attributeName="transform" type="translate" keyTimes="0;1" values="-100 398.7482168933212;1536 398.7482168933212" dur="33.333333333333336s" repeatCount="indefinite" begin="-14.311065115449988s"></animateTransform>
  <path d="M84.717,33.597c0.791-2.503,1.186-5.138,1.186-7.773C85.903,11.594,74.308,0,60.079,0 c-9.881,0-18.445,5.534-22.793,13.702c-1.581-0.527-3.426-0.791-5.138-0.791c-9.486,0-17.128,7.642-17.128,17.128 c0,1.186,0.132,2.372,0.395,3.426C6.719,34.783,0,42.424,0,51.515C0,61.66,8.169,69.829,18.314,69.829h63.373 C91.831,69.829,100,61.66,100,51.515C99.868,42.556,93.281,35.046,84.717,33.597z" fill="#d0d0d0" transform="scale(0.7)"></path>
</g><g transform="translate(-100 247.21731478220707) rotate(0)">
  <animateTransform attributeName="transform" type="translate" keyTimes="0;1" values="-100 247.21731478220707;1536 247.21731478220707" dur="33.333333333333336s" repeatCount="indefinite" begin="-65.75674553083441s"></animateTransform>
  <path d="M84.717,33.597c0.791-2.503,1.186-5.138,1.186-7.773C85.903,11.594,74.308,0,60.079,0 c-9.881,0-18.445,5.534-22.793,13.702c-1.581-0.527-3.426-0.791-5.138-0.791c-9.486,0-17.128,7.642-17.128,17.128 c0,1.186,0.132,2.372,0.395,3.426C6.719,34.783,0,42.424,0,51.515C0,61.66,8.169,69.829,18.314,69.829h63.373 C91.831,69.829,100,61.66,100,51.515C99.868,42.556,93.281,35.046,84.717,33.597z" fill="#d0d0d0" transform="scale(0.7)"></path>
</g><g transform="translate(-100 511.03442959762015) rotate(0)">
  <animateTransform attributeName="transform" type="translate" keyTimes="0;1" values="-100 511.03442959762015;1536 511.03442959762015" dur="22.222222222222225s" repeatCount="indefinite" begin="-10.175446105627655s"></animateTransform>
  <path d="M84.717,33.597c0.791-2.503,1.186-5.138,1.186-7.773C85.903,11.594,74.308,0,60.079,0 c-9.881,0-18.445,5.534-22.793,13.702c-1.581-0.527-3.426-0.791-5.138-0.791c-9.486,0-17.128,7.642-17.128,17.128 c0,1.186,0.132,2.372,0.395,3.426C6.719,34.783,0,42.424,0,51.515C0,61.66,8.169,69.829,18.314,69.829h63.373 C91.831,69.829,100,61.66,100,51.515C99.868,42.556,93.281,35.046,84.717,33.597z" fill="#f1f2f3" transform="scale(0.85)"></path>
</g><g transform="translate(-100 175.1842180797016) rotate(0)">
  <animateTransform attributeName="transform" type="translate" keyTimes="0;1" values="-100 175.1842180797016;1536 175.1842180797016" dur="22.222222222222225s" repeatCount="indefinite" begin="-52.994755393340206s"></animateTransform>
  <path d="M84.717,33.597c0.791-2.503,1.186-5.138,1.186-7.773C85.903,11.594,74.308,0,60.079,0 c-9.881,0-18.445,5.534-22.793,13.702c-1.581-0.527-3.426-0.791-5.138-0.791c-9.486,0-17.128,7.642-17.128,17.128 c0,1.186,0.132,2.372,0.395,3.426C6.719,34.783,0,42.424,0,51.515C0,61.66,8.169,69.829,18.314,69.829h63.373 C91.831,69.829,100,61.66,100,51.515C99.868,42.556,93.281,35.046,84.717,33.597z" fill="#f1f2f3" transform="scale(0.85)"></path>
</g><g transform="translate(-100 693.5586539993969) rotate(0)">
  <animateTransform attributeName="transform" type="translate" keyTimes="0;1" values="-100 693.5586539993969;1536 693.5586539993969" dur="22.222222222222225s" repeatCount="indefinite" begin="-49.15757207246821s"></animateTransform>
  <path d="M84.717,33.597c0.791-2.503,1.186-5.138,1.186-7.773C85.903,11.594,74.308,0,60.079,0 c-9.881,0-18.445,5.534-22.793,13.702c-1.581-0.527-3.426-0.791-5.138-0.791c-9.486,0-17.128,7.642-17.128,17.128 c0,1.186,0.132,2.372,0.395,3.426C6.719,34.783,0,42.424,0,51.515C0,61.66,8.169,69.829,18.314,69.829h63.373 C91.831,69.829,100,61.66,100,51.515C99.868,42.556,93.281,35.046,84.717,33.597z" fill="#f1f2f3" transform="scale(0.85)"></path>
</g><g transform="translate(-100 443.0745904052497) rotate(0)">
  <animateTransform attributeName="transform" type="translate" keyTimes="0;1" values="-100 443.0745904052497;1536 443.0745904052497" dur="22.222222222222225s" repeatCount="indefinite" begin="-10.283551530138995s"></animateTransform>
  <path d="M84.717,33.597c0.791-2.503,1.186-5.138,1.186-7.773C85.903,11.594,74.308,0,60.079,0 c-9.881,0-18.445,5.534-22.793,13.702c-1.581-0.527-3.426-0.791-5.138-0.791c-9.486,0-17.128,7.642-17.128,17.128 c0,1.186,0.132,2.372,0.395,3.426C6.719,34.783,0,42.424,0,51.515C0,61.66,8.169,69.829,18.314,69.829h63.373 C91.831,69.829,100,61.66,100,51.515C99.868,42.556,93.281,35.046,84.717,33.597z" fill="#f1f2f3" transform="scale(0.85)"></path>
</g><g transform="translate(-100 209.1868471231233) rotate(0)">
  <animateTransform attributeName="transform" type="translate" keyTimes="0;1" values="-100 209.1868471231233;1536 209.1868471231233" dur="22.222222222222225s" repeatCount="indefinite" begin="-57.546537355964226s"></animateTransform>
  <path d="M84.717,33.597c0.791-2.503,1.186-5.138,1.186-7.773C85.903,11.594,74.308,0,60.079,0 c-9.881,0-18.445,5.534-22.793,13.702c-1.581-0.527-3.426-0.791-5.138-0.791c-9.486,0-17.128,7.642-17.128,17.128 c0,1.186,0.132,2.372,0.395,3.426C6.719,34.783,0,42.424,0,51.515C0,61.66,8.169,69.829,18.314,69.829h63.373 C91.831,69.829,100,61.66,100,51.515C99.868,42.556,93.281,35.046,84.717,33.597z" fill="#f1f2f3" transform="scale(0.85)"></path>
</g><g transform="translate(-100 549.4216220166815) rotate(0)">
  <animateTransform attributeName="transform" type="translate" keyTimes="0;1" values="-100 549.4216220166815;1536 549.4216220166815" dur="22.222222222222225s" repeatCount="indefinite" begin="-27.541794225090015s"></animateTransform>
  <path d="M84.717,33.597c0.791-2.503,1.186-5.138,1.186-7.773C85.903,11.594,74.308,0,60.079,0 c-9.881,0-18.445,5.534-22.793,13.702c-1.581-0.527-3.426-0.791-5.138-0.791c-9.486,0-17.128,7.642-17.128,17.128 c0,1.186,0.132,2.372,0.395,3.426C6.719,34.783,0,42.424,0,51.515C0,61.66,8.169,69.829,18.314,69.829h63.373 C91.831,69.829,100,61.66,100,51.515C99.868,42.556,93.281,35.046,84.717,33.597z" fill="#f1f2f3" transform="scale(0.85)"></path>
</g><g transform="translate(-100 690.8861326186087) rotate(0)">
  <animateTransform attributeName="transform" type="translate" keyTimes="0;1" values="-100 690.8861326186087;1536 690.8861326186087" dur="22.222222222222225s" repeatCount="indefinite" begin="-23.96228384150298s"></animateTransform>
  <path d="M84.717,33.597c0.791-2.503,1.186-5.138,1.186-7.773C85.903,11.594,74.308,0,60.079,0 c-9.881,0-18.445,5.534-22.793,13.702c-1.581-0.527-3.426-0.791-5.138-0.791c-9.486,0-17.128,7.642-17.128,17.128 c0,1.186,0.132,2.372,0.395,3.426C6.719,34.783,0,42.424,0,51.515C0,61.66,8.169,69.829,18.314,69.829h63.373 C91.831,69.829,100,61.66,100,51.515C99.868,42.556,93.281,35.046,84.717,33.597z" fill="#f1f2f3" transform="scale(0.85)"></path>
</g><g transform="translate(-100 576.9322299720823) rotate(0)">
  <animateTransform attributeName="transform" type="translate" keyTimes="0;1" values="-100 576.9322299720823;1536 576.9322299720823" dur="22.222222222222225s" repeatCount="indefinite" begin="-41.819844744307346s"></animateTransform>
  <path d="M84.717,33.597c0.791-2.503,1.186-5.138,1.186-7.773C85.903,11.594,74.308,0,60.079,0 c-9.881,0-18.445,5.534-22.793,13.702c-1.581-0.527-3.426-0.791-5.138-0.791c-9.486,0-17.128,7.642-17.128,17.128 c0,1.186,0.132,2.372,0.395,3.426C6.719,34.783,0,42.424,0,51.515C0,61.66,8.169,69.829,18.314,69.829h63.373 C91.831,69.829,100,61.66,100,51.515C99.868,42.556,93.281,35.046,84.717,33.597z" fill="#f1f2f3" transform="scale(0.85)"></path>
</g><g transform="translate(-100 626.4826031583082) rotate(0)">
  <animateTransform attributeName="transform" type="translate" keyTimes="0;1" values="-100 626.4826031583082;1536 626.4826031583082" dur="22.222222222222225s" repeatCount="indefinite" begin="-40.426415313577294s"></animateTransform>
  <path d="M84.717,33.597c0.791-2.503,1.186-5.138,1.186-7.773C85.903,11.594,74.308,0,60.079,0 c-9.881,0-18.445,5.534-22.793,13.702c-1.581-0.527-3.426-0.791-5.138-0.791c-9.486,0-17.128,7.642-17.128,17.128 c0,1.186,0.132,2.372,0.395,3.426C6.719,34.783,0,42.424,0,51.515C0,61.66,8.169,69.829,18.314,69.829h63.373 C91.831,69.829,100,61.66,100,51.515C99.868,42.556,93.281,35.046,84.717,33.597z" fill="#f1f2f3" transform="scale(0.85)"></path>
</g><g transform="translate(-100 55.413627277924626) rotate(0)">
  <animateTransform attributeName="transform" type="translate" keyTimes="0;1" values="-100 55.413627277924626;1536 55.413627277924626" dur="22.222222222222225s" repeatCount="indefinite" begin="-0.7482717098530915s"></animateTransform>
  <path d="M84.717,33.597c0.791-2.503,1.186-5.138,1.186-7.773C85.903,11.594,74.308,0,60.079,0 c-9.881,0-18.445,5.534-22.793,13.702c-1.581-0.527-3.426-0.791-5.138-0.791c-9.486,0-17.128,7.642-17.128,17.128 c0,1.186,0.132,2.372,0.395,3.426C6.719,34.783,0,42.424,0,51.515C0,61.66,8.169,69.829,18.314,69.829h63.373 C91.831,69.829,100,61.66,100,51.515C99.868,42.556,93.281,35.046,84.717,33.597z" fill="#f1f2f3" transform="scale(0.85)"></path>
</g><g transform="translate(-100 189.83078345877394) rotate(0)">
  <animateTransform attributeName="transform" type="translate" keyTimes="0;1" values="-100 189.83078345877394;1536 189.83078345877394" dur="22.222222222222225s" repeatCount="indefinite" begin="-21.931195483048604s"></animateTransform>
  <path d="M84.717,33.597c0.791-2.503,1.186-5.138,1.186-7.773C85.903,11.594,74.308,0,60.079,0 c-9.881,0-18.445,5.534-22.793,13.702c-1.581-0.527-3.426-0.791-5.138-0.791c-9.486,0-17.128,7.642-17.128,17.128 c0,1.186,0.132,2.372,0.395,3.426C6.719,34.783,0,42.424,0,51.515C0,61.66,8.169,69.829,18.314,69.829h63.373 C91.831,69.829,100,61.66,100,51.515C99.868,42.556,93.281,35.046,84.717,33.597z" fill="#f1f2f3" transform="scale(0.85)"></path>
</g><g transform="translate(-100 415.4844198193838) rotate(0)">
  <animateTransform attributeName="transform" type="translate" keyTimes="0;1" values="-100 415.4844198193838;1536 415.4844198193838" dur="16.666666666666668s" repeatCount="indefinite" begin="-50.15504914325643s"></animateTransform>
  <path d="M84.717,33.597c0.791-2.503,1.186-5.138,1.186-7.773C85.903,11.594,74.308,0,60.079,0 c-9.881,0-18.445,5.534-22.793,13.702c-1.581-0.527-3.426-0.791-5.138-0.791c-9.486,0-17.128,7.642-17.128,17.128 c0,1.186,0.132,2.372,0.395,3.426C6.719,34.783,0,42.424,0,51.515C0,61.66,8.169,69.829,18.314,69.829h63.373 C91.831,69.829,100,61.66,100,51.515C99.868,42.556,93.281,35.046,84.717,33.597z" fill="#eff7ff" transform="scale(1)"></path>
</g><g transform="translate(-100 225.698396997617) rotate(0)">
  <animateTransform attributeName="transform" type="translate" keyTimes="0;1" values="-100 225.698396997617;1536 225.698396997617" dur="16.666666666666668s" repeatCount="indefinite" begin="-21.614363232496654s"></animateTransform>
  <path d="M84.717,33.597c0.791-2.503,1.186-5.138,1.186-7.773C85.903,11.594,74.308,0,60.079,0 c-9.881,0-18.445,5.534-22.793,13.702c-1.581-0.527-3.426-0.791-5.138-0.791c-9.486,0-17.128,7.642-17.128,17.128 c0,1.186,0.132,2.372,0.395,3.426C6.719,34.783,0,42.424,0,51.515C0,61.66,8.169,69.829,18.314,69.829h63.373 C91.831,69.829,100,61.66,100,51.515C99.868,42.556,93.281,35.046,84.717,33.597z" fill="#eff7ff" transform="scale(1)"></path>
</g><g transform="translate(-100 370.0288809059564) rotate(0)">
  <animateTransform attributeName="transform" type="translate" keyTimes="0;1" values="-100 370.0288809059564;1536 370.0288809059564" dur="16.666666666666668s" repeatCount="indefinite" begin="-21.115317556112394s"></animateTransform>
  <path d="M84.717,33.597c0.791-2.503,1.186-5.138,1.186-7.773C85.903,11.594,74.308,0,60.079,0 c-9.881,0-18.445,5.534-22.793,13.702c-1.581-0.527-3.426-0.791-5.138-0.791c-9.486,0-17.128,7.642-17.128,17.128 c0,1.186,0.132,2.372,0.395,3.426C6.719,34.783,0,42.424,0,51.515C0,61.66,8.169,69.829,18.314,69.829h63.373 C91.831,69.829,100,61.66,100,51.515C99.868,42.556,93.281,35.046,84.717,33.597z" fill="#eff7ff" transform="scale(1)"></path>
</g><g transform="translate(-100 150.58815369240347) rotate(0)">
  <animateTransform attributeName="transform" type="translate" keyTimes="0;1" values="-100 150.58815369240347;1536 150.58815369240347" dur="16.666666666666668s" repeatCount="indefinite" begin="-49.83855070725801s"></animateTransform>
  <path d="M84.717,33.597c0.791-2.503,1.186-5.138,1.186-7.773C85.903,11.594,74.308,0,60.079,0 c-9.881,0-18.445,5.534-22.793,13.702c-1.581-0.527-3.426-0.791-5.138-0.791c-9.486,0-17.128,7.642-17.128,17.128 c0,1.186,0.132,2.372,0.395,3.426C6.719,34.783,0,42.424,0,51.515C0,61.66,8.169,69.829,18.314,69.829h63.373 C91.831,69.829,100,61.66,100,51.515C99.868,42.556,93.281,35.046,84.717,33.597z" fill="#eff7ff" transform="scale(1)"></path>
</g><g transform="translate(-100 124.48089500387636) rotate(0)">
  <animateTransform attributeName="transform" type="translate" keyTimes="0;1" values="-100 124.48089500387636;1536 124.48089500387636" dur="16.666666666666668s" repeatCount="indefinite" begin="-56.73875616856371s"></animateTransform>
  <path d="M84.717,33.597c0.791-2.503,1.186-5.138,1.186-7.773C85.903,11.594,74.308,0,60.079,0 c-9.881,0-18.445,5.534-22.793,13.702c-1.581-0.527-3.426-0.791-5.138-0.791c-9.486,0-17.128,7.642-17.128,17.128 c0,1.186,0.132,2.372,0.395,3.426C6.719,34.783,0,42.424,0,51.515C0,61.66,8.169,69.829,18.314,69.829h63.373 C91.831,69.829,100,61.66,100,51.515C99.868,42.556,93.281,35.046,84.717,33.597z" fill="#eff7ff" transform="scale(1)"></path>
</g><g transform="translate(-100 585.2639671525268) rotate(0)">
  <animateTransform attributeName="transform" type="translate" keyTimes="0;1" values="-100 585.2639671525268;1536 585.2639671525268" dur="16.666666666666668s" repeatCount="indefinite" begin="-61.227367461207535s"></animateTransform>
  <path d="M84.717,33.597c0.791-2.503,1.186-5.138,1.186-7.773C85.903,11.594,74.308,0,60.079,0 c-9.881,0-18.445,5.534-22.793,13.702c-1.581-0.527-3.426-0.791-5.138-0.791c-9.486,0-17.128,7.642-17.128,17.128 c0,1.186,0.132,2.372,0.395,3.426C6.719,34.783,0,42.424,0,51.515C0,61.66,8.169,69.829,18.314,69.829h63.373 C91.831,69.829,100,61.66,100,51.515C99.868,42.556,93.281,35.046,84.717,33.597z" fill="#eff7ff" transform="scale(1)"></path>
</g><g transform="translate(-100 373.0866594570185) rotate(0)">
  <animateTransform attributeName="transform" type="translate" keyTimes="0;1" values="-100 373.0866594570185;1536 373.0866594570185" dur="16.666666666666668s" repeatCount="indefinite" begin="-44.95321878985642s"></animateTransform>
  <path d="M84.717,33.597c0.791-2.503,1.186-5.138,1.186-7.773C85.903,11.594,74.308,0,60.079,0 c-9.881,0-18.445,5.534-22.793,13.702c-1.581-0.527-3.426-0.791-5.138-0.791c-9.486,0-17.128,7.642-17.128,17.128 c0,1.186,0.132,2.372,0.395,3.426C6.719,34.783,0,42.424,0,51.515C0,61.66,8.169,69.829,18.314,69.829h63.373 C91.831,69.829,100,61.66,100,51.515C99.868,42.556,93.281,35.046,84.717,33.597z" fill="#eff7ff" transform="scale(1)"></path>
</g><g transform="translate(-100 673.1314036198331) rotate(0)">
  <animateTransform attributeName="transform" type="translate" keyTimes="0;1" values="-100 673.1314036198331;1536 673.1314036198331" dur="16.666666666666668s" repeatCount="indefinite" begin="-3.299694728546084s"></animateTransform>
  <path d="M84.717,33.597c0.791-2.503,1.186-5.138,1.186-7.773C85.903,11.594,74.308,0,60.079,0 c-9.881,0-18.445,5.534-22.793,13.702c-1.581-0.527-3.426-0.791-5.138-0.791c-9.486,0-17.128,7.642-17.128,17.128 c0,1.186,0.132,2.372,0.395,3.426C6.719,34.783,0,42.424,0,51.515C0,61.66,8.169,69.829,18.314,69.829h63.373 C91.831,69.829,100,61.66,100,51.515C99.868,42.556,93.281,35.046,84.717,33.597z" fill="#eff7ff" transform="scale(1)"></path>
</g><g transform="translate(-100 615.8054428951224) rotate(0)">
  <animateTransform attributeName="transform" type="translate" keyTimes="0;1" values="-100 615.8054428951224;1536 615.8054428951224" dur="16.666666666666668s" repeatCount="indefinite" begin="-58.384426621924966s"></animateTransform>
  <path d="M84.717,33.597c0.791-2.503,1.186-5.138,1.186-7.773C85.903,11.594,74.308,0,60.079,0 c-9.881,0-18.445,5.534-22.793,13.702c-1.581-0.527-3.426-0.791-5.138-0.791c-9.486,0-17.128,7.642-17.128,17.128 c0,1.186,0.132,2.372,0.395,3.426C6.719,34.783,0,42.424,0,51.515C0,61.66,8.169,69.829,18.314,69.829h63.373 C91.831,69.829,100,61.66,100,51.515C99.868,42.556,93.281,35.046,84.717,33.597z" fill="#eff7ff" transform="scale(1)"></path>
</g><g transform="translate(-100 479.8240130510162) rotate(0)">
  <animateTransform attributeName="transform" type="translate" keyTimes="0;1" values="-100 479.8240130510162;1536 479.8240130510162" dur="16.666666666666668s" repeatCount="indefinite" begin="-3.000638863746848s"></animateTransform>
  <path d="M84.717,33.597c0.791-2.503,1.186-5.138,1.186-7.773C85.903,11.594,74.308,0,60.079,0 c-9.881,0-18.445,5.534-22.793,13.702c-1.581-0.527-3.426-0.791-5.138-0.791c-9.486,0-17.128,7.642-17.128,17.128 c0,1.186,0.132,2.372,0.395,3.426C6.719,34.783,0,42.424,0,51.515C0,61.66,8.169,69.829,18.314,69.829h63.373 C91.831,69.829,100,61.66,100,51.515C99.868,42.556,93.281,35.046,84.717,33.597z" fill="#eff7ff" transform="scale(1)"></path>
</g><g transform="translate(-100 504.06348890325904) rotate(0)">
  <animateTransform attributeName="transform" type="translate" keyTimes="0;1" values="-100 504.06348890325904;1536 504.06348890325904" dur="16.666666666666668s" repeatCount="indefinite" begin="-66.39306889011013s"></animateTransform>
  <path d="M84.717,33.597c0.791-2.503,1.186-5.138,1.186-7.773C85.903,11.594,74.308,0,60.079,0 c-9.881,0-18.445,5.534-22.793,13.702c-1.581-0.527-3.426-0.791-5.138-0.791c-9.486,0-17.128,7.642-17.128,17.128 c0,1.186,0.132,2.372,0.395,3.426C6.719,34.783,0,42.424,0,51.515C0,61.66,8.169,69.829,18.314,69.829h63.373 C91.831,69.829,100,61.66,100,51.515C99.868,42.556,93.281,35.046,84.717,33.597z" fill="#eff7ff" transform="scale(1)"></path>
</g><g transform="translate(-100 660.7402209066454) rotate(0)">
  <animateTransform attributeName="transform" type="translate" keyTimes="0;1" values="-100 660.7402209066454;1536 660.7402209066454" dur="16.666666666666668s" repeatCount="indefinite" begin="-22.02872186489584s"></animateTransform>
  <path d="M84.717,33.597c0.791-2.503,1.186-5.138,1.186-7.773C85.903,11.594,74.308,0,60.079,0 c-9.881,0-18.445,5.534-22.793,13.702c-1.581-0.527-3.426-0.791-5.138-0.791c-9.486,0-17.128,7.642-17.128,17.128 c0,1.186,0.132,2.372,0.395,3.426C6.719,34.783,0,42.424,0,51.515C0,61.66,8.169,69.829,18.314,69.829h63.373 C91.831,69.829,100,61.66,100,51.515C99.868,42.556,93.281,35.046,84.717,33.597z" fill="#eff7ff" transform="scale(1)"></path>
</g></g>
</svg>