<svg width="233" height="64" viewBox="0 0 233 64" fill="none" xmlns="http://www.w3.org/2000/svg">
<path d="M183.174 43.6237C183.39 43.8958 183.502 44.2098 183.502 44.5587C183.502 44.8588 183.425 45.1239 183.272 45.3612C183.118 45.5984 182.895 45.7869 182.602 45.9264C182.309 46.066 181.967 46.1357 181.583 46.1357H179.238V40.2812H181.471C181.869 40.2812 182.211 40.351 182.497 40.4836C182.783 40.6162 182.999 40.7976 183.146 41.0279C183.292 41.2581 183.362 41.5094 183.362 41.7885C183.362 42.1234 183.272 42.4095 183.09 42.6328C182.909 42.8561 182.671 43.0236 182.364 43.1282C182.685 43.1841 182.951 43.3446 183.174 43.6237ZM180.194 42.7375H181.381C181.695 42.7375 181.939 42.6677 182.12 42.5212C182.295 42.3746 182.385 42.1723 182.385 41.9001C182.385 41.635 182.295 41.4326 182.12 41.2791C181.946 41.1326 181.695 41.0558 181.381 41.0558H180.194V42.7375ZM182.26 45.117C182.448 44.9565 182.539 44.7402 182.539 44.461C182.539 44.1749 182.441 43.9447 182.246 43.7772C182.05 43.6097 181.785 43.526 181.464 43.526H180.201V45.3542H181.499C181.82 45.3472 182.078 45.2705 182.26 45.117Z" fill="white"/>
<path d="M188.47 41.4865L185.623 48.3109H184.632L185.574 46.05L183.746 41.4795H184.814L186.119 45.0173L187.472 41.4795H188.47V41.4865Z" fill="white"/>
<path d="M197.053 40.272V46.1265H196.09V42.1141L194.304 46.1265H193.641L191.848 42.1141V46.1265H190.885V40.272H191.924L193.983 44.8635L196.028 40.272H197.053Z" fill="white"/>
<path d="M202.286 44.168H198.741C198.769 44.5379 198.908 44.8379 199.153 45.0612C199.397 45.2845 199.704 45.3962 200.06 45.3962C200.576 45.3962 200.939 45.1799 201.155 44.7472H202.195C202.055 45.1729 201.797 45.5218 201.434 45.7939C201.065 46.0661 200.611 46.2056 200.067 46.2056C199.62 46.2056 199.222 46.1079 198.873 45.9056C198.525 45.7032 198.245 45.4241 198.05 45.0612C197.848 44.6984 197.75 44.2797 197.75 43.7982C197.75 43.3237 197.848 42.8981 198.043 42.5352C198.238 42.1724 198.511 41.8933 198.86 41.6979C199.208 41.5025 199.613 41.4048 200.067 41.4048C200.506 41.4048 200.897 41.5025 201.239 41.6909C201.581 41.8793 201.846 42.1514 202.041 42.4933C202.23 42.8422 202.328 43.233 202.328 43.6866C202.314 43.875 202.307 44.0285 202.286 44.168ZM201.316 43.3935C201.309 43.0376 201.183 42.7585 200.939 42.5422C200.695 42.3259 200.388 42.2212 200.018 42.2212C199.683 42.2212 199.404 42.3259 199.167 42.5352C198.929 42.7445 198.79 43.0307 198.748 43.3935H201.316Z" fill="white"/>
<path d="M203.71 46.0081C203.424 45.8755 203.194 45.6941 203.026 45.4708C202.859 45.2405 202.768 44.9893 202.754 44.7102H203.745C203.759 44.9056 203.856 45.0731 204.024 45.2056C204.198 45.3382 204.408 45.401 204.666 45.401C204.938 45.401 205.147 45.3522 205.294 45.2475C205.44 45.1428 205.517 45.0103 205.517 44.8498C205.517 44.6753 205.433 44.5497 205.266 44.459C205.099 44.3753 204.84 44.2846 204.477 44.1799C204.129 44.0822 203.842 43.9915 203.626 43.9008C203.41 43.8101 203.214 43.6705 203.054 43.4891C202.893 43.3006 202.817 43.0564 202.817 42.7564C202.817 42.5121 202.886 42.2819 203.033 42.0795C203.18 41.8772 203.389 41.7097 203.661 41.598C203.933 41.4794 204.247 41.4236 204.603 41.4236C205.133 41.4236 205.559 41.5562 205.88 41.8213C206.201 42.0865 206.375 42.4493 206.396 42.9099H205.433C205.419 42.7006 205.336 42.5331 205.182 42.4145C205.029 42.2889 204.826 42.226 204.568 42.226C204.317 42.226 204.122 42.2749 203.989 42.3726C203.856 42.4703 203.787 42.5959 203.787 42.7494C203.787 42.875 203.829 42.9797 203.919 43.0634C204.01 43.1471 204.122 43.2169 204.247 43.2588C204.38 43.3076 204.568 43.3704 204.819 43.4402C205.154 43.5309 205.433 43.6216 205.65 43.7124C205.866 43.8031 206.054 43.9426 206.208 44.124C206.368 44.3055 206.445 44.5427 206.452 44.8428C206.452 45.1079 206.382 45.3452 206.236 45.5476C206.089 45.7569 205.88 45.9174 205.615 46.036C205.35 46.1546 205.036 46.2105 204.673 46.2105C204.331 46.2105 204.003 46.1407 203.71 46.0081Z" fill="white"/>
<path d="M210.604 41.6412C210.884 41.7947 211.1 42.018 211.26 42.3181C211.421 42.6181 211.498 42.974 211.498 43.3997V46.135H210.549V43.5392C210.549 43.1205 210.444 42.8065 210.235 42.5832C210.025 42.3599 209.746 42.2483 209.383 42.2483C209.02 42.2483 208.741 42.3599 208.525 42.5832C208.316 42.8065 208.211 43.1205 208.211 43.5392V46.135H207.248V39.8967H208.211V42.032C208.372 41.8366 208.581 41.6831 208.832 41.5784C209.083 41.4737 209.355 41.4179 209.655 41.4179C210.011 41.4109 210.325 41.4877 210.604 41.6412Z" fill="white"/>
<path d="M216.675 41.4866V46.1269H215.712V45.5826C215.558 45.771 215.363 45.9246 215.118 46.0362C214.874 46.1479 214.616 46.2037 214.337 46.2037C213.974 46.2037 213.646 46.1269 213.353 45.9734C213.067 45.8199 212.837 45.5966 212.669 45.2965C212.502 44.9965 212.418 44.6406 212.418 44.215V41.4866H213.367V44.0754C213.367 44.4941 213.472 44.8081 213.681 45.0314C213.89 45.2547 214.169 45.3663 214.532 45.3663C214.895 45.3663 215.174 45.2547 215.391 45.0314C215.6 44.8081 215.705 44.4941 215.705 44.0754V41.4866H216.675Z" fill="white"/>
<path d="M218.649 39.8967V46.135H217.687V39.8967H218.649Z" fill="white"/>
<path d="M219.627 42.5564C219.822 42.1935 220.087 41.9144 220.422 41.719C220.757 41.5167 221.127 41.4189 221.532 41.4189C221.895 41.4189 222.216 41.4887 222.488 41.6353C222.76 41.7818 222.976 41.9563 223.144 42.1726V41.4957H224.114V46.136H223.144V45.4452C222.983 45.6616 222.76 45.85 222.481 45.9895C222.202 46.1361 221.881 46.2058 221.518 46.2058C221.12 46.2058 220.75 46.1012 220.422 45.8988C220.087 45.6964 219.829 45.4103 219.634 45.0405C219.439 44.6707 219.341 44.259 219.341 43.7915C219.341 43.3239 219.439 42.9122 219.627 42.5564ZM222.941 42.975C222.809 42.7378 222.634 42.5564 222.425 42.4377C222.209 42.3121 221.979 42.2493 221.734 42.2493C221.49 42.2493 221.26 42.3121 221.043 42.4308C220.827 42.5494 220.66 42.7308 220.527 42.9611C220.394 43.1914 220.332 43.4705 220.332 43.7915C220.332 44.1125 220.394 44.3916 220.527 44.6358C220.66 44.88 220.834 45.0615 221.05 45.1871C221.267 45.3127 221.497 45.3755 221.734 45.3755C221.979 45.3755 222.209 45.3127 222.425 45.1871C222.641 45.0615 222.809 44.88 222.941 44.6428C223.074 44.4055 223.137 44.1264 223.137 43.8054C223.137 43.4914 223.074 43.2123 222.941 42.975Z" fill="white"/>
<path d="M231.719 41.6427C232.005 41.7962 232.236 42.0195 232.403 42.3195C232.571 42.6196 232.654 42.9755 232.654 43.4011V46.1365H231.705V43.5407C231.705 43.122 231.601 42.808 231.391 42.5847C231.182 42.3614 230.903 42.2498 230.54 42.2498C230.177 42.2498 229.898 42.3614 229.682 42.5847C229.472 42.808 229.368 43.122 229.368 43.5407V46.1365H228.419V43.5407C228.419 43.122 228.314 42.808 228.105 42.5847C227.895 42.3614 227.616 42.2498 227.253 42.2498C226.891 42.2498 226.611 42.3614 226.395 42.5847C226.186 42.808 226.081 43.122 226.081 43.5407V46.1365H225.118V41.4962H226.081V42.0265C226.242 41.8381 226.437 41.6846 226.681 41.5799C226.925 41.4752 227.184 41.4194 227.456 41.4194C227.826 41.4194 228.161 41.4962 228.447 41.6567C228.74 41.8171 228.963 42.0404 229.124 42.3405C229.263 42.0614 229.486 41.8381 229.779 41.6706C230.08 41.5031 230.4 41.4194 230.742 41.4194C231.105 41.4124 231.433 41.4892 231.719 41.6427Z" fill="white"/>
<path d="M54.0187 61.4057C53.2442 61.4057 52.5952 61.287 52.0649 61.0428C51.5416 60.7986 51.1368 60.4915 50.8577 60.1147C50.5786 59.7379 50.4251 59.3402 50.4111 58.9215C50.4111 58.8517 50.4391 58.7889 50.4949 58.7261C50.5507 58.6703 50.6205 58.6424 50.7042 58.6424H51.3881C51.4927 58.6424 51.5765 58.6703 51.6253 58.7191C51.6811 58.775 51.716 58.8378 51.73 58.9076C51.7858 59.1239 51.8974 59.3332 52.0649 59.5425C52.2324 59.7519 52.4766 59.9263 52.7906 60.0659C53.1046 60.2054 53.5163 60.2752 54.0118 60.2752C54.7793 60.2752 55.3445 60.1426 55.7004 59.8705C56.0633 59.5984 56.2447 59.2355 56.2447 58.7819C56.2447 58.4679 56.147 58.2167 55.9586 58.0283C55.7702 57.8399 55.4771 57.6655 55.0864 57.512C54.6956 57.3585 54.1862 57.1979 53.5652 57.0165C52.9162 56.8281 52.3789 56.6257 51.9463 56.4025C51.5206 56.1792 51.1996 55.9001 50.9903 55.5721C50.781 55.2441 50.6763 54.8254 50.6763 54.3161C50.6763 53.8346 50.8019 53.4019 51.0671 53.0251C51.3252 52.6483 51.7021 52.3483 52.1905 52.125C52.679 51.9017 53.2651 51.79 53.9559 51.79C54.5072 51.79 54.9887 51.8668 55.4073 52.0133C55.819 52.1599 56.168 52.3553 56.4401 52.5995C56.7192 52.8437 56.9285 53.1089 57.0681 53.388C57.2077 53.6671 57.2844 53.9392 57.2984 54.2114C57.2984 54.2742 57.2774 54.337 57.2286 54.3928C57.1867 54.4486 57.11 54.4766 57.0123 54.4766H56.3005C56.2377 54.4766 56.1749 54.4556 56.1051 54.4207C56.0354 54.3858 55.9865 54.3161 55.9516 54.2184C55.8958 53.8555 55.6935 53.5485 55.3376 53.2973C54.9817 53.0461 54.5212 52.9205 53.949 52.9205C53.3698 52.9205 52.9023 53.0321 52.5394 53.2554C52.1766 53.4787 51.9951 53.8276 51.9951 54.2951C51.9951 54.5952 52.0789 54.8464 52.2463 55.0488C52.4138 55.2511 52.686 55.4255 53.0488 55.5791C53.4117 55.7326 53.8931 55.8931 54.4793 56.0605C55.191 56.2559 55.7772 56.4653 56.2308 56.6816C56.6843 56.8979 57.0193 57.17 57.2426 57.498C57.4589 57.826 57.5705 58.2377 57.5705 58.7471C57.5705 59.3053 57.424 59.7868 57.1309 60.1845C56.8378 60.5823 56.4261 60.8823 55.8958 61.0916C55.3655 61.301 54.7445 61.4057 54.0187 61.4057Z" fill="white"/>
<path d="M59.35 53.0318C59.2593 53.0318 59.1895 53.0039 59.1267 52.9481C59.0709 52.8922 59.043 52.8155 59.043 52.7248V52.006C59.043 51.9153 59.0709 51.8386 59.1267 51.7758C59.1825 51.713 59.2593 51.6851 59.35 51.6851H60.1943C60.285 51.6851 60.3618 51.713 60.4246 51.7758C60.4874 51.8386 60.5153 51.9153 60.5153 52.006V52.7248C60.5153 52.8155 60.4874 52.8853 60.4246 52.9481C60.3618 53.0039 60.285 53.0318 60.1943 53.0318H59.35ZM59.4616 61.2728C59.3709 61.2728 59.3012 61.2448 59.2384 61.189C59.1825 61.1332 59.1546 61.0564 59.1546 60.9657V54.6298C59.1546 54.539 59.1825 54.4693 59.2384 54.4065C59.2942 54.3506 59.3709 54.3227 59.4616 54.3227H60.1036C60.1943 54.3227 60.2641 54.3506 60.3269 54.4065C60.3827 54.4623 60.4106 54.539 60.4106 54.6298V60.9657C60.4106 61.0564 60.3827 61.1262 60.3269 61.189C60.2711 61.2448 60.1943 61.2728 60.1036 61.2728H59.4616Z" fill="white"/>
<path d="M62.8109 61.2736C62.7202 61.2736 62.6505 61.2457 62.5876 61.1899C62.5318 61.1341 62.5039 61.0573 62.5039 60.9666V54.6306C62.5039 54.5399 62.5318 54.4701 62.5876 54.4073C62.6435 54.3515 62.7202 54.3236 62.8109 54.3236H63.411C63.5018 54.3236 63.5715 54.3515 63.6343 54.4073C63.6902 54.4631 63.7181 54.5399 63.7181 54.6306V55.0981C63.9204 54.819 64.1786 54.6027 64.4926 54.4352C64.8066 54.2678 65.1765 54.191 65.6161 54.191C66.6209 54.184 67.3327 54.5888 67.7513 55.4191C67.9537 55.0423 68.2537 54.7493 68.6445 54.526C69.0353 54.3027 69.4819 54.191 69.9843 54.191C70.4448 54.191 70.8705 54.2957 71.2473 54.512C71.6241 54.7283 71.9242 55.0493 72.1405 55.4819C72.3568 55.9146 72.4684 56.4588 72.4684 57.1078V60.9736C72.4684 61.0643 72.4405 61.1341 72.3847 61.1969C72.3289 61.2527 72.2521 61.2806 72.1614 61.2806H71.5334C71.4427 61.2806 71.3729 61.2527 71.3101 61.1969C71.2473 61.1411 71.2263 61.0643 71.2263 60.9736V57.2334C71.2263 56.7379 71.1566 56.3402 71.01 56.0541C70.8705 55.768 70.6751 55.5657 70.4378 55.454C70.1936 55.3354 69.9354 55.2796 69.6493 55.2796C69.4191 55.2796 69.1818 55.3354 68.9376 55.454C68.7003 55.5726 68.498 55.768 68.3445 56.0541C68.1909 56.3402 68.1072 56.731 68.1072 57.2334V60.9736C68.1072 61.0643 68.0793 61.1341 68.0235 61.1969C67.9676 61.2527 67.8909 61.2806 67.8002 61.2806H67.1722C67.0814 61.2806 67.0117 61.2527 66.9489 61.1969C66.893 61.1411 66.8651 61.0643 66.8651 60.9736V57.2334C66.8651 56.7379 66.7884 56.3402 66.6349 56.0541C66.4813 55.768 66.286 55.5657 66.0487 55.454C65.8115 55.3354 65.5533 55.2796 65.2881 55.2796C65.0578 55.2796 64.8206 55.3354 64.5833 55.454C64.3391 55.5726 64.1437 55.768 63.9902 56.0541C63.8367 56.3402 63.7599 56.724 63.7599 57.2194V60.9736C63.7599 61.0643 63.732 61.1341 63.6762 61.1969C63.6204 61.2527 63.5436 61.2806 63.4529 61.2806H62.8109V61.2736Z" fill="white"/>
<path d="M74.7084 63.8135C74.6177 63.8135 74.5479 63.7856 74.4851 63.7298C74.4293 63.6739 74.4014 63.5972 74.4014 63.5065V54.6305C74.4014 54.5398 74.4293 54.47 74.4851 54.4072C74.5409 54.3514 74.6177 54.3235 74.7084 54.3235H75.3225C75.4132 54.3235 75.4829 54.3514 75.5458 54.4072C75.6016 54.4631 75.6295 54.5398 75.6295 54.6305V55.2167C75.8458 54.9236 76.1249 54.6794 76.4878 54.484C76.8437 54.2886 77.2902 54.1909 77.8275 54.1909C78.323 54.1909 78.7486 54.2746 79.1045 54.4421C79.4534 54.6096 79.7465 54.8399 79.9768 55.1399C80.207 55.433 80.3745 55.7679 80.4931 56.1447C80.6117 56.5215 80.6745 56.9193 80.6955 57.3449C80.7025 57.4845 80.7094 57.638 80.7094 57.7985C80.7094 57.959 80.7025 58.1125 80.6955 58.2521C80.6745 58.6708 80.6117 59.0685 80.4931 59.4453C80.3745 59.8221 80.207 60.1571 79.9768 60.4501C79.7465 60.7362 79.4604 60.9735 79.1045 61.1479C78.7556 61.3224 78.33 61.4061 77.8275 61.4061C77.3112 61.4061 76.8785 61.3084 76.5227 61.12C76.1668 60.9316 75.8807 60.6874 75.6574 60.4083V63.5065C75.6574 63.5972 75.6295 63.667 75.5737 63.7298C75.5178 63.7856 75.4481 63.8135 75.3573 63.8135H74.7084ZM77.5414 60.3245C78.002 60.3245 78.3648 60.2268 78.63 60.0245C78.8952 59.8221 79.0836 59.5639 79.1952 59.236C79.3138 58.908 79.3766 58.5591 79.3976 58.1893C79.4046 57.9311 79.4046 57.6729 79.3976 57.4147C79.3766 57.0379 79.3138 56.689 79.1952 56.368C79.0766 56.0401 78.8882 55.7819 78.63 55.5795C78.3648 55.3772 78.002 55.2795 77.5414 55.2795C77.1018 55.2795 76.7529 55.3841 76.4808 55.5865C76.2087 55.7889 76.0063 56.054 75.8807 56.368C75.7481 56.682 75.6783 57.01 75.6574 57.338C75.6504 57.4775 75.6434 57.652 75.6434 57.8474C75.6434 58.0427 75.6504 58.2172 75.6574 58.3707C75.6644 58.6847 75.7411 58.9917 75.8807 59.2918C76.0202 59.5919 76.2226 59.8431 76.5017 60.0384C76.7739 60.2268 77.1228 60.3245 77.5414 60.3245Z" fill="white"/>
<path d="M82.6771 61.273C82.5864 61.273 82.5167 61.2451 82.4539 61.1892C82.398 61.1334 82.3701 61.0567 82.3701 60.9659V52.09C82.3701 51.9993 82.398 51.9295 82.4539 51.8667C82.5097 51.8109 82.5864 51.783 82.6771 51.783H83.3052C83.4029 51.783 83.4796 51.8109 83.5354 51.8667C83.5913 51.9225 83.6192 51.9993 83.6192 52.09V60.9659C83.6192 61.0567 83.5913 61.1264 83.5354 61.1892C83.4796 61.2451 83.4029 61.273 83.3052 61.273H82.6771Z" fill="white"/>
<path d="M88.3788 61.4061C87.4507 61.4061 86.718 61.12 86.1737 60.5548C85.6294 59.9896 85.3294 59.215 85.2805 58.2381C85.2736 58.1195 85.2666 57.973 85.2666 57.7915C85.2666 57.6101 85.2736 57.4566 85.2805 57.3449C85.3154 56.71 85.462 56.1587 85.7202 55.6842C85.9783 55.2097 86.3342 54.8399 86.7808 54.5817C87.2274 54.3235 87.7577 54.1909 88.3648 54.1909C89.0417 54.1909 89.6069 54.3305 90.0674 54.6166C90.528 54.9027 90.8769 55.3074 91.1141 55.8307C91.3583 56.3541 91.477 56.9681 91.477 57.6729V57.9032C91.477 58.0009 91.4491 58.0776 91.3932 58.1335C91.3374 58.1893 91.2607 58.2172 91.1699 58.2172H86.5436C86.5436 58.2242 86.5436 58.2451 86.5436 58.273C86.5436 58.3009 86.5436 58.3219 86.5436 58.3428C86.5645 58.7056 86.6413 59.0476 86.7808 59.3616C86.9204 59.6756 87.1297 59.9338 87.4019 60.1292C87.674 60.3245 87.995 60.4222 88.3578 60.4222C88.6788 60.4222 88.944 60.3734 89.1603 60.2757C89.3766 60.178 89.5511 60.0664 89.6836 59.9477C89.8162 59.8291 89.9069 59.7314 89.9488 59.6616C90.0325 59.557 90.0884 59.4872 90.1372 59.4662C90.1791 59.4453 90.2558 59.4314 90.3535 59.4314H91.0095C91.0932 59.4314 91.156 59.4593 91.2188 59.5081C91.2746 59.557 91.3025 59.6267 91.2956 59.7174C91.2886 59.85 91.2118 60.0105 91.0792 60.2059C90.9467 60.3943 90.7582 60.5897 90.514 60.7711C90.2698 60.9595 89.9628 61.113 89.6069 61.2317C89.244 61.3503 88.8393 61.4061 88.3788 61.4061ZM86.5505 57.2891H90.214V57.2473C90.214 56.8495 90.1442 56.4867 89.9907 56.1796C89.8441 55.8656 89.6348 55.6214 89.3557 55.44C89.0766 55.2586 88.7486 55.1678 88.3648 55.1678C87.981 55.1678 87.6531 55.2586 87.3809 55.44C87.1088 55.6214 86.8994 55.8726 86.7599 56.1796C86.6203 56.4936 86.5436 56.8495 86.5436 57.2473V57.2891H86.5505Z" fill="white"/>
<path d="M93.2973 61.2736C93.2066 61.2736 93.1368 61.2456 93.074 61.1898C93.0112 61.134 92.9902 61.0572 92.9902 60.9665V60.0036C92.9902 59.9129 93.0182 59.8431 93.074 59.7803C93.1298 59.7245 93.2066 59.6965 93.2973 59.6965H94.2602C94.3509 59.6965 94.4277 59.7245 94.4905 59.7803C94.5533 59.8361 94.5812 59.9129 94.5812 60.0036V60.9665C94.5812 61.0572 94.5533 61.127 94.4905 61.1898C94.4277 61.2456 94.3509 61.2736 94.2602 61.2736H93.2973Z" fill="white"/>
<path d="M99.2712 61.2733C99.2014 61.2733 99.1386 61.2454 99.0828 61.1896C99.0269 61.1338 98.999 61.071 98.999 61.0012C98.999 60.9593 99.006 60.9105 99.013 60.8547L102.328 52.209C102.362 52.1183 102.411 52.0485 102.474 51.9927C102.537 51.9368 102.628 51.9089 102.753 51.9089H103.66C103.786 51.9089 103.877 51.9368 103.939 51.9927C104.002 52.0485 104.051 52.1183 104.086 52.209L107.387 60.8547C107.407 60.9105 107.414 60.9593 107.414 61.0012C107.414 61.071 107.387 61.1338 107.331 61.1896C107.275 61.2454 107.212 61.2733 107.142 61.2733H106.458C106.354 61.2733 106.27 61.2454 106.221 61.1896C106.172 61.1338 106.137 61.0849 106.124 61.0431L105.391 59.1451H101.009L100.276 61.0431C100.269 61.0849 100.234 61.1338 100.185 61.1896C100.129 61.2454 100.053 61.2733 99.9411 61.2733H99.2712ZM101.413 58.0007H105.021L103.214 53.2557L101.413 58.0007Z" fill="white"/>
<path d="M111.14 61.4055C110.652 61.4055 110.226 61.3218 109.87 61.1473C109.514 60.9729 109.221 60.7356 108.998 60.4356C108.768 60.1355 108.6 59.7936 108.489 59.4098C108.377 59.026 108.314 58.6213 108.293 58.1956C108.286 58.0561 108.279 57.9165 108.279 57.7979C108.279 57.6723 108.286 57.5397 108.293 57.4002C108.314 56.9815 108.377 56.5837 108.489 56.2C108.6 55.8162 108.768 55.4743 108.998 55.1742C109.228 54.8741 109.514 54.6299 109.87 54.4624C110.226 54.288 110.652 54.2043 111.14 54.2043C111.664 54.2043 112.103 54.295 112.452 54.4834C112.801 54.6718 113.087 54.902 113.31 55.1812V52.1039C113.31 52.0132 113.338 51.9434 113.394 51.8806C113.45 51.8248 113.527 51.7969 113.617 51.7969H114.259C114.35 51.7969 114.42 51.8248 114.483 51.8806C114.539 51.9364 114.566 52.0132 114.566 52.1039V60.9799C114.566 61.0706 114.539 61.1403 114.483 61.2031C114.427 61.259 114.35 61.2869 114.259 61.2869H113.659C113.562 61.2869 113.485 61.259 113.429 61.2031C113.373 61.1473 113.345 61.0706 113.345 60.9799V60.4216C113.122 60.7077 112.836 60.945 112.48 61.1334C112.124 61.3148 111.678 61.4055 111.14 61.4055ZM111.419 60.3239C111.866 60.3239 112.222 60.2193 112.487 60.0169C112.752 59.8145 112.955 59.5494 113.087 59.2354C113.22 58.9214 113.289 58.5934 113.303 58.2654C113.31 58.1259 113.317 57.9514 113.317 57.7491C113.317 57.5467 113.31 57.3792 113.303 57.2327C113.296 56.9187 113.22 56.6117 113.08 56.3116C112.941 56.0116 112.738 55.7603 112.466 55.565C112.194 55.3696 111.845 55.2719 111.419 55.2719C110.966 55.2719 110.603 55.3696 110.338 55.5719C110.073 55.7743 109.877 56.0325 109.766 56.3604C109.647 56.6884 109.584 57.0373 109.563 57.4071C109.556 57.6653 109.556 57.9235 109.563 58.1817C109.584 58.5585 109.647 58.9074 109.766 59.2284C109.884 59.5564 110.073 59.8145 110.338 60.0169C110.61 60.2262 110.966 60.3239 111.419 60.3239Z" fill="white"/>
<path d="M118.977 61.2713C118.844 61.2713 118.74 61.2434 118.663 61.1806C118.586 61.1178 118.53 61.041 118.482 60.9364L116.011 54.733C115.99 54.6911 115.983 54.6423 115.983 54.6004C115.983 54.5167 116.011 54.4539 116.06 54.398C116.116 54.3422 116.179 54.3213 116.263 54.3213H116.904C117.002 54.3213 117.079 54.3492 117.135 54.398C117.191 54.4539 117.225 54.5027 117.239 54.5446L119.27 59.8129L121.301 54.5446C121.322 54.5027 121.349 54.4539 121.398 54.398C121.447 54.3422 121.524 54.3213 121.622 54.3213H122.278C122.347 54.3213 122.41 54.3492 122.473 54.398C122.529 54.4539 122.557 54.5167 122.557 54.6004C122.557 54.6423 122.55 54.6911 122.529 54.733L120.045 60.9364C120.01 61.0341 119.954 61.1178 119.877 61.1806C119.8 61.2434 119.696 61.2713 119.549 61.2713H118.977Z" fill="white"/>
<path d="M125.627 61.4061C125.18 61.4061 124.775 61.3154 124.412 61.141C124.05 60.9595 123.756 60.7223 123.533 60.4222C123.31 60.1222 123.198 59.7733 123.198 59.3965C123.198 58.7824 123.449 58.294 123.945 57.9241C124.44 57.5613 125.096 57.317 125.899 57.2054L127.887 56.9263V56.5355C127.887 56.1098 127.762 55.7749 127.518 55.5307C127.273 55.2934 126.876 55.1678 126.324 55.1678C125.934 55.1678 125.613 55.2446 125.361 55.4051C125.11 55.5656 124.936 55.7679 124.838 56.0191C124.782 56.1517 124.692 56.2215 124.559 56.2215H123.959C123.861 56.2215 123.784 56.1936 123.736 56.1378C123.687 56.0819 123.659 56.0122 123.659 55.9284C123.659 55.7958 123.708 55.6284 123.812 55.433C123.917 55.2376 124.07 55.0422 124.287 54.8608C124.503 54.6724 124.775 54.5189 125.11 54.3863C125.445 54.2607 125.85 54.1909 126.331 54.1909C126.869 54.1909 127.315 54.2607 127.678 54.4002C128.041 54.5398 128.334 54.7212 128.543 54.9515C128.753 55.1818 128.906 55.447 128.997 55.74C129.088 56.0331 129.136 56.3331 129.136 56.6332V60.9665C129.136 61.0572 129.109 61.127 129.053 61.1898C128.997 61.2456 128.92 61.2735 128.829 61.2735H128.215C128.118 61.2735 128.041 61.2456 127.985 61.1898C127.929 61.134 127.901 61.0572 127.901 60.9665V60.3943C127.783 60.5548 127.629 60.7153 127.434 60.8688C127.238 61.0223 126.994 61.1549 126.701 61.2596C126.415 61.3573 126.059 61.4061 125.627 61.4061ZM125.913 60.4083C126.276 60.4083 126.61 60.3315 126.918 60.171C127.218 60.0175 127.462 59.7733 127.636 59.4453C127.811 59.1174 127.894 58.6987 127.894 58.2032V57.8264L126.345 58.0567C125.71 58.1474 125.236 58.2939 124.915 58.5033C124.594 58.7126 124.433 58.9778 124.433 59.2988C124.433 59.55 124.503 59.7523 124.657 59.9198C124.803 60.0873 124.992 60.2059 125.215 60.2896C125.438 60.3664 125.668 60.4083 125.913 60.4083Z" fill="white"/>
<path d="M131.376 61.2735C131.286 61.2735 131.216 61.2456 131.153 61.1898C131.097 61.134 131.069 61.0572 131.069 60.9665V54.6305C131.069 54.5398 131.097 54.47 131.153 54.4072C131.209 54.3514 131.286 54.3235 131.376 54.3235H132.004C132.095 54.3235 132.165 54.3514 132.228 54.4072C132.284 54.4631 132.311 54.5398 132.311 54.6305V55.2167C132.542 54.9166 132.835 54.6654 133.184 54.477C133.533 54.2886 133.986 54.1909 134.537 54.1909C135.117 54.1909 135.612 54.3165 136.017 54.5747C136.421 54.8259 136.728 55.1818 136.938 55.6284C137.147 56.0819 137.252 56.6053 137.252 57.1984V60.9665C137.252 61.0572 137.224 61.127 137.168 61.1898C137.112 61.2456 137.035 61.2735 136.945 61.2735H136.275C136.184 61.2735 136.114 61.2456 136.052 61.1898C135.996 61.134 135.968 61.0572 135.968 60.9665V57.2612C135.968 56.6402 135.814 56.1517 135.514 55.7958C135.214 55.4469 134.768 55.2655 134.175 55.2655C133.623 55.2655 133.177 55.44 132.842 55.7958C132.507 56.1517 132.339 56.6332 132.339 57.2612V60.9665C132.339 61.0572 132.311 61.127 132.256 61.1898C132.2 61.2456 132.123 61.2735 132.032 61.2735H131.376Z" fill="white"/>
<path d="M141.975 61.4059C141.34 61.4059 140.796 61.2803 140.336 61.0361C139.875 60.7918 139.519 60.436 139.275 59.9824C139.024 59.5219 138.891 58.9706 138.877 58.3286C138.87 58.196 138.863 58.0146 138.863 57.7913C138.863 57.568 138.87 57.3936 138.877 57.254C138.898 56.612 139.031 56.0608 139.275 55.6002C139.526 55.1397 139.882 54.7908 140.336 54.5466C140.796 54.3024 141.34 54.1768 141.975 54.1768C142.492 54.1768 142.938 54.2465 143.308 54.3931C143.678 54.5326 143.985 54.721 144.222 54.9443C144.46 55.1676 144.641 55.4049 144.767 55.663C144.885 55.9212 144.948 56.1655 144.962 56.3957C144.969 56.4865 144.941 56.5562 144.885 56.6121C144.822 56.6679 144.746 56.6958 144.655 56.6958H144.013C143.922 56.6958 143.859 56.6749 143.811 56.633C143.769 56.5911 143.72 56.5213 143.678 56.4236C143.518 55.984 143.301 55.677 143.022 55.5026C142.743 55.3211 142.401 55.2374 141.996 55.2374C141.459 55.2374 141.026 55.4049 140.692 55.7328C140.357 56.0608 140.175 56.5911 140.147 57.3238C140.14 57.6448 140.14 57.9588 140.147 58.2588C140.175 58.9985 140.357 59.5288 140.692 59.8568C141.026 60.1848 141.459 60.3453 141.996 60.3453C142.408 60.3453 142.75 60.2545 143.022 60.0801C143.301 59.8987 143.518 59.5916 143.678 59.159C143.72 59.0613 143.769 58.9915 143.811 58.9427C143.853 58.9008 143.922 58.8729 144.013 58.8729H144.655C144.746 58.8729 144.822 58.9008 144.885 58.9566C144.948 59.0125 144.976 59.0892 144.962 59.1799C144.955 59.3683 144.913 59.5568 144.843 59.7521C144.774 59.9475 144.655 60.1429 144.501 60.3453C144.348 60.5476 144.153 60.7221 143.922 60.8826C143.692 61.0361 143.413 61.1617 143.092 61.2594C142.764 61.364 142.394 61.4059 141.975 61.4059Z" fill="white"/>
<path d="M149.324 61.4061C148.396 61.4061 147.663 61.12 147.119 60.5548C146.575 59.9896 146.275 59.215 146.226 58.2381C146.219 58.1195 146.212 57.973 146.212 57.7915C146.212 57.6101 146.219 57.4566 146.226 57.3449C146.261 56.71 146.407 56.1587 146.665 55.6842C146.924 55.2097 147.28 54.8399 147.726 54.5817C148.173 54.3235 148.703 54.1909 149.31 54.1909C149.987 54.1909 150.552 54.3305 151.013 54.6166C151.473 54.9027 151.822 55.3074 152.059 55.8307C152.304 56.3541 152.422 56.9681 152.422 57.6729V57.9032C152.422 58.0009 152.394 58.0776 152.339 58.1335C152.283 58.1893 152.206 58.2172 152.115 58.2172H147.489C147.489 58.2242 147.489 58.2451 147.489 58.273C147.489 58.3009 147.489 58.3219 147.489 58.3428C147.51 58.7056 147.587 59.0476 147.733 59.3616C147.873 59.6756 148.082 59.9338 148.354 60.1292C148.626 60.3245 148.947 60.4222 149.31 60.4222C149.631 60.4222 149.896 60.3734 150.113 60.2757C150.329 60.178 150.503 60.0664 150.636 59.9477C150.769 59.8291 150.859 59.7314 150.901 59.6616C150.985 59.557 151.041 59.4872 151.089 59.4662C151.131 59.4453 151.208 59.4314 151.306 59.4314H151.962C152.045 59.4314 152.108 59.4593 152.171 59.5081C152.227 59.557 152.255 59.6267 152.241 59.7174C152.234 59.85 152.157 60.0105 152.025 60.2059C151.892 60.3943 151.704 60.5897 151.459 60.7711C151.215 60.9595 150.908 61.113 150.552 61.2317C150.189 61.3503 149.778 61.4061 149.324 61.4061ZM147.496 57.2891H151.159V57.2473C151.159 56.8495 151.089 56.4867 150.936 56.1796C150.789 55.8656 150.58 55.6214 150.301 55.44C150.022 55.2586 149.694 55.1678 149.31 55.1678C148.926 55.1678 148.598 55.2586 148.326 55.44C148.054 55.6214 147.845 55.8726 147.705 56.1796C147.566 56.4936 147.489 56.8495 147.489 57.2473V57.2891H147.496Z" fill="white"/>
<path d="M156.567 61.4055C156.079 61.4055 155.653 61.3218 155.297 61.1473C154.941 60.9729 154.648 60.7356 154.425 60.4356C154.195 60.1355 154.027 59.7936 153.915 59.4098C153.804 59.026 153.741 58.6213 153.72 58.1956C153.713 58.0561 153.706 57.9165 153.706 57.7979C153.706 57.6723 153.713 57.5397 153.72 57.4002C153.741 56.9815 153.804 56.5837 153.915 56.2C154.027 55.8162 154.195 55.4743 154.425 55.1742C154.655 54.8741 154.941 54.6299 155.297 54.4624C155.653 54.288 156.079 54.2043 156.567 54.2043C157.09 54.2043 157.53 54.295 157.879 54.4834C158.228 54.6718 158.514 54.902 158.737 55.1812V52.1039C158.737 52.0132 158.765 51.9434 158.821 51.8806C158.877 51.8248 158.953 51.7969 159.044 51.7969H159.686C159.777 51.7969 159.847 51.8248 159.909 51.8806C159.965 51.9364 159.993 52.0132 159.993 52.1039V60.9799C159.993 61.0706 159.965 61.1403 159.909 61.2031C159.854 61.259 159.777 61.2869 159.686 61.2869H159.086C158.988 61.2869 158.912 61.259 158.856 61.2031C158.8 61.1473 158.772 61.0706 158.772 60.9799V60.4216C158.549 60.7077 158.263 60.945 157.9 61.1334C157.551 61.3148 157.104 61.4055 156.567 61.4055ZM156.853 60.3239C157.3 60.3239 157.656 60.2193 157.921 60.0169C158.186 59.8145 158.388 59.5494 158.521 59.2354C158.653 58.9214 158.723 58.5934 158.737 58.2654C158.744 58.1259 158.751 57.9514 158.751 57.7491C158.751 57.5467 158.744 57.3792 158.737 57.2327C158.73 56.9187 158.653 56.6117 158.514 56.3116C158.374 56.0116 158.172 55.7603 157.9 55.565C157.628 55.3696 157.279 55.2719 156.853 55.2719C156.4 55.2719 156.037 55.3696 155.772 55.5719C155.506 55.7743 155.311 56.0325 155.199 56.3604C155.081 56.6884 155.018 57.0373 154.997 57.4071C154.99 57.6653 154.99 57.9235 154.997 58.1817C155.018 58.5585 155.081 58.9074 155.199 59.2284C155.318 59.5564 155.506 59.8145 155.772 60.0169C156.037 60.2262 156.393 60.3239 156.853 60.3239Z" fill="white"/>
<path d="M162.198 61.2736C162.107 61.2736 162.037 61.2456 161.974 61.1898C161.919 61.134 161.891 61.0572 161.891 60.9665V60.0036C161.891 59.9129 161.919 59.8431 161.974 59.7803C162.03 59.7245 162.107 59.6965 162.198 59.6965H163.161C163.251 59.6965 163.328 59.7245 163.391 59.7803C163.454 59.8361 163.482 59.9129 163.482 60.0036V60.9665C163.482 61.0572 163.454 61.127 163.391 61.1898C163.328 61.2456 163.251 61.2736 163.161 61.2736H162.198Z" fill="white"/>
<path d="M169.107 61.2732C169.009 61.2732 168.932 61.2453 168.877 61.1895C168.821 61.1337 168.8 61.0569 168.8 60.9662V52.2368C168.8 52.1391 168.828 52.0623 168.877 51.9995C168.932 51.9437 169.009 51.9158 169.107 51.9158H172.498C173.161 51.9158 173.733 52.0204 174.215 52.2368C174.703 52.4531 175.08 52.7671 175.345 53.1927C175.61 53.6184 175.743 54.1417 175.743 54.7767C175.743 55.4117 175.61 55.9351 175.345 56.3538C175.08 56.7724 174.703 57.0864 174.215 57.3028C173.726 57.5191 173.154 57.6237 172.498 57.6237H170.133V60.9662C170.133 61.0569 170.105 61.1267 170.049 61.1895C169.993 61.2453 169.916 61.2732 169.812 61.2732H169.107ZM170.119 56.5073H172.428C173.084 56.5073 173.58 56.3607 173.915 56.0677C174.243 55.7746 174.41 55.3489 174.41 54.7837C174.41 54.2325 174.25 53.8068 173.929 53.4998C173.608 53.1997 173.112 53.0462 172.435 53.0462H170.126V56.5073H170.119Z" fill="white"/>
<path d="M179.007 61.4061C178.561 61.4061 178.156 61.3154 177.793 61.141C177.43 60.9595 177.13 60.7223 176.914 60.4222C176.691 60.1222 176.579 59.7733 176.579 59.3965C176.579 58.7824 176.83 58.294 177.326 57.9241C177.821 57.5613 178.477 57.317 179.28 57.2054L181.268 56.9263V56.5355C181.268 56.1098 181.143 55.7749 180.898 55.5307C180.654 55.2934 180.256 55.1678 179.705 55.1678C179.314 55.1678 178.993 55.2446 178.742 55.4051C178.491 55.5656 178.317 55.7679 178.219 56.0191C178.163 56.1517 178.072 56.2215 177.94 56.2215H177.34C177.242 56.2215 177.165 56.1936 177.116 56.1378C177.068 56.0819 177.04 56.0122 177.04 55.9284C177.04 55.7958 177.088 55.6284 177.193 55.433C177.298 55.2376 177.451 55.0422 177.668 54.8608C177.884 54.6724 178.156 54.5189 178.491 54.3863C178.826 54.2607 179.231 54.1909 179.712 54.1909C180.25 54.1909 180.696 54.2607 181.059 54.4002C181.422 54.5398 181.715 54.7212 181.924 54.9515C182.134 55.1818 182.287 55.447 182.378 55.74C182.468 56.0331 182.517 56.3331 182.517 56.6332V60.9665C182.517 61.0572 182.489 61.127 182.434 61.1898C182.378 61.2456 182.301 61.2735 182.21 61.2735H181.596C181.499 61.2735 181.422 61.2456 181.366 61.1898C181.31 61.134 181.296 61.0572 181.296 60.9665V60.3943C181.178 60.5548 181.024 60.7153 180.829 60.8688C180.633 61.0223 180.389 61.1549 180.096 61.2596C179.796 61.3573 179.433 61.4061 179.007 61.4061ZM179.287 60.4083C179.649 60.4083 179.984 60.3315 180.291 60.171C180.591 60.0175 180.836 59.7733 181.01 59.4453C181.185 59.1174 181.268 58.6987 181.268 58.2032V57.8264L179.719 58.0567C179.084 58.1474 178.61 58.2939 178.289 58.5033C177.968 58.7126 177.807 58.9778 177.807 59.2988C177.807 59.55 177.884 59.7523 178.031 59.9198C178.177 60.0873 178.365 60.2059 178.589 60.2896C178.812 60.3664 179.049 60.4083 179.287 60.4083Z" fill="white"/>
<path d="M185.518 63.8115C185.448 63.8115 185.386 63.7835 185.33 63.7277C185.274 63.6719 185.246 63.6091 185.246 63.5393C185.246 63.5044 185.253 63.4695 185.26 63.4346C185.267 63.3998 185.288 63.3509 185.316 63.3021L186.341 60.8528L183.788 54.8239C183.746 54.7192 183.718 54.6424 183.718 54.5936C183.718 54.5098 183.746 54.447 183.802 54.3912C183.857 54.3354 183.92 54.3145 184.004 54.3145H184.66C184.757 54.3145 184.834 54.3354 184.883 54.3842C184.932 54.4261 184.967 54.4819 184.981 54.5447L187.011 59.4084L189.098 54.5447C189.126 54.4819 189.161 54.4261 189.209 54.3842C189.258 54.3424 189.335 54.3145 189.433 54.3145H190.061C190.144 54.3145 190.207 54.3424 190.263 54.3912C190.319 54.4401 190.347 54.5098 190.347 54.5796C190.347 54.6215 190.326 54.7052 190.277 54.8239L186.481 63.5812C186.453 63.644 186.418 63.6998 186.369 63.7417C186.321 63.7835 186.244 63.8115 186.146 63.8115H185.518Z" fill="white"/>
<path d="M191.987 61.2736C191.896 61.2736 191.826 61.2457 191.763 61.1899C191.708 61.1341 191.68 61.0573 191.68 60.9666V54.6306C191.68 54.5399 191.708 54.4701 191.763 54.4073C191.819 54.3515 191.896 54.3236 191.987 54.3236H192.587C192.678 54.3236 192.747 54.3515 192.81 54.4073C192.866 54.4631 192.894 54.5399 192.894 54.6306V55.0981C193.096 54.819 193.354 54.6027 193.668 54.4352C193.982 54.2678 194.352 54.191 194.792 54.191C195.797 54.184 196.508 54.5888 196.927 55.4191C197.129 55.0423 197.43 54.7493 197.82 54.526C198.211 54.3027 198.658 54.191 199.16 54.191C199.621 54.191 200.046 54.2957 200.423 54.512C200.8 54.7283 201.1 55.0493 201.316 55.4819C201.533 55.9146 201.644 56.4588 201.644 57.1078V60.9736C201.644 61.0643 201.616 61.1341 201.56 61.1969C201.505 61.2527 201.428 61.2806 201.337 61.2806H200.709C200.618 61.2806 200.549 61.2527 200.486 61.1969C200.43 61.1411 200.402 61.0643 200.402 60.9736V57.2334C200.402 56.7379 200.332 56.3402 200.186 56.0541C200.046 55.768 199.851 55.5657 199.614 55.454C199.376 55.3354 199.111 55.2796 198.825 55.2796C198.595 55.2796 198.358 55.3354 198.113 55.454C197.869 55.5726 197.674 55.768 197.52 56.0541C197.367 56.3402 197.283 56.731 197.283 57.2334V60.9736C197.283 61.0643 197.255 61.1341 197.199 61.1969C197.143 61.2527 197.067 61.2806 196.976 61.2806H196.348C196.257 61.2806 196.187 61.2527 196.125 61.1969C196.069 61.1411 196.041 61.0643 196.041 60.9736V57.2334C196.041 56.7379 195.964 56.3402 195.811 56.0541C195.657 55.768 195.462 55.5657 195.224 55.454C194.987 55.3354 194.729 55.2796 194.464 55.2796C194.234 55.2796 193.996 55.3354 193.752 55.454C193.515 55.5726 193.313 55.768 193.159 56.0541C193.005 56.3402 192.922 56.724 192.922 57.2194V60.9736C192.922 61.0643 192.894 61.1341 192.838 61.1969C192.782 61.2527 192.705 61.2806 192.615 61.2806H191.987V61.2736Z" fill="white"/>
<path d="M206.341 61.4061C205.413 61.4061 204.68 61.12 204.136 60.5548C203.591 59.9896 203.291 59.215 203.242 58.2381C203.236 58.1195 203.229 57.973 203.229 57.7915C203.229 57.6101 203.236 57.4566 203.242 57.3449C203.277 56.71 203.424 56.1587 203.682 55.6842C203.94 55.2097 204.296 54.8399 204.743 54.5817C205.189 54.3235 205.72 54.1909 206.327 54.1909C207.004 54.1909 207.569 54.3305 208.029 54.6166C208.49 54.9027 208.839 55.3074 209.076 55.8307C209.313 56.3541 209.439 56.9681 209.439 57.6729V57.9032C209.439 58.0009 209.411 58.0776 209.355 58.1335C209.299 58.1893 209.223 58.2172 209.132 58.2172H204.505C204.505 58.2242 204.505 58.2451 204.505 58.273C204.505 58.3009 204.505 58.3219 204.505 58.3428C204.526 58.7056 204.603 59.0476 204.743 59.3616C204.882 59.6756 205.092 59.9338 205.364 60.1292C205.636 60.3245 205.957 60.4222 206.32 60.4222C206.641 60.4222 206.906 60.3734 207.122 60.2757C207.339 60.178 207.513 60.0664 207.646 59.9477C207.778 59.8291 207.869 59.7314 207.911 59.6616C207.994 59.557 208.05 59.4872 208.099 59.4662C208.148 59.4453 208.218 59.4314 208.315 59.4314H208.971C209.055 59.4314 209.118 59.4593 209.181 59.5081C209.237 59.557 209.264 59.6267 209.257 59.7174C209.25 59.85 209.174 60.0105 209.041 60.2059C208.909 60.3943 208.72 60.5897 208.476 60.7711C208.232 60.9595 207.925 61.113 207.569 61.2317C207.199 61.3503 206.794 61.4061 206.341 61.4061ZM204.505 57.2891H208.169V57.2473C208.169 56.8495 208.092 56.4867 207.946 56.1796C207.799 55.8656 207.59 55.6214 207.311 55.44C207.032 55.2586 206.704 55.1678 206.32 55.1678C205.936 55.1678 205.608 55.2586 205.336 55.44C205.064 55.6214 204.854 55.8726 204.715 56.1796C204.575 56.4936 204.499 56.8495 204.499 57.2473V57.2891H204.505Z" fill="white"/>
<path d="M211.351 61.2735C211.26 61.2735 211.19 61.2456 211.128 61.1898C211.072 61.134 211.044 61.0572 211.044 60.9665V54.6305C211.044 54.5398 211.072 54.47 211.128 54.4072C211.184 54.3514 211.26 54.3235 211.351 54.3235H211.979C212.07 54.3235 212.139 54.3514 212.202 54.4072C212.258 54.4631 212.286 54.5398 212.286 54.6305V55.2167C212.516 54.9166 212.809 54.6654 213.158 54.477C213.507 54.2886 213.961 54.1909 214.512 54.1909C215.091 54.1909 215.587 54.3165 215.991 54.5747C216.396 54.8259 216.703 55.1818 216.912 55.6284C217.122 56.0819 217.226 56.6053 217.226 57.1984V60.9665C217.226 61.0572 217.198 61.127 217.143 61.1898C217.087 61.2456 217.01 61.2735 216.919 61.2735H216.249C216.159 61.2735 216.089 61.2456 216.026 61.1898C215.97 61.134 215.942 61.0572 215.942 60.9665V57.2612C215.942 56.6402 215.789 56.1517 215.489 55.7958C215.189 55.4469 214.742 55.2655 214.149 55.2655C213.598 55.2655 213.151 55.44 212.816 55.7958C212.481 56.1517 212.314 56.6332 212.314 57.2612V60.9665C212.314 61.0572 212.286 61.127 212.23 61.1898C212.174 61.2456 212.098 61.2735 212.007 61.2735H211.351Z" fill="white"/>
<path d="M221.762 61.273C221.259 61.273 220.855 61.1753 220.548 60.9869C220.234 60.7985 220.01 60.5263 219.864 60.1705C219.724 59.8216 219.648 59.4029 219.648 58.9214V55.3906H218.608C218.517 55.3906 218.447 55.3627 218.385 55.3068C218.329 55.251 218.301 55.1743 218.301 55.0835V54.63C218.301 54.5393 218.329 54.4695 218.385 54.4067C218.44 54.3509 218.517 54.3229 218.608 54.3229H219.648V52.09C219.648 51.9993 219.675 51.9295 219.731 51.8667C219.787 51.8109 219.864 51.783 219.955 51.783H220.583C220.673 51.783 220.743 51.8109 220.806 51.8667C220.862 51.9225 220.89 51.9993 220.89 52.09V54.3229H222.55C222.648 54.3229 222.725 54.3509 222.781 54.4067C222.836 54.4625 222.864 54.5393 222.864 54.63V55.0835C222.864 55.1743 222.836 55.244 222.781 55.3068C222.725 55.3627 222.648 55.3906 222.55 55.3906H220.89V58.8237C220.89 59.2424 220.959 59.5704 221.106 59.8146C221.245 60.0518 221.504 60.1774 221.867 60.1774H222.683C222.774 60.1774 222.843 60.2053 222.906 60.2612C222.962 60.317 222.99 60.3938 222.99 60.4845V60.9659C222.99 61.0567 222.962 61.1264 222.906 61.1892C222.85 61.2451 222.774 61.273 222.683 61.273H221.762Z" fill="white"/>
<path d="M226.681 61.4059C226.179 61.4059 225.753 61.3431 225.397 61.2175C225.041 61.0919 224.748 60.9384 224.525 60.7639C224.301 60.5825 224.134 60.4081 224.022 60.2266C223.911 60.0452 223.848 59.9057 223.841 59.801C223.834 59.7033 223.862 59.6265 223.932 59.5707C224.001 59.5149 224.071 59.487 224.148 59.487H224.748C224.79 59.487 224.832 59.4939 224.86 59.5079C224.888 59.5219 224.936 59.5567 224.985 59.6196C225.104 59.7452 225.23 59.8708 225.376 59.9964C225.516 60.122 225.697 60.2266 225.906 60.3034C226.116 60.3802 226.374 60.422 226.688 60.422C227.141 60.422 227.518 60.3383 227.811 60.1638C228.104 59.9894 228.251 59.7312 228.251 59.3963C228.251 59.173 228.188 58.9985 228.07 58.859C227.951 58.7264 227.735 58.6077 227.428 58.4961C227.121 58.3914 226.702 58.2798 226.165 58.1612C225.627 58.0356 225.209 57.882 224.895 57.7006C224.581 57.5192 224.357 57.3029 224.225 57.0447C224.092 56.7935 224.022 56.5004 224.022 56.1794C224.022 55.8515 224.12 55.5305 224.315 55.2235C224.511 54.9164 224.797 54.6652 225.181 54.4698C225.557 54.2744 226.032 54.1768 226.604 54.1768C227.065 54.1768 227.462 54.2326 227.79 54.3512C228.118 54.4698 228.39 54.6094 228.607 54.7838C228.823 54.9583 228.984 55.1327 229.088 55.3002C229.193 55.4677 229.256 55.6142 229.263 55.7258C229.27 55.8166 229.242 55.8863 229.179 55.9491C229.116 56.005 229.046 56.0329 228.963 56.0329H228.404C228.342 56.0329 228.293 56.0189 228.251 55.991C228.209 55.9631 228.174 55.9352 228.139 55.9003C228.049 55.7817 227.944 55.67 227.825 55.5514C227.707 55.4328 227.546 55.3421 227.358 55.2653C227.169 55.1886 226.911 55.1537 226.604 55.1537C226.158 55.1537 225.823 55.2444 225.599 55.4328C225.376 55.6212 225.264 55.8584 225.264 56.1376C225.264 56.305 225.313 56.4585 225.411 56.5911C225.509 56.7237 225.697 56.8423 225.969 56.954C226.248 57.0586 226.653 57.1773 227.197 57.3029C227.783 57.4215 228.251 57.575 228.586 57.7704C228.928 57.9658 229.165 58.196 229.305 58.4542C229.444 58.7124 229.521 59.0125 229.521 59.3474C229.521 59.7242 229.416 60.0661 229.2 60.3732C228.984 60.6872 228.663 60.9314 228.237 61.1128C227.811 61.2942 227.302 61.4059 226.681 61.4059Z" fill="white"/>
<path d="M231.307 61.2736C231.216 61.2736 231.147 61.2456 231.084 61.1898C231.028 61.134 231 61.0572 231 60.9665V60.0036C231 59.9129 231.028 59.8431 231.084 59.7803C231.14 59.7245 231.216 59.6965 231.307 59.6965H232.27C232.361 59.6965 232.437 59.7245 232.5 59.7803C232.563 59.8361 232.591 59.9129 232.591 60.0036V60.9665C232.591 61.0572 232.563 61.127 232.5 61.1898C232.437 61.2456 232.361 61.2736 232.27 61.2736H231.307Z" fill="white"/>
<path d="M43.1474 2.36213C42.7287 1.94346 42.2333 1.73412 41.6751 1.73412H33.4271C32.8689 1.73412 32.3874 1.94346 31.9966 2.36213C31.6059 2.78081 31.4105 3.27625 31.4105 3.83448V7.03039C30.0079 5.29288 28.2146 3.83448 26.0235 2.65521C23.8394 1.47593 21.2018 0.889787 18.1175 0.889787C15.2007 0.889787 12.6328 1.38522 10.4208 2.36213C8.20183 3.34603 6.36663 4.72069 4.90824 6.48611C3.44984 8.25153 2.32639 10.3449 1.54486 12.7523C0.756354 15.1667 0.309765 17.8323 0.198118 20.749C0.142294 22.2074 0.142294 23.6937 0.198118 25.208C0.309765 28.2364 0.756354 30.9578 1.54486 33.3722C2.32639 35.7865 3.44984 37.845 4.90824 39.5546C6.36663 41.2642 8.20183 42.583 10.4208 43.5111C12.6328 44.4392 15.2007 44.8997 18.1175 44.8997C21.0901 44.8997 23.6022 44.4252 25.6467 43.4692C27.6912 42.5133 29.3939 41.313 30.7406 39.8477V45.4859C30.7406 47.7886 30.4196 49.6098 29.7707 50.9566C29.1217 52.3033 28.1588 53.2593 26.8678 53.8176C25.5769 54.3758 23.9511 54.6619 21.9903 54.6619C20.2527 54.6619 18.8641 54.4107 17.8244 53.9013C16.7847 53.3989 16.0171 52.7639 15.5077 52.0103C15.0053 51.2566 14.6076 50.5379 14.3285 49.868C14.1052 49.247 13.8121 48.8144 13.4423 48.5632C13.0794 48.312 12.6468 48.1863 12.1374 48.1863H3.13583C2.5776 48.1863 2.06821 48.3817 1.62162 48.7725C1.17503 49.1632 0.979646 49.6657 1.03547 50.2867C1.09129 51.131 1.45415 52.3033 2.13101 53.8176C2.80089 55.3318 3.9383 56.8599 5.53625 58.4021C7.1342 59.9442 9.30434 61.263 12.0606 62.3586C14.8099 63.4541 18.2571 63.9984 22.4089 63.9984C27.1191 63.9984 31.0616 63.2238 34.2296 61.6817C37.3976 60.1396 39.798 57.9066 41.4239 54.9898C43.0497 52.0731 43.8661 48.5143 43.8661 44.3066L43.7824 3.83448C43.7754 3.27625 43.5661 2.78081 43.1474 2.36213ZM30.7336 25.6266C30.6778 27.1967 30.3429 28.6969 29.7218 30.1274C29.1008 31.5579 28.1657 32.7372 26.9027 33.6583C25.6397 34.5863 23.9999 35.0469 21.9833 35.0469C19.848 35.0469 18.1663 34.5863 16.9382 33.6583C15.7031 32.7302 14.803 31.516 14.2447 30.0018C13.6865 28.4876 13.3446 26.8059 13.2329 24.9567C13.1771 23.6658 13.1771 22.347 13.2329 21.0002C13.3446 19.2069 13.6795 17.5531 14.2447 16.0389C14.803 14.5247 15.7031 13.3036 16.9382 12.3825C18.1733 11.4544 19.855 10.9939 21.9833 10.9939C23.9999 10.9939 25.6397 11.4405 26.9027 12.3406C28.1657 13.2408 29.1008 14.3991 29.7218 15.8296C30.3359 17.2601 30.6778 18.7603 30.7336 20.3304C30.7895 20.9514 30.8174 21.8306 30.8174 22.982C30.8174 24.1264 30.7895 25.0126 30.7336 25.6266ZM78.9164 1.73412H75.3018C72.6083 1.73412 70.2358 2.20862 68.1913 3.16459C66.1398 4.12057 64.4162 5.46732 63.0136 7.20483V3.83448C63.0136 3.27625 62.8043 2.78081 62.3856 2.36213C61.9669 1.94346 61.4715 1.73412 60.9133 1.73412H52.6653C52.1071 1.73412 51.6256 1.94346 51.2349 2.36213C50.8441 2.78081 50.6487 3.27625 50.6487 3.83448V43.3785C50.6487 43.9996 50.8441 44.502 51.2349 44.8927C51.6256 45.2835 52.1071 45.4789 52.6653 45.4789H61.4994C62.1135 45.4789 62.6229 45.2835 63.0136 44.8927C63.4044 44.502 63.5998 43.9996 63.5998 43.3785V21.084C63.5998 18.558 64.2976 16.6111 65.7001 15.2365C67.1027 13.8618 69.0356 13.178 71.5058 13.178H78.9094C79.4676 13.178 79.9491 12.9826 80.3399 12.5918C80.7307 12.201 80.926 11.6986 80.926 11.0776V3.83448C80.926 3.22042 80.7307 2.71103 80.3399 2.32027C79.9561 1.9295 79.4746 1.73412 78.9164 1.73412ZM124.015 9.76574C122.277 6.93269 119.835 4.74859 116.695 3.19949C113.555 1.65736 109.766 0.882812 105.335 0.882812C100.848 0.882812 97.0312 1.65736 93.8911 3.19949C90.751 4.74161 88.3087 6.93269 86.5712 9.76574C84.8337 12.5988 83.8777 15.9482 83.7102 19.821C83.6544 20.8886 83.6265 22.1376 83.6265 23.5681C83.6265 24.9986 83.6544 26.2756 83.7102 27.399C83.8777 31.216 84.7918 34.5514 86.4456 37.4124C88.0994 40.2733 90.4998 42.4714 93.6399 44.0205C96.7799 45.5626 100.681 46.3372 105.335 46.3372C109.933 46.3372 113.806 45.5626 116.946 44.0205C120.086 42.4784 122.487 40.2733 124.14 37.4124C125.794 34.5514 126.708 31.216 126.876 27.399C126.988 26.2756 127.043 24.9986 127.043 23.5681C127.043 22.1376 126.988 20.8886 126.876 19.821C126.708 15.9552 125.752 12.5988 124.015 9.76574ZM113.834 26.9734C113.722 30.2809 112.962 32.793 111.559 34.5026C110.157 36.2122 108.077 37.0705 105.335 37.0705C102.586 37.0705 100.499 36.2192 99.0687 34.5026C97.6382 32.793 96.8637 30.2809 96.752 26.9734C96.6962 26.129 96.6683 25.0126 96.6683 23.61C96.6683 22.2074 96.6962 21.084 96.752 20.2466C96.8637 16.9949 97.6382 14.4968 99.0687 12.7593C100.499 11.0218 102.586 10.1495 105.335 10.1495C108.084 10.1495 110.157 11.0218 111.559 12.7593C112.962 14.4968 113.715 16.9949 113.834 20.2466C113.89 21.091 113.918 22.2144 113.918 23.61C113.918 25.0126 113.89 26.136 113.834 26.9734ZM179.008 32.9884L165.813 6.30467L163.74 2.11093C163.419 1.455 162.749 1.0433 162.024 1.0433H155.974C155.241 1.0433 154.578 1.455 154.257 2.11093L152.185 6.30467L145.828 19.1511L137.343 1.98533C137.022 1.3294 136.352 0.917704 135.626 0.917704H126.332C124.929 0.917704 124.001 2.37609 124.594 3.64608L138.801 33.9792L142.318 41.4945L144.146 45.2207C144.23 45.3952 144.335 45.5417 144.453 45.6673C145.346 46.4768 146.868 46.3023 147.454 45.1021L151.78 36.275L152.736 34.2444L159.002 20.8607L170.397 45.1928C171.081 46.6512 173.147 46.6721 173.858 45.2207L179.022 34.684C179.273 34.1537 179.273 33.5257 179.008 32.9884Z" fill="url(#paint0_linear_403_1593)"/>
<path d="M188.093 14.0468L188.002 5.32433C188.009 5.21966 187.953 5.12895 187.869 5.0801L181.254 1.51437C181.003 1.37481 181.129 0.991023 181.415 1.02591L194.422 1.04685C194.603 1.06778 194.708 1.26316 194.624 1.42365L188.595 14.1863C188.462 14.4375 188.072 14.3329 188.093 14.0468Z" fill="url(#paint1_linear_403_1593)"/>
<path d="M180.955 29.2358L180.606 20.4366C180.613 20.332 180.557 20.2413 180.474 20.1924L173.775 16.8779C173.523 16.7383 173.649 16.3545 173.935 16.3894L187.13 16.4104C187.312 16.4313 187.417 16.6267 187.333 16.7872L181.443 29.3684C181.325 29.6266 180.941 29.5219 180.955 29.2358Z" fill="url(#paint2_linear_403_1593)"/>
<defs>
<linearGradient id="paint0_linear_403_1593" x1="130.282" y1="-25.0048" x2="40.5619" y2="86.6258" gradientUnits="userSpaceOnUse">
<stop stop-color="#AFFCAF"/>
<stop offset="0.0346" stop-color="#9EF9B6"/>
<stop offset="0.1244" stop-color="#79F2C6"/>
<stop offset="0.2216" stop-color="#59ECD4"/>
<stop offset="0.3263" stop-color="#3FE7DF"/>
<stop offset="0.4411" stop-color="#2BE4E8"/>
<stop offset="0.5715" stop-color="#1DE1EE"/>
<stop offset="0.7305" stop-color="#14DFF2"/>
<stop offset="1" stop-color="#12DFF3"/>
</linearGradient>
<linearGradient id="paint1_linear_403_1593" x1="181.112" y1="7.67199" x2="194.643" y2="7.67199" gradientUnits="userSpaceOnUse">
<stop stop-color="#2980B9"/>
<stop offset="0.00262131" stop-color="#2A81BA"/>
<stop offset="0.0664" stop-color="#42A0D1"/>
<stop offset="0.1332" stop-color="#55B7E3"/>
<stop offset="0.2046" stop-color="#63C8F0"/>
<stop offset="0.2829" stop-color="#6AD2F8"/>
<stop offset="0.3812" stop-color="#6DD5FA"/>
<stop offset="0.6391" stop-color="#6FD6FA"/>
<stop offset="0.732" stop-color="#76D7FA"/>
<stop offset="0.7983" stop-color="#81DBFB"/>
<stop offset="0.8518" stop-color="#92E0FB"/>
<stop offset="0.8977" stop-color="#A8E6FC"/>
<stop offset="0.9383" stop-color="#C4EEFD"/>
<stop offset="0.9741" stop-color="#E3F7FE"/>
<stop offset="1" stop-color="white"/>
</linearGradient>
<linearGradient id="paint2_linear_403_1593" x1="173.645" y1="22.953" x2="187.368" y2="22.953" gradientUnits="userSpaceOnUse">
<stop stop-color="#D939F2"/>
<stop offset="0.4442" stop-color="#D739F2"/>
<stop offset="0.6042" stop-color="#D037F1"/>
<stop offset="0.7182" stop-color="#C535EF"/>
<stop offset="0.8104" stop-color="#B432ED"/>
<stop offset="0.8894" stop-color="#9E2EEA"/>
<stop offset="0.9581" stop-color="#832AE7"/>
<stop offset="0.9992" stop-color="#6F26E4"/>
</linearGradient>
</defs>
</svg>
