<svg version="1.2" xmlns="http://www.w3.org/2000/svg" viewBox="0 0 380 545" width="380" height="545">
	<title>phone-svg</title>
	<style>
		.s0 { fill: #4502c6 } 
		.s1 { fill: #8290de } 
		.s2 { fill: #ff3904 } 
		.s3 { fill: #f5f5f5 } 
		.s4 { fill: none } 
	</style>
	<g id="Layer">
		<g id="Layer">
			<path id="Layer" class="s0" d="m199.9 5.5c15.7-5.1 32.6 3.5 37.8 19.2l136.8 422.4c5.1 15.8-3.5 32.7-19.3 37.8l-175.1 56.6c-15.7 5.1-32.6-3.5-37.7-19.2l-136.9-422.4c-5.1-15.8 3.5-32.7 19.3-37.8z"/>
			<path id="Layer" class="s1" d="m123.2 56.8c9.5-3 19.6 2.2 22.7 11.6l25.4 78.3c3.1 9.5-2.1 19.6-11.6 22.7l-78.4 25.4c-9.4 3-19.6-2.2-22.6-11.6l-25.4-78.3c-3.1-9.5 2.1-19.6 11.6-22.7z"/>
			<path id="Layer" class="s2" d="m70.9 130.8c-11 0-20-9-20-20.1 0-11 9-20 20-20 11.1 0 20.1 9 20.1 20 0 11.1-9 20.1-20.1 20.1z"/>
			<path id="Layer" class="s3" d="m123.3 109.1c-8.5 0-15.3-6.9-15.3-15.3 0-8.5 6.8-15.3 15.3-15.3 8.4 0 15.3 6.8 15.3 15.3 0 8.4-6.9 15.3-15.3 15.3z"/>
			<path id="Layer" class="s3" d="m88 174.8c-6.4 0-11.5-5.1-11.5-11.5 0-6.3 5.1-11.5 11.5-11.5 6.3 0 11.5 5.2 11.5 11.5 0 6.4-5.2 11.5-11.5 11.5z"/>
			<path id="Layer" class="s3" d="m140.3 154.5c-4.4 0-8.1-3.7-8.1-8.1 0-4.5 3.7-8.1 8.1-8.1 4.5 0 8.1 3.6 8.1 8.1 0 4.4-3.6 8.1-8.1 8.1z"/>
			<path id="Layer" class="s4" d="m272.7 214.7c-0.9 1.2-1.5 2.4-1.6 3.4 0.1-1 3.4-3.9 2.4-5.1 0.5-1.1 1.1-1.2 1.6-1.2 0.4 0.4 0.8 0.8 0 1.7 0.4 0.5 0.8-1.5 1.2-0.5-1.2 2-2.5 2.9-3.8 5.1 0.9-0.5 1.9-1.7 3.2-3.7-1.9 5.2-3.6 8.3-7.3 13 1 0.6 1.9-1.4 2.9-1.3-2.6 3.1-2.9 6.1-4.7 8.2q-0.2-0.2-0.4-0.3c-0.6-0.1-0.1-0.7 0.2-1.2-1 0.2-1 1.7 0 1.8-0.7 1-0.7 1.7-1.7 2.9-0.4-0.3 0.1-1 0.7-1.8-1.5 0.4-1.9 3.3-2.5 5.1-0.4 1.3-0.8-0.2-1.2 0.6-0.4 1.4-4.7 8.3-6.3 9.3-0.3 0.9-0.2 1.2 0.6 1.2q-0.9 1.8-1.8 1.5c0.2 1.9-1.9 3.3-3.3 4.6-0.7 1.1 1.1-0.2 0.4 0.7-0.5 0.8-0.4 0.3-0.6 0.1-0.8 1.1 0.3 1.5-1 2.9-0.3-0.6-0.8-1.1-1.6-1.5-0.5 0.7 0.7 0.7 1 1.1-0.7 1.5-1.4 0.8-2.1 1.8 0.6 0 0.9 0.7 0.9 1.4-0.6-0.3-1.1 0.2-1.1-0.6-0.4 1.8-0.9 1.6-2.2 3 0.4 0.4 0.5 1.5 1.8 1.1-0.9 0.8-1.9 1.9-2.8 2.7-0.5-0.4 0.3-1.4 0.8-2.2 0.3-0.6-1.1 0-1.4 0-0.4 0.8 0.5-0.2 0.4 0.7-0.6 0.7-1.1 1-1.6 2.1-0.8 0.2-0.3-0.2-0.9-0.5-0.6 2.3 1.4 2.3-0.2 4.3 0.4 0 0.7-0.2 1.1-0.7-0.6 4.5-6.3 8.1-6.8 11.7-1 0.7-0.9 0-1.2 1.4-1.3 0-0.9-1.4-0.6-2.8q0-0.1 0.1-0.2c0.4 0.2 0.3 0.6 0.5 0.8 1.2-1.4 3.6-3.3 3.9-6-1.4 2.3-3 3.6-4.4 5.2q0 0 0 0 0 0 0 0 0 0-0.1 0 0 0 0 0v0.2q-0.4 0.5-0.8 1c-0.4-0.7-0.4-0.4-1.2-0.3-0.5 1.2 1.7-0.1 1.2 1.2-0.9 0.1-1.3 2.9-3.1 3.8-0.2 0.5 0.4 0.3 0.7 0 0.1 0.8-1.4 0.7-1.9 1.9 0.4-0.1 0.7-0.3 1-0.7 0.5 0.6-0.6 0.6-0.8 1.3 0.2 0.1 0.4-0.3 0.6-0.5 0.5 0.5-0.8 1.7-0.6 2.3-0.7 0.2-2 1-1.6 2-3.6 3.6-6.6 8.1-9.4 12.3q-0.3-0.2-0.6-0.4c-1.2 3.5-3.4 6-5.3 9.1 0-3.2 3.6-6.3 5.5-9.8 1.1-2 1.3-4 2.9-5.8 1 0.2-0.9 1.8-0.6 2.3 0.4 0 0.4-0.9 1.2-1.4 0-4.6 5.3-9.7 8.1-14.4 2.3-3.9 3.5-7.7 5.5-10.2 0.4-0.1 0.7-0.6 1-0.3 0.2-1.4 1.7-2.3 2.5-3.8 0.9 0 0.3 0.7 1.2-1 0 0.9 0.5 0.4 1 0.7-0.4 0.9-0.8 0.3-1.2 0.5 0 0.7-0.1 1.4 0.2 1.9-0.5 0.6-1.1 0.4-1.6 0.8-0.4 0.7 0.1 0.9-0.2 1.6 1-0.2 1.9-2.9 3.4-3.1-0.9 1.6-1.7 1.6-2.6 3.2 0.8-0.6 1.6-1.7 2.4-2.5q0.1-0.1 0.1-0.1 0-0.1 0-0.2 0.1-0.1 0.1-0.2 0-0.1 0-0.2c0.5-2.6-1.2-3.5 0.4-6.4-0.6-0.1-1.2 0.9-1.8 1.5 0.5-2.9 3.2-4.5 3.3-6.8 0.4-0.3 0.9-1 1.4-0.9 0.4-0.9 0.9-3.4 1.8-3.2 0.4-0.6-0.5-0.7 0-1.4 2.7-1.2 3.6-6.6 5.9-8.2 0.1-2.1 2.7-5.7 3.9-6.8-0.5-2.7 3.9-8.1 6.3-9.8 1.5-2.5 0.8-2.5 2.2-4.8-0.5 0.7-2 1.5-1.8 2-0.7-0.5 0.4-2 1.8-4.2 0 0.1 0.1 0.5-0.2 0.8 2.4-3 4.3-10.8 9.2-12.8zm-118.4 84.4c0.3-0.1 1.5-1.2 1-1.6-0.5 0.4-1.5 0.9-1 1.6zm123.5-90.5c-1 1.5-2.4 3.3-1.5 3.9 0.9-1.1 2.4-3 1.5-3.9zm-85.4 19.4c0.2 0.2-0.4 0.9-0.6 1.4l-0.7-0.4c0.5-1.2 0.9-0.6 1.3-1zm32 40.1q0.3-0.5 0.5-0.8c-0.3 0.4-0.4 0.7-0.5 0.8zm21.8-7.3c-0.2 0.4-0.5 0.1-0.8 0 0.5-1.2 1-0.8 1.4-1.4 0.7 0.6-1.2 1.2-0.6 1.4zm7.2-13.6c0 0.9-1 2.3-1.9 3.7-0.4 0.1 1.1-2.6 1.9-3.7zm-1.1 9.1c0.1-0.7-0.1-1.5 0.6-1.9q0.4 0.2 0.7 0.4c-0.4 0.8-0.9 1.2-1.3 1.5zm5.9-9.6c-0.2-0.8-0.6-1.5 0.4-2.8 0.1 0.8 0.3 1.6-0.4 2.8zm1.1-4.2c-1 1.7-1.7 1.7-1.3-0.3 0.2-0.4 1.3-0.1 0.9-0.9 0.3-0.4 0.1 0.3 0.6 0.4-0.5 0.6-0.6 1.2-0.2 0.8zm0.4-1.1c-0.4-0.3 0.5-1.3 0.2-1.6 0.1-0.3 0.2-0.3 0.4-0.2 0.1 0.1 0.2 0 0.4-0.2 0.2 0.5-0.4 1.7-1 2zm7.5-12.5c-0.8 0.9-0.6 1.3-0.6 1.8-0.1 0-0.4 0.1-0.2 0.3 0.8-0.4 1.2-1.6 0.8-2.1zm0.2-1.2c-0.7-0.6 1.7-3.4 2.2-3.9 0 0.7-2.1 2.6-2.2 3.9zm-56.7-28c-0.7 1.2-2 2.9-1.4 2.6 0.8-0.5 2-1.7 1.4-2.6zm-2.7 18.2c-0.6 0.2-0.6 1.5-1.6 2.1 0.4 0.9 2.5-1.8 1.6-2.1zm-12 4.9q0.4 0.2 0.8 0.5c-0.2 0.6-1.4 0.9-1 1.5-0.8 1-0.1-0.6-0.4-0.7-1 0.5 0.2 1.9-1.2 3.2 0-1.4-0.1-3.4 1.8-4.5z"/>
			<path id="Layer" class="s4" d="m246.2 266.1c1.1 0 1.6-0.8 1.7-1.6-0.6 0.4-1.1 0.4-1.7 1.6zm-3.8-116.3c1 0.3 2.1-1 3.1-1.2-1-1-2.1 0.1-3.1 1.2zm-30.5 70.5c-0.9 0.4-1.2 1.7-0.8 2.2 0.7-0.4 0.8-1.5 0.8-2.2zm36 44.2q0 0 0 0zm-2.2-116.7c0.9-0.4 0.5-1.1 1.4-2.2-0.6-0.9-2.5 2.1-1.4 2.2zm-36.3 76.7c0.6 0.4-0.4 1.6-1 2.5-0.3-0.4 0.2-1.1-0.2-1.5 0.4-0.4 0.8 0.2 1.2-1zm-57.9 104.6c0.3-0.4 1.8-1.7 1.4-2.6-0.6 0.3-2 2.2-1.4 2.6zm35.2-82.6c-0.7 0.9-1 1.6-0.8 2.1-0.3 0.3-0.6 0-0.9 0.4q0.2-0.4 0.4-0.8 0.1-0.4 0.3-0.8 0.1-0.4 0.3-0.8 0.1-0.4 0.3-0.8c0 0.3 0.1 0.5 0.4 0.7zm35-43.5c0 0.9-2.5 2.5-1.7 3.4 0.6-1.5 2-2.2 1.7-3.4zm1.8 1.2c-0.6 0.3-1.2 0.9-1.8 1.5-0.2-0.6 1.3-2.6 1.8-2.9 0.6 0.2-1.1 1.4 0 1.4zm-19.7 7.9c0.8-0.5 1.7-2.4 2.6-3.6-1-0.1-2.7 2.6-2.6 3.6zm-46.9 63.3q0 0-0.1 0 0 0-0.1 0 0 0 0 0-0.1 0-0.1-0.1c0.2 0.2 0.3 0.2 0.3 0.1zm68-73c0.7-0.9 0.6-1.4 0.4-1.9-0.6 0.2-0.8 1.5-0.4 1.9zm-8.7 12.6c0 1.3-0.8 1.6-1.7 2.6 0-1 0.3-2 1.3-2.8 0.4 0.2-0.7 1.2-0.9 1.7 0.4 0.3 0.9-1.1 1.3-1.5zm-61.7 66.1c-0.2 0.4-0.5 0.1-0.8 0 0.1-0.5 0.3-1 0.8-1.7 1.2 0-1.2 1.7 0 1.7zm67.8-78.1c0.8-1.3 1.4-3.3 2.6-4.1-1.7 0-2.5 3.3-2.6 4.1zm-12.8 3c-0.6 0.8-0.8 1.4-0.2 1.6 0.5-0.8 0.8-1.4 0.2-1.6zm-1.9-0.3c-0.5 0.8-0.8 1.6-0.8 2.2 0.6-0.3 1.8-2 0.8-2.2zm-1.2 5.4c1-1.1 1.9-2.1 1.4-3-0.7 1.1-1.7 2.4-1.4 3zm4.7-9.4c1-1.4 1.4-1.7 3-3.8 0.4 1-0.4 2.7-1.8 4.6-0.7 0-0.3-1.6-1.2-0.8zm-2.9 4c0.9-1.4 1.8-2.3 3.1-3-0.3-1-4 1.5-3.1 3zm19.8-10.2c0.6 1.3-2.3 3-1.1 3.8-0.3 0.7-0.6 0.7-1 1.1 0.2-0.6 0-1.6-0.8-0.1 0.4-1.3 1.9-3.1 2.9-4.8zm36.8 27.9c-1.6 2.2-2.1 3.9-3.3 5.9 0.8-3.1 1.6-4.4 3.1-7.4 0.3 0.4-1 1.5 0.2 1.5zm-53.9 0.7c0.7-1 2.9-3.2 2.4-4.2-1.3 1.4-1.6 2.8-2.4 4.2zm43.7-87.4c1.5-2.1 1.8-4.3 3.1-5.6 0.8 0.1 0.2 0.9 1 1-0.7 0.3-1.4 2.2-2 1.4 0.4 0.9-1.3 2.1-2.1 3.2zm35.7 145.6c0.8-1.1 0.6 1.1 1.1 0.2-0.4 0.8-1.5 2-2.3 3-0.8-0.5 1.6-2.5 1.2-3.2zm-34.7-156.1c0.6-0.2 1.1-1.2 1.7-2 0.3 0.2 0.7 0.1 1-0.3 0.4 0.3-0.1 1.1-0.6 1.9-0.1-0.9-0.6-0.1-0.6-0.9-0.5 0.6-1 2.1-1.5 1.3zm-2 12.5c1-1.2 0.7-1.1 1.6-2.6 0.7-0.3 1.4 0.5 0.4 1.6-0.6-1.7-0.8 1.5-2 1zm1.4-10.6c-0.8 0.8-1.4 1-1.4 2.2 0.8-0.9 1.5-1 1.4-2.2zm-58.4 211.2c0.5-0.2 1.6-1.7 1-2-0.3 0.5-1.9 1.6-1 2zm55.6-195.3q0.8-1.2 0.6-1.9c-0.6 0.3-1.3 1.5-0.6 1.9zm-124.8 320.7c1-1.5 0.8-1.7 1.8-2.8-0.9-0.9-2 2.2-1.8 2.8zm109.9-281.9c-2.6 3.8-3.7 6.8-6.9 9.8 1.2-2.7 3.6-5.7 5.5-9.8-1-0.3-0.8 1.6-1.8 1.9-0.6-0.5 0.8-2 1.4-3 1.1-0.2 0.7 1 1.8 1.1zm44.7 112.8c-0.6 0.9-2.1 2.1-2 3.1 0.5-0.6 2.1-2.2 2-3.1zm-111.1 146c0.1-0.6 1.1-1.7 1.4-2.2-0.6-0.9-2.5 3.2-1.4 2.2zm125.8-172.6c1.4-1.5 2.6-3.1 3.2-5-1.6 1.8-2.4 3.3-3.2 5zm-117.6 161.4c-1.2 1.5-1.4 2.5-1.9 3.7-0.6 0 0.7-1.9-0.2-1-0.1-0.4 1.5-3.4 2.1-2.7zm61.7-254.7c-0.5-0.5-0.2-1.3 0.2-2.1q0 0.5 0.6 0.8c0 0-0.8 1.3-0.8 1.3zm-30 141.6c-1.6 3.4-5.6 6.7-5.5 9.8 1.6-2.5 5.5-7 5.5-9.8zm26.1-44.2l0.6 0.4q-0.4 0.6-0.8 1.2c-0.6-0.2-0.4-0.8 0.2-1.6zm4.7-0.2c0.6 0.3 0.6 1.7 1.6 0.6 0-0.6-1.1-1.5-1.6-0.6zm10.8-125.3c-0.6 0.3-2 2.2-1.4 2.7 0.6-1.5 1.3-1.7 1.4-2.7zm-12.8 27.8c-0.3 0.8-2 2.2-1.1 2.4 0.8-1.5 1.3-1.6 1.1-2.4zm4.4 96c-0.5 0.8-1.1 0.4-1.6 0.7-0.2-0.2 0.2-0.7 0.4-1.1 0.4 0.7 0.8-0.1 1.2 0.4zm5.7 59.6c1.3-1 2-3.3 2-4.5-0.9 2.1-2.2 2.9-2 4.5zm28.2-37.1c0.5-0.7 1-0.7 1.5-1.7-0.8-0.8-1.8 1.2-1.5 1.7zm-32.6-130.4c-0.5-0.3 0.6-1.2 0.8-1.7 0.1 0.5 0.3 1-0.4 1.9-0.1-0.3-0.1-0.6-0.4-0.2zm32.7 42.6c2.5-3.6-1.6 0.7-0.6 1.3q0.5-0.8 0.6-1.3zm-29.9-54.1c-0.6-1 1.2-2.1 1.8-3.3 0 1.5-0.4 2.1-1.2 4.1 0-0.6 0.7-2.5-0.6-0.8zm1.6 0.6c-0.1 1.2-1.5 1.7-1 2.4 0.3-0.8 2-2.2 1-2.4zm-5.9 102.3c-0.6 0.6-1.8 1.7-1.2 2.3 0.5-1 1.8-1.5 1.2-2.3zm-0.4-88.2c-0.1-0.2 0.1-1.6 0.6-1.3 0.2-0.4 0-0.4-0.2-0.6 0.8-0.8 0.6-0.2 1.1 0.2-0.5 1-1 0.7-1.5 1.7zm44.5 116.7c0 0.8-0.9 1.5-1.4 2.2 1.1 1 2.1-2.8 1.4-2.2z"/>
			<g id="Layer">
				<path id="Layer" fill-rule="evenodd" class="s1" d="m160.5 523.9c-0.9-0.2 0.3-1.3 0.6-1.4 1.9-3-0.2 1.4-0.6 1.4zm-10.3-54.7c0.5-0.9 1.1-0.6 1.6-1.6 0.6 0.5-1 2.2-1.6 1.6zm-17.9-29.7c-0.1 0.8-1.1 2.1-1.4 3.1-0.4-0.8 0.8-2.5 1.4-3.1zm3.9-6c0.2 0.9-1.9 3.8-2.3 4.4-0.5-0.8 1.9-2.8 2.3-4.4zm31.9 13.8c-0.6 1.1-1.3 0-1.9 1.5-0.1-0.7 1.4-2.4 1.9-1.5zm-25.8-18.4c0.2 0.8-1.2 1.3-1.7 2.1-0.5-0.7 0.7-2.2 1.5-3.5 0.6 0.1-1.1 2.4 0.2 1.4zm1-2.8c0-0.4-0.3-0.7 0.1-1.2q0.1 0 0.2-0.1c0.6-0.2 0.2 0.5 0.5 0.9-0.6 0.4-1.1 1.7-1.6 1.2 0.2-0.2 0.5-0.4 0.8-0.8z"/>
				<path id="Layer" fill-rule="evenodd" class="s1" d="m143.6 424.8q-0.1 0.1-0.2 0.1-0.2 0.1-0.3 0.1c0-1.2 1.9-1.5 2-3.1 0.6 0.8-0.6 2.3-1.5 2.9zm-29-28.6c0.4 0.6-0.8 0.6-1 1.5-0.9-0.3 0.7-1.7 1-1.5zm19.7 5.3c-0.9-0.3 0.9-2.3 1.3-1.5-0.4 0.3-0.9 0.7-1.3 1.5zm-5.2-12.2c-0.1-0.6 0.4-2 1.2-2.3 0.3 0.4-0.9 1.6-1.2 2.3zm-29.9-28.9q-0.3 0.5-0.6 1c-0.1-0.7-0.3-0.6-0.8 0.4-0.2-0.4 0-1 0.4-1.6 0.3 0.3 0.6-0.1 1 0.2zm62.2 22.6c2.2-4.6 5.6-8.4 8.7-13-0.7 5.7-6.4 8.3-8.7 13zm0 0.1q0-0.1 0-0.1 0 0 0 0.1zm-33.8-23.4l-1 1.6c-0.7-0.4 0.2-2.3 1-1.6zm-8.3-6.1c-0.3-0.5 1.1-2 1.4-2.2 0.3 0.9-1 1.3-1.4 2.2zm11 1.6c0-0.7 0.4-1.5 1-2.5 0.9 0.3-0.7 1.7-1 2.5zm0.2-5.6c-1.3 1.2 0.6-2.6 1-1.6-0.2 1-1.4 0.9-1 1.6zm3.1-4.7c-0.9 0.7-0.7 1.1-1.7 2.5-0.6-0.2 1.1-3.2 1.7-2.5zm37.8 22.3c0.6-0.6 1.2-1.3 1.8-1-0.2 1.4-2 2.8-2.2 3.9-1-0.5 1.1-2.4 0.4-2.9zm-5.5-9.6l0.4 0.3c-0.4 0.7-1.7 1.3-1.4 1.7-1.4 0.8 0.5-1.7 1-2.4 0.2 0 0.1 0.2 0 0.4zm4.2-5.7c-0.3 1 0 1.6-0.6 2.7-0.1-0.8-0.4-1.4 0.6-2.7zm-19.1-11.5c0-0.6 0.4-1.4 0.9-2.2 0.7 0.3-0.2 1.9-0.9 2.2zm-10.7-8.6c0.9-0.2 0.9-0.5 1.6-1.1 0.2 0.8-1.2 1.9-1.6 2-0.2-0.2 0.2-0.7 0-0.9zm-15.7-11.1c-0.9-0.2 0.7-1.6 1-2.4 0.6 0.4-0.4 1.5-1 2.4zm105.7 48.1q0.2 0.7-0.6 1.8c-0.2-0.7-0.2-1.5 0.2-2.5 0.4 0-0.3 1.6 0.4 0.7zm-77.2-47.9c0-0.9 1.7-3.1 2.4-2.9q-1.2 1.1-2.4 2.9zm87 42.1c0.4 1.4-1.2 3.5-2.5 4.7 0-0.3-0.1-0.6-0.4-0.7 1.7-1.2 1.5-1.6 2.9-4zm-6.7-6c0 1.2-0.9 2.1-2.1 4.1-0.3-0.9 1.3-2.7 2.1-4.1zm7.9 3.7c-0.5-0.4 0.6-1.1 0.8-0.8 2.7-4.5 1.4-1.1 0 0.4-0.2 0.3 0.1 0.4 0.2 0.6-0.4 1-0.9 0.7-1.4 1.7-1.3-0.6 1.6-1.9 0.4-1.9zm-89.8-58.1c0 0.6-0.4 1.4-0.8 2.2-0.3-0.6 0-1.8 0.8-2.2zm10.7 2.8q0.1 0.5 0.6 0.8c-0.7 1-1 1.8-1.4 2.7q-0.5 0.2-1-0.2c1.5-0.5 1.6-2.2 1.8-3.3zm-3.8 1.1c1.2-2.5 1.1-5.6 3.2-7.2 0.5 0.3-0.7 1.4-1 2 0.6 0.3 1.2-1.1 1.8-2-0.3 1.7-2.4 5.9-4 7.2zm86.8 49.5c-0.6-0.4 0.5-1.5 1-2.4 0.2 0.5-0.4 1.5-1 2.4zm2-2.7c-0.7-0.2-0.2-1.1 0.4-1.9 0.3 0.4 0.5 0.9-0.4 1.9zm2.7-6.3c0.5-0.2 1.4-0.2 1.4 0.5-1.5 1.7-1.6 1.6-3.1 3.4-1-0.6 3.8-3.6 1.7-3.9zm-83-54.1c-0.5 0.4-1.1 0.4-1.6 1.6q-0.3-0.2-0.6-0.4c0.8-0.5 1.6-1.3 2.4-2.9 0.6 0.3-1.3 1.7-0.2 1.7zm32.7 22.7c0.8-1.1 1.5-2.5 2.3-2.2-0.8 1.1-1.5 2.7-2.3 2.2zm-31.7-26.5c0.6-1.1 1.1 0.5 1.7-0.8-0.5 1.2-0.6 2.2-1.5 3.6-0.1-0.8 0.1-0.9-0.8-1 0.9-0.4 1.1-1.4 0.6-1.8zm-2-2.6c-0.5 0.2-0.9 1-1.4 1.8-0.3-0.6 0.7-2.6 1.4-1.8zm5.5-1c0 0.7-0.5 1.7-1.2 2.8 0-0.9 0.2-2 1.2-2.8zm1 0.7c0.4 0.3-0.8 1.3-1 2-0.5-0.9 0.1-1.5 1-2zm-2-7.9c0.2 0.7-1.4 2.2-1.8 3.2-0.6 0.4 1.4-3.1 1.8-3.2zm87.4 56.5c-0.6 0.4-1.1 0-1.6 0.7-0.4-0.3 0-1 0.6-1.8 0.7 0.2 0.5 0.8 1 1.1zm-79.7-55.7c0.2 0-1.8 3.6-1.8 4.2-1 0 1.3-4.2 1.8-4.2zm-16-9.6l0.6-0.9c0.4-0.2 1.2 0.3 0.6 1.2-0.4-0.6-0.8 0.1-1.2-0.3zm94.1 56.7c0.4 0.5 0.8 0.8 0 1.8-0.1-0.5-0.8-0.8 0-1.8zm3.2-4.5c0.6 0.3-0.2 1.4-0.6 2.2-0.6-0.3 0.2-1.4 0.6-2.2zm-78.2-51.3q-0.4 0.7-0.8 1.3c-0.1-0.8-0.3-0.1-0.9-0.5 0.6-0.3 1.1-1.3 1.7-0.8zm3.6-1.7c0.2 0.2 0.4 0.2 0.6 0 0.1 1.5-1.7 0.5-0.6-0.8 0.4 0.1 0.3 0.4 0 0.8zm-7.9-11.1c1.1 0.6-1.7 4-2.4 4.2 0.6-2.1 1.9-2 2.4-4.2zm11 6.9c0.1 1.5-1.4 0.1-1.4 1.7-0.5-0.6 0-1.6 0.2-2.5 0 0.3 0.2 1.2 0.8 0.1 0.4 0-0.3 1.5 0.4 0.7zm-1-4.2c-0.6 2.2-2.2 2.3-2.9 4.4-0.6-1.3 2.1-3.3 2.9-4.4zm79.8 54.5c0.1-1.2 1.8-1.9 2.5-3.4 0 1.2-1.8 2.6-2.5 3.4zm-84.3-65.7c0.8-0.9 0.7-2.5 0.2-2.1 0.5-1.8 2-2.8 2.9-4.8 0 0.3 0.2 0.6 0.6 0.8-2.5 2-1.7 3.8-2.9 6.2-0.3 0.3-0.5 0-0.8-0.1zm11 2.9c0.1-1 1.5-3.7 1.8-1.9-1-0.1-0.8 1.4-1.8 1.9zm-9.6-9.9c-0.9 0 0.7-2.5 1-1.6q-0.5 0.8-1 1.6zm11.4 6.2c-0.7 0.3 1.5-2.6 1.6-3.4 0.7 1-0.7 2.1-1.6 3.4zm0.8 0.1c0.8-2.1 3.4-4.1 4.9-4.9-0.4 1.7-3.2 2.8-4.9 4.9zm-8.7-8.6c0.3-0.4 0.7 0.1 1 0.2-1 1-1.2 1.2-1.8 1.9-1-1 1.9-1.3 0.8-2.1zm9.1 4.4c-0.6 0.7-1.2 0.4-1.8 1.1-0.5-0.3 0.6-1.2 0.8-1.7 0.5 0.6 0.3 0.4 1 0.6zm-1.4-3.5q0.2 0.7-0.6 1.8c-0.3-0.6-0.2-1.9 0.6-1.8zm4.9-4.5c0 0.8-0.7 1.2 0.4 1.2-0.8 0.2-1.6 1.5-2.4 2.8 0.1-1.1 0.9-3.7 2-4zm46.9 23.2c0.7 0.6-1.2 1.2-0.6 1.4-0.2 0.4-0.5 0.1-0.8 0 0.5-1.2 1-0.8 1.4-1.4zm-42.8-27.7c-1.5-0.2 2.8-6.4 3.4-4.5-0.3 0.4-0.5 0.1-0.8 0-0.4 1.5-2.4 2.8-2.6 4.5zm49 22.7q0.3 0.2 0.6 0.4c-0.4 0.8-0.9 1.2-1.3 1.5 0.1-0.7-0.1-1.5 0.7-1.9zm0.4-7.2c0 0.9-1 2.3-1.9 3.7-0.4 0.1 1.1-2.6 1.9-3.7zm42.8 27.3c0.7-0.9 1.3-0.8 1.9-1.5 0.2 0.5-1.4 1.8-1.9 1.5zm-37.6-30.6c0.1 0.8 0.3 1.6-0.4 2.8-0.2-0.8-0.6-1.5 0.4-2.8zm-45.3-30.2c-0.3-0.4 0.9-1.6 1.2-2.3 0.3 0.6-0.4 1.5-1.2 2.3zm47.4 25.7c0.2 0.5-0.4 1.7-1 2-0.4-0.3 0.5-1.3 0.2-1.6 0.1-0.3 0.2-0.3 0.4-0.2 0.1 0.1 0.2 0 0.4-0.2zm45.5 20.1c-0.3 0.8-0.1 1.4-1 2.5l-0.6-0.4c0.7-0.6 4-6.5 1.6-2.1zm8.6 3.2c0.3 0.5-1.1 1.8-1.5 2.6-0.3-0.8 0.7-1.9 1.5-2.6zm-45.2-38.9c0 0.7-2.1 2.6-2.2 3.9-0.7-0.6 1.7-3.4 2.2-3.9zm-42.4-33.2c-0.3-0.6-0.3-1.3 0.6-2.3 0.3 0.5-0.4 1.5-0.6 2.3zm14.2-22c-1.3 0.3-1.3 1.1-2.4 2.4-0.5-0.9 1.8-2.6 2.6-4.1 0.6 0.3-1.3 1.7-0.2 1.7zm23.2-54.4c-0.3 0.1-0.7 0.4-1 0.7-0.3-1 1.2-1.6 1.6-0.8-0.9 1-0.5 1.6-1.2 1.9-0.4-0.3 0.8-1.4 0.6-1.8z"/>
			</g>
			<path id="Layer" class="s4" d="m294.9 272.4q0.2-0.1 0.3-0.3"/>
			<path id="Layer" fill-rule="evenodd" class="s1" d="m240.3 275.7q0 0 0 0zm0 0q0 0 0 0zm-65.9 94.3c0.1-0.2 0.3-0.4 0.4-0.5q-0.2 0.2-0.4 0.5zm65.9-94.3q0 0.1 0 0.2-0.1 0.1-0.1 0.2 0 0.1 0 0.2-0.1 0.1-0.1 0.1c-0.8 0.8-1.6 1.9-2.4 2.5 0.9-1.6 1.7-1.6 2.6-3.2zm-7.1 8.8q0 0 0.1 0 0 0 0 0 0 0 0 0-0.1 0.1-0.2 0.2l0.1-0.2q0 0 0 0zm-50-24.3q-0.2-0.1-0.5-0.3 0.3 0 0.5 0.3z"/>
			<path id="Layer" class="s1" d="m233.3 284.5c1.4-1.6 3-2.9 4.4-5.2-0.3 2.7-2.7 4.6-3.9 6-0.2-0.2-0.1-0.6-0.5-0.8z"/>
			<path id="Layer" fill-rule="evenodd" class="s1" d="m266 115.1q0 0 0 0 0 0 0 0zm0 0c0.3-0.3 0.6-0.2 0.9-0.2l43.9 135.6q0 0-0.1-0.1c-2.9 3.6-4.3 7-6.3 11.1-1.8 0.2-4.1 3.5-5.3 6-0.2-1.5-1.8 1.8-2.6 1.8-0.2 0.3 0 0.5-0.2 0.8 0.4 0.9 0.9-0.6 1.4 0-1 1-2 1.4-3.1 1.6 1.4-0.5 0.3-0.7 1.5-2.2-1.1 0.4-1.7 2.5-2.3 3.5 0.4 0.3 0.8-0.1 1.2-0.5-1.3 1.6-3.5 6.3-5 6.5-0.4 1.5 0.9-0.1 1 1.5 1.1-2.2 2.6-5.4 5.1-6.1-1.1 1.3-1.1 2.1-0.6 2.7-1 1.4-1.9 3.3-2.9 3.5-0.2 0.8-0.6 1.6-0.6 2.3-2.6 2.9-3.8 7.2-6.7 8.6 0.5-1.1 1.2-0.4 1.2-1.5-1 0.4-1.2 1.3-1.8 2.4 0.2 0.2 0.4 0.2 0.6 0-1.6 2-3 7.3-5.5 8.5-0.2 2.3-4.2 5.2-3.7 7.4-0.8 0.2-1.4 0.2-2.6 1.4 0.6 0.2 0.4 1.7-0.8 1.3-2.3 5.8-8.6 11.4-9.4 17.1-0.5 0.6-0.9 0.2-1.4 0.9 0.3 0.2 0.7-0.2 1 0.1-1.4 0.5-1.5 1.8-2.2 2.2-0.1 0 0.4-2.3-0.9-0.5 0.1-0.9 1.9-1.3 2.7-3.2-0.6 0.1-1.1 1.2-1.6 1.6-0.4-0.7 0.9-1.3 1.2-1.9-1.2 0.4-2.5 2.4-3.7 3.9 4.1-7.4 11.2-14.3 14.3-22.4 0.7-0.9 1.5-1 2.2-1.7 0.3-0.7-0.6-0.8 0.2-1.7 1.5 0.5 0.7-2.9 2-1.8-0.1-1.1 0.3-2.3 0.2-3 0.5-0.8 1-0.7 1.5-0.8-1.6-0.3 3.5-5.7 3-6.5 1.2-1 2.2-3 3.5-5.3-1.6-0.4-3.6 3.7-3.7 4.7-2.1 1.3-3.6 4.4-4.5 5.6-0.8-0.1 0.4-1.2-0.2-1.4-0.2 0-0.5 0.1-0.8-0.1-0.8 1.5-2.3 3.3-1.8 4.1-2.6 3.1-3.6 5.7-7.1 8-0.5 1-0.3 1.7-1.4 3-0.9 0.9 0.3-0.9 0.6-1.3-1.5 1.1-2.8 2.6-3.9 5 0.5 0.2 1.1-1.5 1.6-2 1 1.1-1.4 2.4-2.2 4.3-0.2-0.4 0-0.9 0.4-1.5-2 1.6-3.9 4-4.9 6.2 0.4 0.8 0.8-0.9 1.2-0.1-0.3 0.2-1.9 1.1-1 1.6-1.4 0.9-2.4 2.2-2.6 4.1-0.6-0.1-1.3 0.8-1.9 1.9 0.7-2 2.3-3.6 3.5-6.7-1.6 0.7-2.8 2.4-3.1 3.9-0.8-1.1-3 5.8-5.4 5.4-2.3 4.6-4.7 5.2-7.2 10.5 0.9-3-2.2 2.1-3.2 3.7 0.5 0.9 1.1-0.5 1.6-0.7-0.1-0.5 0-1.2 0.8-2.2 1 0.7-1.2 4.1-2.4 3.8-3 4.8-4.9 7.7-8.4 10.2-0.3 1 1-0.3 1.3-0.5-1.2 1.6-4.8 7.6-7.2 10.5-1.8 3.8-3.5 5.2-6.5 9.2 0.2 0.1 0.4-0.3 0.6-0.5-5.6 9-11.5 17-16 24.8-0.4-0.2 0.3-1-0.4-1.1-1.5 0.7-1.9 3.1-1.1 2.9-2.6 1.5-6.9 12.4-11 16.5 0 0.1-0.3-0.3-0.4-0.2-0.1 0.1-0.6 2.2-0.8 0.8-0.8 3-3.5 6-4.9 8.9-0.5 0.7-1 0.3-1-0.2q-0.6 0.9-1.2 1.9c-0.5 0.8 0.6-0.3 0.8 0.5-2.1 2.3-4.2 3.7-5.3 6.4-0.3-0.4-0.7-0.2-1-0.2-0.5 1.5-2.3 3.4-2.8 4.4-0.7-0.3 0.4-1.4 0-1.8-2.3 3.5-6.3 6.2-8.4 11.1-1.6 0.3 1.3-2 0.6-2.7-2.5 2.7-3.2 7.7-6.1 9.4-0.5 0.7 0.4 0.8 0 1.4-2.5 1.8-4.1 4.4-5.3 7.3-3-1.2-4.8 6.2-8.3 8-0.8 2.4-3.2 5.3-5.1 7-0.3 0.6-0.1 1.1-0.2 1.6-0.7 1.2-0.2 0-0.8-0.1-0.7 0.9-0.2 1.3-0.8 2.2 0.3 0.1 0.5-0.5 0.8-0.8-0.8 2.3-3.2 4.9-4.7 7.2 0.4-1.6 2.2-4.9 3.7-5.7 0.1-0.3-0.3-0.4 0-0.9-1 0-2.6 1.6-2.5 2.9-0.9 1-1.9 1.4-2.8 2.2q-0.2 0.3-0.3 0.5l-6.4-19.7c2.5-1.3 2.9-4.5 3.4-6.7-1.3 1.3-2.1 2-3 3.9-0.8-0.2 0.1-2.3 0.6-2.3 0.3-0.7 0-1.2-0.4-1.6-1 0.8-1.4 2-1.8 3l-0.4-1.2c0.7-1.6 1.6-3.4 2.6-5 0.7-1.2 4.1-4.8 2.2-3.9 0.2-1.3 4-3.8 2.1-5 3.7-6 6.3-11.2 10.4-18.2-0.5-0.2-1 1.3-1.5 1.8 0-1.2-0.5 0.4-1-0.2 1-0.9 1.9-1.8 2.9-2.2 0.6-3.2 5.3-7 4.6-9.5 1.1-1 1.6-1.7 0.9-2.1 2.1-1.7 1.7-4.1 3.4-5.8-2.1-0.9-3.5 4.1-5.3 5.5 1-3 4.6-7.1 5.7-10.5 1.8-1.9 4.9-6.5 5.9-8.3q-1.2-0.6-2.4 1.6c-0.4-0.3 0.8-1.4 1-2 0.8 0.2 1.5-0.5 2.2-1.3 0.5-3 3.6-4.7 4.5-8.2l0.4 0.3c5.5-7.7 10.7-14.6 15.5-21.7 3.3-4.9 7-12.1 11.6-17.1 0.2-1.3-1.2-0.3-1.6 0.3 0.3-0.9 2.1-3.9 3.2-5.4 1 0.5-0.7 0.8-0.4 1.5 0.5 0.2 1-1.3 1.4-1.8 0.2-0.5-0.3 0-0.6-0.4 4.8-7.1 8.6-12.2 12.8-19.3-2.2 0-4.1 7.4-5.9 6.5 2-1.2 1.8-3.2 2.9-4.5-1.2-0.2-2 2.8-2.2 3.5l-0.7-0.4c0.3 0.8-0.2 1.3-1 2 0.6 0.2 0.5 0.3 0.8 1.4-1.2 0.6-1.6 2.8-2.4 2-1.2 1.3 0 1.5-1.2 2.8-0.7-0.1 0-0.9-0.4-1.1-0.8 0.8-0.3 1-0.8 1.7 0.4 0 0.8-0.9 1.2-0.2-1.2 1.5-2.9 3.2-3.5 5 0-0.8-0.3-0.2-0.8-0.6-0.8 0.9 0.2 1-0.6 1.9-0.2-0.2 0.1-0.5 0.2-0.8-6.5 8.3-11 16.3-16.7 24-0.3 0.8 0.6-0.2 0.4 0.7-1 1.6-1.6 3.9-3 3.4-0.7 1.7-2.4 3-2.1 4.5-1.1 0.2-1.1 2.1-2 1.8-0.4 0.7 0.1 1 0.2 1.4-0.7 0.7-4.1 4-3.5 4.9-1.9 0.9-2.5 3.7-3.8 3.8-0.2 0.7-0.8 1.7 0.2 1.9-0.3 0.3-0.6 0-0.8-0.1-2.8 6.4-9.6 13.3-12.9 19.8-0.5-1-1 1.6-1.6 1.2-6.5 11.6-13.9 22.1-21.1 32.7 8-13.5 18.4-30 27-41.4 0.2-0.8-1.4 0-0.8-1.3 1-0.2 1.9-1.2 2.2-2.2 0.8 0.3 1.6-1.1 2.5-2.9-0.2-0.1-0.4-0.3-0.6-0.2 1.7-1.4 3-4 3.4-6.4l0.7 0.4c1.2-2.9 3.4-6.4 5.8-8.2-1-0.5-0.9 0.3-1.8-0.3 0.8-0.4 1.5-0.3 2.3-0.8 3.4-5.4 6.2-10.8 11.1-16-0.2-0.2-0.4-0.1-0.6 0.2 8.8-12.2 16.8-29 26.1-42.1q0.7-1 0-1.3c4.6-4.9 8.4-12.7 10.8-18q0.4 0.3 0.8 0.5c1.8-5.1 5.9-11.4 9.3-15.8-0.2-0.1-0.4 0.3-0.6 0.5 0.9-2.3 4.3-5.2 4.1-8 0.5-0.2 0.4 0 0.6 0.4 2.1-4.3 4.7-9.9 7.1-11.9 0.7-1.2-1.1 0.2-0.4-0.7 2.4-2.8 4.2-6.3 5.9-10.5-2.4 4-8.1 8.7-9.7 13.8-1.6 0.8 0.1-1.7-0.9-1.8-2.3 4-2 8.9-6.3 12.4 1.4-1.6 3.2-4.8 2.5-6 1.2-0.8 1.4-2.5 2.4-3.8-2.6 1-1.7 3.3-4.5 5.6l-0.4-0.3c-0.2-0.4 0.4-0.2 0.7 0 0.9-2.2 2.3-4.6 3.6-7.4-1.3-0.1-2.7 2.8-3.2 4.5-0.2-0.2 0-0.7-0.2-1-1.2 1.4-0.1 1.7-1.1 2.9-0.3-0.9 0.1-2 0.9-3.4-1.9 1.2-1.4 3.7-3.5 6.2-1.1-0.1-2 1.4-2.6 2.7-1.7-0.9 1-2.3 1.8-2.8 0.8-2 1.7-2.7 2.8-4.8 0.2-0.4-0.1-0.3-0.2-0.2 1.8-2.9 2.6-1.1 4.7-5.9-1.6 0.3-1.9 2.3-3.5 3.6-0.4 0.2-0.9-0.1-1.4 0-1.1 1.3-1.6 4.1-3 4.7 0.7-1.6 2.1-4.4 4-7.1 0.5 0.7-0.2 0.6-0.8 1.7 1.3 1.2 1.2-1.6 2.5-1.2 1-1.7-2.3-0.2-0.6-2.1 0.2 0.1-0.1 0.5-0.2 0.7 0.3-0.1 0.6-0.3 1-0.6-0.7-1.3 0.8-2.9 2.4-5.6-0.4 0-1.5 1.2-1.2 0.7q0.2-0.4 0.4-0.7c-0.3 0.3-0.4 0.6-0.4 0.7-1.2 2-3.6 5.7-3.7 6.9-1.6 1.3-3.6 5.3-3.8 7.7-1.8 3.2-4.8 8-7.2 12.8-11 14.2-20.3 34-32.9 48.2-1.2 2.5-3.3 5.4-3.7 7.5-0.5-0.3 0.8-3.2-0.8-1-0.2-0.7 0.6-1.9-0.2-2.3-2.3 1.9-3.7 6.2-6.3 8 0-0.8-1.2-0.9-1.8-0.3 1.1 1.7-1.1 4.9-0.9 7-0.4 1.1-0.9 0.8-1.4 1.3 1.1-2 0.7-3.2 2.1-5.3-0.6-0.9-1.1 0.5-1.7 0.7 0-0.7 0.6-1.6 1.1-2.5-0.6-0.3-0.8 0.3-0.9-0.5q-1.3 1.6-0.6 2.3c-1.4 2-2.7 3.5-3.6 5.7-3.3 1.7-5.2 7-6.8 9.9-0.4 0.9-0.8 0.4-1.2 1-3.9 5-7.3 14.3-12 18.1-0.3 1.3-1.3 2.2-2.2 1.7 0-1.6 1.9-4.1 1.6-5.6-0.7-0.2-1.5-0.3-2.2 0.8 0.3 1.2-2 2.3-0.4 2.8 0.3 0.9-1.3-0.1-1-0.6-1.9 3.1-4.5 3.7-5.7 5.7 0.3-2.4 3.4-3.6 5.5-7.6 0.4-0.7-0.8-0.7-1.1-1.1-0.9-0.3-1.9 2.2-2.8 2.7-0.7-0.9 1.8-2.2 1.2-3.7 1.5-1.3 5.4-5.6 3.5-6.7 11.8-16.6 18.8-36.2 30.1-50.9 0.3-0.8-0.6 0.2-0.4-0.7 1.2-0.7 1.2-2.3 2.2-3-1.6 0.2-2.6 2.8-3.4 4.4-0.9 1.6-3 3.7-3.9 5.6-1.4 2.9-5.1 7.6-7.7 11.9-2.1 0.3-2.5 3.2-3.9 4.7-0.5-1.1 2.4-4.6 3.2-5.5 0-1.4 0.2-2.5 1.1-4.7l0.6 0.4c0-0.5 0.5-1.2 1-2-0.3-0.3-0.7 0.1-1-0.2 1.6-0.2 2.1-3.1 2.4-4.6 0.8-0.9 0.3 0.7 0.6 0.8 0.7-1.2 0.5-1.4 1.5-2.2 0.4-0.8-0.7-0.5-0.9-0.1 0.5-1.1 1.5-1.5 1.9-3.3-0.6-0.7-1.3 1.6-1.2 0.2-1.7 2.2-3.3 3.6-4.9 5.3-0.3-0.7 3.3-4.1 2.8-5.3-2 1.6-3.8 4.6-5.1 7-0.2-0.8 0.2-1.9 1.3-3.2-0.2-0.1-0.4 0.3-0.7 0.5-0.2-0.2 0.2-0.7 0.5-1.1-1.9 2.9-3.2 3.4-5.3 6.4-1.2-1.5-2.3 3.2-3.5 2.7 4.4-5.3 4.1-9 8.1-13.5 0.2-0.4 0.2-1-0.2-0.5 0.1-1.5 2.9-4 2.9-5.7 2.6-0.8 3.3-4.7 4.9-7.2 3.8-3.3 9.6-13.9 13.6-17.9-0.6-1.1 1.3-1.8 1.6-4.3 0.2 0.3 0 0.8 0.2 1 1.4-4.1 4-7.6 5.1-11.8-0.6-0.4-1.2 2.5-1.8 1.5 2.3-3.7 4.1-5.3 4.7-8.6 0.6 0.2 1.2-0.6 1.8-1 0.3-0.8-1-0.8 0-1.8 0.7 0.1 0 0.9 0.4 1.1 0.6-1.4 1.1-2.3 2.5-4.2-1 0.7-0.8-0.1-1.7-0.1-1 1.1 0.2 1.2-1 2.4-0.3-1.1 1.2-3 0.6-4 0.2-0.5 1.1 0.5 0.4 1.1 1.2 0.9 3.1-1.3 3.1-2.9-0.3-0.1-0.6 0.5-0.8 0.8 0.1-0.8-0.4-1.3 0-2.2 0.6 0.5 1.3 0.2 2.4-0.2 0.2-1.3 2.4-3.5 2.4-4.7-0.8 0.1-1.6 3.1-2.4 2 1.7-0.9 1.5-2 1.6-3.4 0.8 1.1 4.2-4.3 3.1-5.6 0.6-1.2 2.2-1 1.6-2 1-0.1 2.1-1.6 3.1-3-0.3-0.3-0.6 0-0.8 0.4-0.3-1.1 3.5-2.4 2.8-4.4 0.2 0.2 0.4 0.1 0.6-0.1 0.1-0.5-0.4-0.1-0.2-1 0.8-0.8 0.5-0.2 1 0.2-0.1-1.1 0.2-2.4 0.4-3.7 0.4 0.2 1 0.2 1.9-1.1-2 1.1-0.1-2.3 0.8-1.7 0.2-0.4 0.3-1.9-0.4-1.1 0.2-0.4 2.6-1.5 2-3.2 2.3-1.3 3.8-5.3 3.1-6.4-0.3-0.4 1-1.6 1.4-1.8 0.6-0.8-0.6-0.7 0.2-1.6-1.6 1.5-3 3.9-4.5 6.4 0.8 0.4 1.5-1.7 2.3-1.2-1.4 1.5 0.2 1.6-1.3 3.2-0.2-0.2 0.2-0.7 0.4-1.1-1.7 0.1-3.4 1.8-5 3.9 0.2-1.6 2.1-3.3 3-3.8-0.1-2 3.6-5.7 1.4-6.6 2.1-1.4 1.4-3.2 1.9-5.1 1.7-0.8-0.4 2.1 0 2.7 1.2 0.2 0.4-2.3 1.8-2.9 0.3-1.2-1.3 0.6-1-0.6 1.9-2.8 5.4-6.1 6.3-9.3-0.4-0.1-0.7 0.7-1 1.1 0.2-1.1 0.2-0.9-0.2-1.4 0.3 0 1.2-1.4 0.4-0.6 0.1-1 2.4-1.8 2.6-3.2 0.1 0.2 0.1 0.5 0.4 0.6l0.8-1.2c-0.2 0-0.5 0-0.8 0.4 3.6-4.6 7.1-11.2 11-15.2 0.5-0.8-0.6-0.3-0.8 0.3-0.2-0.6 1.2-2.1 1.6-2 0.7-3.1 2.5-3.7 3.7-7 1.6 0.6 2.7-4 3.4-3.2 1.2-1.3-1-0.4-0.4-1.1 0.6-0.9 2.7-4.3 3.3-5.5q-0.4-0.2-0.8-0.5c0.7-1.2 0.2 0.3 1-0.2-0.2-1.3 2.2-2 1.4-3.5 0.6-0.6 0.8-0.5 0.8 0 0.2-0.6 0.8-2.5-0.2-1.9-0.5-0.2 1.1-1.3 0-1.3 0.5-0.5 0.4 0.2 0.6 0.4 1.1-2.6 3.5-5.2 4.5-7.8 0.1 0.5 0.3 0.6 0.8 0.1-0.4-0.4 0.4-2.4-0.6-1.8 0-0.6 0.6-1.8 1-2 0.1-0.4-0.3-0.5-1-1-0.9 1.6-2.2 4.1-1 4.2-0.4 0.6-0.8-0.2-1.2 0.5-0.6 1.7-0.5 3.2-2.5 6.5-0.3-0.5 1.2-1.8 0.5-2-0.5 0.6-2.2 3.6-1.9 4.6-0.3 0-0.6-0.2-1.4 0.4-0.3 2-3.1 3.5-2.4 5.6-0.5 0.5-1 0.5-1.5 1.3-0.4 0.8 0.8 0 1-0.7-0.3 2.7-4.1 3.7-4.2 5.7-0.8 0.9-0.3-0.6-0.8-0.5-0.6 1.7-1 2-1.9 3.7 1.4-1 1.5-1.6 2.9-3.1-0.3 1.9-2.8 3.4-3.1 5.2-0.1-0.3-0.1-0.7 0.2-1.2-1.6 1.7-0.3 1.5-2.4 2-0.8 0.9-0.3 1.2-0.6 1.8 0.8 0.1 0.8-1.3 1.2-1.9 0 0.7 0 1.4 0.2 1.9-1.1 0.2-2.2 1.1-3.3 2.4-0.2 0.5 0.4 0.6 0.7 0.8-0.4 0.8-0.7 0.5-1.1 0.3-1.7 4.9-5.7 9.6-8.7 14.8-1.9 3.3-3.8 7.3-5.5 9.4-1.3 1.6-2.6 6.1-4.1 6.3-4.1 5.7-6.7 10.6-9.9 15.4-0.2-0.3 0-0.8-0.2-1-0.5-0.4-0.9 1-1.3 1.4 0.4 0.8 0.8-0.9 1.3-0.1-1.2 2.6-4.7 7-6.2 9.9-0.3-0.3 0.6-1.2 0-1.4-1.1 1.4 0.6 2.1-1 2.9-0.3-0.3-0.1-0.8 0.4-1.5-1.4 0.7-1.6 3.5-2.4 3.8 0.2 0.2 0.4 0.2 0.6-0.1-1.2 1.8-5.2 6.5-4.5 7.8-0.4 0.7-0.8 0.1-1.2 1-0.3 0.6 0 0.9 0.3 1.2-1.2 0.2-3.9 5.3-4.8 6.6-0.6-1 2.1-3.7 1.5-4.8-1.8 3-4 6.4-4.3 8.8-5.3 4.6-7.7 13.3-12.8 18.5-0.5 1.3-0.9 3-2.1 4 0-0.3-0.1-0.5-0.4-0.7-2.5 3.5-2.1 6.3-5.5 8.5-0.2-0.9 1.4-0.8 1.9-2.4-1.7 0.1-3.1 2.3-4.3 4-0.6-0.7 0.8-2.3-0.2-2.8 2.5-1.7 3-3.6 4.9-6.7 0.3 0.3-0.6 1.1 0 1.3 1.1-2.7 1.9-3.5 2.6-5.8 2.2-1.4 3.2-4.5 5.7-7.9 0.4-1.3-1.2-0.3-0.2-1.9 2.5 1.5 3-5.3 5.9-6.5 0.2-0.4 0.2-0.8-0.2-1 5.6-6.6 7.4-11.9 11.4-17.6 0.2 0.4 0.2 0.8 0.4 1.1q0.2-0.5 0.3-1.1 0.2-0.6 0.3-1.2 0.1-0.6 0.2-1.1 0.1-0.6 0.2-1.2c0.5 0.3 3.1-3.1 2.1-4 1.4-0.4 4.4-4.4 4-5.9 2 0 2.4-3 3.9-4.2 0.3-0.8-0.6 0.2-0.4-0.7 1-0.9 1.8-1.7 1.4-2.6 1.1 0 1.2-2.2 2.5-1.6-0.2-0.6 0-1.3 0.8-0.8-0.3-1.1 1.4-1.9 0.8-2.6 2.1-0.4 2.8-4.6 4-5.4 0.2-0.9-0.5-1.4 0.3-2.5 2.4-1.7 2.2-2.7 3.6-6.1 0.9-0.8-0.7 1.3 0 1.3 4.2-7.3 10.2-15 12-23.4-0.9-0.3-0.9 1.2-1.6 0.7 0.6-1.6 0.9-1.7 1.2-3.2 0.6 0.1-0.1 0.8 0.2 1 0.4 0 0.8-0.4 1.2-1 0.4-0.7-0.5 0.2-0.4-0.7 0.8-0.3 1-1.1 0.8-1.6 0.8-1.3 0.3-0.1 0.9 0 0.6-0.8 0-1.2-0.4-1.6 0.3-0.7 0.6-0.4 1-0.2 1.5-4.5 5.2-9.5 7.7-13.7 0.5-0.8 1.2-1.5 1-1.2 0.9-2.3 3.2-5.9 4.7-5.4-0.9-1.4 1.6-1.9 2-4 1.1 1.3 3.3-2.5 3.3-4.2-1.2 0.3-2.4 2.2-3.1 3.8-0.1-2.7 4.4-6 3.5-8.4 1.8-3.2 4.2-4.3 5.3-7.7 0.4 0.5 0.6 1 1.4 0.4 0.9-1.5-0.4-0.6-0.6-1.7 2.5-2.9 3.1-7.7 6.7-11.2 0.5-1.2-0.4-0.4-0.4-1.2 2-3.6 3.3-4.4 3.9-6.4 0.7 0.1 1.3-0.4 2-1.8 0.2 0.2-0.2 0.7-0.4 1.1 0.4 0.5 0.8-0.4 1.2-0.6 0.1-0.5-0.7-0.2 0.4-1.5 0.3 0.3-0.4 1.1 0.4 1.1-0.5 1.7-1.9 2.3-0.8 3.1-2.6 0.4-1 3.7-3.4 5.7 1.7 0.7 1.3-3.3 2.8-3 0.6-1.2 0.2-2 1.2-2.8 0.4 0.3-0.5 1.1-0.4 1.5 0.8-0.2 1.5-2.1 1.9-2.8-0.2-0.1-0.5 0.3-0.7 0.5 0.2-0.6 1.5-3 1.5-1.8 0.2-0.7 0.5-1.4 0.4-1.9 0.5-0.9 1-0.9 1-0.3 0.4-0.7-0.1-1.1-0.6-0.4 0.1-1.2 1.2-1.1 2.2-2.5-2.3 1.2 1.6-1.5 1.6-2.5-0.2 0-0.5 0.1-0.8-0.1zm-36.2 55q0 0 0 0 0 0 0 0zm-76.1 230.7q0.1-0.2 0.2-0.2-0.1 0.1-0.2 0.2zm1.6-103.2c-0.5 0.3-1.5 0.8-1 1.5 0.3-0.1 1.5-1.2 1-1.5zm31.4-51.1c-0.3-0.2-0.4-0.4-0.4-0.7-0.5 1.2-1.1 2.7-1.2 3.2 0.2-0.4 0.5-0.1 0.8-0.4-0.2-0.5 0.1-1.2 0.8-2.1zm21.3-28.6c-0.6 0.2-0.6 1.6-1.6 2.1 0.4 1 2.5-1.8 1.6-2.1zm37.5-69.3c-1-1-2 0.1-3.1 1.2 1.1 0.3 2.1-0.9 3.1-1.2zm1.6-3c-0.6-0.9-2.5 2.1-1.4 2.2 0.9-0.4 0.5-1.1 1.4-2.2zm-37.6 78.9c-0.4 1.2-0.9 0.6-1.3 1 0.4 0.4-0.1 1.2 0.2 1.5 0.6-0.9 1.6-2 1.1-2.5zm-56.6 102c-0.6 0.3-2 2.2-1.4 2.6 0.3-0.4 1.8-1.7 1.4-2.6zm58.2-104c0.7-0.3 0.8-1.5 0.8-2.2-0.9 0.4-1.2 1.7-0.8 2.2zm2.2-2.6c-1.2 1.4-1.6 2.8-2.4 4.2 0.7-1 2.9-3.2 2.4-4.2zm57.8-1.8c0.1-0.9 0.7-2.1 1.6-3.4-4.9 2-6.7 9.8-9.2 12.8 0.3-0.3 0.2-0.7 0.3-0.7-1.5 2.2-2.6 3.6-1.9 4.1-0.2-0.5 1.4-1.3 1.9-1.9-1.5 2.2-0.8 2.3-2.3 4.7-2.4 1.7-6.8 7.1-6.3 9.8-1.2 1.1-3.8 4.7-3.9 6.8-2.3 1.6-3.2 7-5.9 8.3-0.5 0.7 0.4 0.7 0 1.3-0.9-0.2-1.4 2.3-1.8 3.3-0.5-0.2-0.9 0.6-1.4 0.8-0.1 2.3-2.8 3.9-3.3 6.8 0.6-0.6 1.2-1.6 1.9-1.5-1.6 2.9 0 3.8-0.5 6.4-1.4 0.3-2.3 2.9-3.4 3.1 0.3-0.6-0.2-0.9 0.2-1.6 0.5-0.4 1.1-0.2 1.6-0.8-0.3-0.5-0.2-1.2-0.2-1.8 0.4-0.3 0.8 0.3 1.2-0.6-0.5-0.3-1 0.2-1-0.6-0.9 1.6-0.3 0.9-1.2 1-0.8 1.5-2.3 2.3-2.4 3.7-0.4-0.3-0.7 0.2-1.1 0.3-2 2.6-3.2 6.4-5.5 10.2-2.8 4.7-8.1 9.9-8.1 14.4-0.8 0.5-0.8 1.4-1.2 1.4-0.3-0.5 1.6-2 0.6-2.3-1.6 1.8-1.8 3.8-2.9 5.8-1.9 3.5-5.5 6.6-5.4 9.8 1.8-3.1 4-5.6 5.2-9.1q0.3 0.2 0.7 0.4c2.7-4.2 5.7-8.7 9.3-12.2-0.4-1.1 0.9-1.9 1.6-2.1-0.2-0.6 1.1-1.8 0.7-2.3-0.3 0.2-0.5 0.6-0.7 0.5 0.2-0.7 1.3-0.6 0.9-1.2-0.4 0.3-0.7 0.5-1.1 0.7 0.5-1.2 2-1.2 1.9-2-0.3 0.3-0.9 0.6-0.6 0.1 1.7-1 2.1-3.8 3-3.9 0.5-1.3-1.7 0-1.2-1.2 0.8-0.1 0.8-0.4 1.2 0.4q0.1-0.2 0.2-0.3 0.1-0.1 0.2-0.3 0.1-0.1 0.2-0.2 0.1-0.1 0.2-0.2c-0.3 1.3-0.7 2.7 0.6 2.7 0.4-1.4 0.2-0.7 1.3-1.4 0.4-3.6 6.1-7.2 6.7-11.7-0.4 0.5-0.7 0.7-1.1 0.7 1.6-2-0.4-2 0.3-4.3 0.5 0.3 0 0.8 0.8 0.5 0.5-1.1 1.1-1.4 1.6-2.1 0.2-0.9-0.8 0.1-0.4-0.7 0.4 0 1.7-0.5 1.4 0-0.5 0.9-1.3 1.8-0.8 2.2 0.9-0.7 1.9-1.9 2.8-2.7-1.3 0.5-1.4-0.7-1.8-1.1 1.3-1.3 1.8-1.2 2.3-3 0 0.8 0.4 0.3 1 0.6q0 0 0 0c0-0.7-0.3-1.3-0.8-1.4 0.6-0.9 1.3-0.3 2-1.8-0.3-0.4-1.4-0.4-1-1.1 0.8 0.4 1.3 0.9 1.6 1.5 1.3-1.4 0.2-1.7 1-2.9 0.2 0.2 0.1 0.7 0.6-0.1 0.7-0.9-1.1 0.5-0.4-0.7 1.4-1.3 3.5-2.7 3.3-4.6q0.9 0.4 1.8-1.5c-0.8 0-0.9-0.2-0.6-1.2 1.7-1 5.9-7.8 6.3-9.3 0.4-0.8 0.8 0.7 1.2-0.6 0.6-1.8 1-4.7 2.5-5.1-0.6 0.8-1.1 1.5-0.6 1.8 0.9-1.1 0.9-1.9 1.6-2.9-1 0-1-1.6 0-1.8-0.3 0.5-0.7 1.1-0.2 1.2q0 0 0.1 0.1 0 0 0.1 0 0 0.1 0.1 0.1 0 0 0.1 0.1c1.9-2 2.1-5.1 4.7-8.1-1-0.2-1.9 1.8-2.9 1.3 3.7-4.8 5.5-7.9 7.4-13.1-1.4 2-2.4 3.3-3.3 3.7 1.3-2.2 2.6-3 3.9-5.1-0.4-0.9-0.9 1-1.3 0.6 0.9-1 0.4-1.4 0-1.8-0.5 0.1-1 0.1-1.6 1.2 1 1.2-2.3 4.1-2.4 5.1zm-23.2 46.4c-0.6 0.5-1.1 0.5-1.7 1.6 1.1 0.1 1.6-0.8 1.7-1.6zm0 0q0 0 0 0 0 0 0 0 0 0 0 0zm15.9-37.7q0 0 0 0 0 0 0 0zm-0.3 0.7q0 0 0 0 0 0 0 0zm-41.8-24.5c0 0.9-2.5 2.5-1.7 3.4 0.6-1.5 2-2.1 1.7-3.4zm1.8-0.1c-0.5 0.2-2 2.2-1.8 2.8 0.6-0.6 1.2-1.2 1.8-1.5-1 0 0.6-1.2 0-1.3zm1.4-4c-1.6 0-2.5 3.3-2.6 4.1 0.8-1.3 1.4-3.3 2.6-4.1zm0.4 1.6c-0.6 0.3-0.8 1.5-0.4 1.9 0.8-0.9 0.6-1.4 0.4-1.9zm2.7-5c-1 1.7-2.5 3.6-2.9 4.8 0.8-1.5 1-0.5 0.8 0.1 0.4-0.4 0.7-0.4 1.1-1.1-1.3-0.8 1.6-2.5 1-3.8zm9.3-12.7c-1.1-0.1-0.6-1.3-1.8-1.1-0.6 1-2 2.5-1.4 3 1-0.3 0.8-2.2 1.8-1.9-1.9 4.1-4.3 7.2-5.5 9.8 3.2-3 4.3-6 6.9-9.8zm-39.7 154.5c-0.3 0.5-1.9 1.6-1 2 0.5-0.2 1.6-1.7 1-2zm-68.4 124.6c-0.9-0.8-2 2.2-1.8 2.8 1-1.5 0.8-1.7 1.8-2.8zm43.2-22.5c-0.7-0.9-2.6 3.2-1.5 2.2 0.1-0.6 1.1-1.7 1.5-2.2zm6.7-9c-0.6-0.7-2.2 2.3-2.1 2.7 0.9-0.9-0.4 1 0.2 1 0.5-1.2 0.7-2.2 1.9-3.7zm102.9-134.8c-0.5 0.9-2.1 2.1-2 3.2 0.5-0.6 2.1-2.3 2-3.2zm14.7-26.6c1.4-1.5 2.6-3.1 3.2-5-1.5 1.8-2.4 3.3-3.2 5zm-7.6 16.5c0.8-1 1.9-2.2 2.3-3-0.5 0.9-0.3-1.3-1-0.2 0.3 0.7-2.1 2.7-1.3 3.2zm-2.6 0.1c1.1 1 2.1-2.8 1.4-2.2 0 0.9-0.8 1.6-1.4 2.2zm-25-56.3c1.3-2 1.7-3.7 3.3-5.9-1.2 0 0.1-1.1-0.2-1.4-1.5 3-2.3 4.2-3.1 7.3zm-6.8-92.7c0.8-1.1 2.4-2.2 2-3.1 0.6 0.8 1.3-1.1 2-1.4-0.8-0.1-0.2-0.9-1-1-1.3 1.3-1.6 3.5-3 5.5zm-0.1 0.1q0.1-0.1 0.1-0.1 0 0-0.1 0.1zm1.1-10.4c0.4 0.7 0.9-0.8 1.4-1.4 0 0.9 0.5 0.1 0.6 0.9 0.5-0.8 1-1.5 0.6-1.9-0.3 0.4-0.7 0.5-1 0.3-0.6 0.8-1.1 1.8-1.6 2.1zm-2.1 4c0.8-0.9 1.5-1 1.4-2.2-0.8 0.9-1.4 1-1.4 2.2zm0 8.4c1.3 0.5 1.5-2.7 2.1-1 0.9-1 0.2-1.9-0.5-1.5-0.8 1.4-0.6 1.3-1.6 2.5zm-1.4 5.3q0.8-1.2 0.6-1.9c-0.6 0.3-1.3 1.6-0.6 1.9zm-1.2 6.3c0.6-1.5 1.3-1.6 1.4-2.7-0.6 0.3-2 2.3-1.4 2.7zm-2.3 2.5c0.8-2 1.3-2.6 1.3-4-0.7 1.2-2.5 2.2-1.9 3.2 1.3-1.7 0.6 0.2 0.6 0.8zm0 2.3c0.3-0.9 2-2.3 1.1-2.5-0.2 1.2-1.6 1.7-1.1 2.5zm-3.4 8.4c0.3-0.4 0.3-0.1 0.4 0.2 0.7-0.9 0.6-1.4 0.4-1.9-0.2 0.5-1.3 1.5-0.8 1.7zm-1.9 3.3c0.5-1.1 1-0.7 1.5-1.8-0.5-0.4-0.3-1-1.1-0.2 0.2 0.2 0.4 0.3 0.3 0.6-0.6-0.2-0.8 1.2-0.7 1.4zm-0.8 90.4c0.5-0.9 1.8-1.5 1.2-2.3-0.5 0.6-1.8 1.7-1.2 2.3zm-1.8-81.5l0.8-1.3q-0.6-0.2-0.6-0.8c-0.4 0.8-0.7 1.7-0.2 2.1zm-2.2 2.1c0.7-1.4 1.3-1.6 1-2.4-0.3 0.8-2 2.2-1 2.4zm-1.9 96.9q0.4-0.6 0.8-1.2l-0.6-0.4c-0.6 0.8-0.8 1.4-0.2 1.6zm-25.9 42.6c-1.6 3.4-5.6 6.7-5.5 9.8 1.6-2.5 5.5-7 5.5-9.8zm32.4-43.8c0-0.6-1-1.5-1.6-0.6 0.6 0.3 0.6 1.7 1.6 0.6zm0.8-2.1c-0.4-0.5-0.8 0.3-1.2-0.4-0.2 0.4-0.6 0.9-0.4 1.1 0.5-0.3 1.1 0.1 1.6-0.7zm7.7 55.2c-0.9 2-2.2 2.9-2 4.4 1.3-1 2-3.3 2-4.4zm26.2-32.6c0.5-0.8 1-0.7 1.5-1.8-0.8-0.8-1.7 1.2-1.5 1.8zm-0.5-86.5q0.5-0.9 0.6-1.4c2.6-3.6-1.6 0.7-0.6 1.4zm-1 5.1c0.8-1.2 2.3-3.1 1.4-4-1 1.6-2.4 3.3-1.4 4zm-60.2 2.5c-0.4 0.3-0.8 1.7-1.2 1.4 0.1-0.5 1.2-1.5 0.8-1.7-1 0.8-1.3 1.8-1.3 2.8 0.9-1 1.7-1.3 1.7-2.5z"/>
			<path id="Layer" fill-rule="evenodd" class="s1" d="m302.6 263.4c-0.4-0.1-0.7 0.7-1.1 1.1-0.7 0.1 1.7-2.7 2.3-2.1-0.8 1.2-1.3 1.8-0.2 1.7-1.4 1.1-2.2 3.3-3.1 5.1-0.8-0.9-0.2 1-1 0.7-0.3-1.2 3.3-4.7 3.1-6.5zm-76.3-94.1l0.7 0.4c-0.3-0.4 0.3-3 0.8-1.7 0-1.9 2.5-4.2 3.2-5.9-1.1 4.7-5.2 11.5-8.5 15.4 1.3-0.5-1 3.6-1.2 2.3-1.1 4-3.4 6.4-5.1 10.5-0.1-0.5-0.3-0.6-0.8-0.1 0.1 1.6-1 3.3-2.3 4.4-0.7 0.7 0 0.9-0.4 1.5 1.3-1.4 5.4-4.8 3.7-0.8-1.1 0 0.5-1.1 0-1.3-1.4 0.3-2.3 2.9-1.9 3.7 0.6 0.4 1.3-2.5 1.9-1.5-1.7 3.1-2.7 4.1-2.7 5.8-2.1 1.6-4.2 6-4.2 7.5-1.2 0.8-1.6 0.8-1.9 2.4 0-0.4-0.4-0.5-0.2-1-1.5 0.9-1.8 1.6-2.8 3.5-0.2-0.7-0.3-1.5-1.2-0.8 0.4 0.2 0.1 1.7-1.1 2.1 0 1.5-0.2 2.6-1.6 4.2-0.5-0.6 0.3-2 1.2-2.7-0.3-0.3-0.7 0.1-1-0.2-0.8 2-1 2.2-2.4 4.2 0.4 0.7 0.9-0.8 1.4-1.3 0.7 0.2-0.9 1.6 0 1.7-0.8 0.6-1.6-0.2-2.4 1.2 0.7 0.9 0.1 0-1.1 2 0.4-0.1 0.7-0.4 1.1-0.7q-0.6 0.6-1.1 1.2-0.5 0.6-1 1.3-0.5 0.6-1 1.2-0.5 0.6-1 1.3c0.3 1.4-1 1 0-0.5-0.2 0-0.4 0.2-0.6 0.1-1.2 0.9-1.1 1.8-2.3 2.1-0.3 1 1.1 0.7 1.5-0.4 0.3 1.1-2.2 2-0.9 2.5-0.4 0.5-2 1-1.8 2-0.7 0.9-0.2-0.6-0.8-0.5-0.7 1 0.4 1.3-0.4 2.4-0.2-0.7 0-1.5-0.4-2-0.8 1.1-0.2 1.5-0.8 2.5-0.4-0.2-0.8 0.7-1.2 0.2 1.3-0.7 1-1.4 1.4-2.7-0.8 0.2-3.1 3.8-2.9 4.9-0.6 0.3-1.2 2-1.8 1.5 0.5-1.1 0.9-0.7 1.4-1.8-0.2-0.3-0.5 0-0.8 0.4 0.2-1.3 2.1-2.3 2.5-3.8 0.2-0.5-0.4 0-0.7-0.4 0-1.2 2.1-2 1.3-2.7 1.5-0.7 2.5-3.9 3.2-5.5 1.7-0.7 2.5-3 3.9-4.7-1.4 0-1.6 1.6-3.1 3.4-0.3-1.1 1.8-2.1 2.3-3.9 0.6 0.9 1.3-2.3 2-0.9 0.7-2 1.3-2.5 2.9-4-0.7-2.2 3.1-5.9 3.2-7.6 7.9-11.6 17.2-26.8 25.8-40.4zm-33.9 58.7c-0.4 0.4-0.8-0.2-1.3 1l0.7 0.4c0.2-0.5 0.8-1.2 0.6-1.4zm4.4-4.7q-0.4-0.3-0.8-0.5c-1.9 1.1-1.8 3.1-1.8 4.5 1.4-1.3 0.2-2.7 1.2-3.2 0.3 0.1-0.4 1.7 0.4 0.7-0.4-0.6 0.8-0.9 1-1.5zm12.5-21c0.8-0.5 2-1.7 1.4-2.6-0.7 1.2-2 2.9-1.4 2.6zm-2.9 6.2c-1-0.1-2.7 2.6-2.6 3.6 0.8-0.5 1.7-2.4 2.6-3.6zm1.4-0.4c-0.7 1.1-1.7 2.4-1.4 3 1-1.1 1.9-2.1 1.4-3zm-0.2-2.4c-0.5 0.8-0.8 1.6-0.8 2.2 0.6-0.3 1.8-2 0.8-2.2zm1.9 0.3c-0.6 0.8-0.8 1.4-0.2 1.6 0.5-0.8 0.8-1.4 0.2-1.6zm1.8-3.3c-0.3-1-4 1.5-3.1 3 0.9-1.5 1.8-2.3 3.1-3zm-0.2-1c0.9-0.8 0.5 0.8 1.2 0.8 1.4-1.9 2.2-3.6 1.8-4.6-1.6 2.1-2 2.4-3 3.8zm-93.3 244.7q0 0 0 0zm0 0c0 0-0.1-0.3-0.1-0.3 0.1-0.4 0.1-0.7-0.3-0.9 1.1-1.1 0.8 0.2 0.7 0.8q-0.2 0.3-0.3 0.4zm10-42c-0.5-0.3-0.3-1.1-0.2-1.8 3.6-4.3-0.3 0.2 0.2 1.8zm-4.8-5.2c-0.4 0.4-0.2-0.3-0.7-0.4 0.9-0.9 1.8-1.9 2.7-2.8 0.2 1.2-2.3 1.9-2 3.2zm-30.4-30.9q0.1-0.1 0.2-0.1 0 0 0.1 0 0.1-0.1 0.2-0.1c0.3-1-0.9 0.1-0.6-0.8 1.1-0.8 2-3.8 2.6-2.8q0.3-0.5 0.6-0.5c0.3-0.9-1.3 0.1-0.2-1.4 0 1.5 1.1-0.4 1.6-0.8 0.2 2.3-3.1 5.7-4.1 8.1l-0.5-1.5q0-0.1 0.1-0.1zm20.4 19.3c0 1.4-1.8 2.4-2.4 3.4-0.7 0 1.8-2.1 2.4-3.4zm16.1 7c-0.5 0.3-1 0.3-1.5 0.9-0.1-0.6 1.5-1.5 2.1-2.7 0.6 0.2-1.3 1.6-0.6 1.8zm24.4-20c0.3-1 1.2-2.2 2.2-3.5-0.4 0.9-1.2 2.5-2.2 3.5zm-17.1-35c-0.1 0.8-1 2.1-1.4 3.1-0.3-0.6 0.8-2.4 1.4-3.1zm-0.8-9.8c0-0.8 1.3-2.2 0.6-2.7 1-0.6 0.2 2.4-0.6 2.7z"/>
			<path id="Layer" class="s4" d="m128.7 315.8q0-0.1-0.1-0.2m-0.4-3.1q0-0.3 0.1-0.5"/>
			<path id="Layer" fill-rule="evenodd" class="s1" d="m128.2 312.5c-0.2 1 0.3 1.5-0.3 1.9-0.5 0.7 0.7 0.7 1 0.1 0.2 0.3-0.4 0.9-0.3 1.1-0.6-0.7-2.2 0.8-2.4 2.2-0.4-1 1.4-3.5 2-5.3zm110.9 43.7c-2.6 2.8-2.2 4.7-4.5 6.5 0.1 1.4-1.9 3.4-2.6 4.5 0.8-3.2 5-6.9 5-10.1 0.7 0.1 1.4-1.3 2.1-0.9zm-87.6-41.2c0.7 0.1 0.5-0.3 1-1.1 1-1-0.9 1.2 0.2 1-0.6 0.9-1.1 1.7-1.6 1.2 0.1-0.3 0.2-0.3 0.4-0.2 0-0.4-0.1-0.7-0.2-1 0.2-0.4 0.3-0.1 0.2 0.1zm1.8-3.3c1.5 0.5 3.9-5.1 4.3-6.6 0.4-0.5 0.9-1.3 1.4-0.9-1.1 1.3-0.7 1.8-1.2 2.8 0.2 0.1 0.4-0.3 0.6-0.5 0.1 2.3-2.9 4.9-4.9 6.7-0.4-0.4-0.1-1-0.2-1.5zm5.5-36.3c-1.7 6-8.2 12-10.4 17.4-0.2-0.4-0.2-0.8-0.4-1.2-0.8 0.9-0.5 1.3-1 2-1.6 0.1-2.8 4.4-4.1 5 0.8-0.7 0.9-1.5 0.6-2.3 1.6-1.9 2.3-2.5 3.1-4.7-0.5 0.2-1-0.2-1.4 0.5-0.1-0.5 0.3-0.7 0.8-1.7 1 0.2 2-0.2 3-0.8 0.7-1.1-0.1-3 1.5-3.1-0.1-0.6-0.6-1-1.1-1.5 1.1-1.1 0-1.6 1.1-2q-0.7-0.5-1.3 0.6c-0.5-0.4 1.6-2.1 1.1-2.5 0.8-0.8 0.4 0.8 0 1.3 0.4-0.1 0.9 0.2 1.4-0.4 0.2-0.5-0.4-0.6-0.6-0.8 0.9-1.1 2.2-1.9 1.2-2.8 2-1.1 2.5-3.3 3.9-4.6-0.1-0.6-0.3-0.7-0.9-0.1-0.1-1.2 1.3-2 1.3-2.3 0.2-0.4 0.5-0.1 0.8 0 0.5-1 1.3-1 0.8-1.7 1.1 0.1 2.2-1.8 3.2-1.9-0.4 0.5-2.5 1.9-1.2 2.3-0.2 0.4-0.5 0.1-0.8 0-0.2 0.6-0.4 1.3-0.8 2.1q-0.3 0.1-0.5 0.2-0.3 0.1-0.5 0.2-0.3 0.1-0.5 0.3-0.3 0.1-0.5 0.2c-0.5 0.9 0.6-0.2 0.8 0.5-1.3 0.4-0.4 1.6-0.5 1.8q0 0-0.1 0 0 0 0 0-0.1 0-0.1 0-0.1 0-0.1-0.1c0.2 0.2 0.3 0.2 0.3 0.1 1.4-0.1 3.7-2.7 4.3-5.1 0.5 0.6 0.3 0.5 1.1 0.7-2 0.1-1.1 3.6-3.5 4.4zm-4.3 4c-0.5 0.7-0.7 1.2-0.8 1.7 0.3 0.1 0.6 0.4 0.8 0-1.1 0 1.2-1.7 0-1.7zm86.4 72.6c0.3 0.8-0.6 2.1-1.2 3.2 0-0.5 0.4-1.9-0.6-0.8-0.9 0.2 1.3-1.2 1.8-2.4zm-78.7-54.1c1.4 0.1 1.8-2 3.3-1.5-0.3 0.3-0.7 0.5-1 0.2-0.4 0.7 0.3 0.8-0.4 1.6-0.6 0-1.2 0-1.9 0.6-0.1-0.2 0.3-0.7 0-0.9zm3.3-2.8c0.3-0.5 0.6-0.9 0.4-1.1 0.7-0.6 0.5 0.9 0.2 1.5-0.3-0.4-0.7-0.4-1 0.2-0.8-0.2 0.1-0.8 0.4-0.6zm83.1 51.6c0.2-0.4-0.1-0.3-0.2-0.1 0-1 2-3 2.1-4 0.1 0-1.2 5.3-2.5 4.6q0.3-0.6 0.6-0.5zm3.3-4.1c0.2 0.7 1.9-1.2 2.8-1.8-0.6-0.3 1.8-3.5 3.3-5.9-0.1 1.5-3.5 7.8-5.3 7.7-1.3 1.7-1.2 1.9-2.4 3.4 0.6-2.7 3.8-7.4 5.3-9.5 0.2 0.9-2.8 4.4-3.7 6.1zm-77.5-61.4c0.7-0.9-1-0.8 0.3-2 0.5 0.1-0.1 0.7 0.2 1 0.2-1.4 1-2.7 2.2-3.5 0.3 0.9-0.5 1.3-1.2 1.9 0.2 0.5 0 1.2 0.4 1.6q-0.5 0.3-1 1.1c-0.2-0.2 0.2-0.7 0.4-1.1-0.4 0.6-2.9 2.2-2.5 2.9-1.1 1.1-0.2-0.2-0.8-0.5l1-1.6c0 0.9 0.5 0.2 1 0.2zm83.4 51.8c0.5-0.1 0.9-0.6 1.4-0.9 0.2 0.3-0.3 0.9-0.6 1.4 0-0.6-0.5-0.6-1 0.3 0.2-1-0.6-1.4 0.2-2.6 1.1 0.1 0 1.2 0 1.8zm0.8-4.8c-0.1-1.1 1.4-1.6 1.4-2.6 0.6 0.7-1 2-1.4 2.6zm-79.7-53.9c0.4-1 0-0.5-0.6-0.8q0.4-0.6 0.8-1.3c-0.4 2 0.7-0.3 1.5 0.1-1.3 1.1-1.5 2.9-2.9 3 0.4-0.7 0.8-1.1 1.2-1zm2.3-4.3c-0.2-0.3 0-0.8-0.2-1 0.7-0.6 2.3-2.6 2.4-1.1-0.4 0.4-0.2-0.3-0.6-0.4-1 1.1-1 2.2-1.6 2.5zm35.5 17.9c0.7-1 0-1.3 1.1-2.5 0.7 0.3-1.8 4.3-1.1 2.5zm1.9-2c-0.1-1 1.5-2.2 2-3.1 0.1 0.9-1.5 1.6-2 3.1zm-29.1-25.7c1.4-2.3 2-3 2.9-4.8 0 0.9 0.3 0.6 0.6 1.2q-0.3 0.5-0.6 1c-0.3-0.2 0.2-0.7 0.4-1.1-0.9-0.2-2.4 2.7-1.9 3.3-0.4 0-0.9 0.8-1.4 0.4zm-1.2-9.2c0.4-1.2 1.6-1.9 2.4-3.7-0.1 1.3-1.3 2.7-2.4 3.7zm-7.7-9.7c1.2-0.4-0.1 2.1 1.6 1.1-0.5 1-1-0.1-1.4 1.3-0.4-0.7 0.4-1.9-0.2-2.4zm14 4.9q-0.2-0.2-0.4-0.3c1.6-0.9-1.3 3.5-2 2.7 0.8-0.4 1.6-1.7 2.4-2.4zm-4.7-8.3c-0.5 0.4-1.1 0.3-1.6 1.2-0.5-0.1-0.4-0.5-0.6-0.8 0.6-0.7 1.8 0.3 2-1.4 0.9-0.8-0.1 0.9 0.2 1zm8.6 2.7c0 0.3 0.1 0.6 0.4 0.7 0.3-1.5 1-0.5 1.8-1.5 0.2-0.4-0.3-0.5 0-0.9q0.8-1.5 1.6-0.7c-1.4 1.4-1.2 1.2-2 3.1l-0.6-0.4c-0.4 0.8-0.8 1.2-1.2 1.5 0.6 0.1 0.9 0 0.8 0.9 0.4 0.5 0.8-1.5 1.2-0.5-0.6 0.5-1.2 1-1.8 1.5 0.6-1.6-0.3-1-1.3-1.2 0.8-0.4 0.6-0.8 1.1-1.6-0.7-0.7-1.4 0.8-2.1 1.8-0.5-0.9 1.4-2 2.1-2.7zm-9.8-3.9c0.8-0.6 1.1-0.6 1.4-1.7 0.4 0.2 0.7 0.1 1-0.3 0 0.1-1.7 2.4-2.4 2zm14.4-0.2c0.1-0.4-0.2-0.6 0.2-1.2 1 1.6-1.3 1.5-2.2 2.6-0.1-1.4 1.5-1.4 2-1.4zm101.9 40.4c0.1-0.8 2-2.8 2.8-4-0.1 1.2-2 3-2.8 4zm-45.5-35.2c-0.5 0.6-0.6 1.2-0.2 0.8-1 1.7-1.7 1.7-1.3-0.3 0.2-0.4 1.3-0.1 0.9-0.9 0.3-0.4 0.1 0.3 0.6 0.4zm7.7-12.8c0.4 0.5 0 1.7-0.8 2.1-0.2-0.2 0.1-0.3 0.2-0.3 0-0.5-0.2-0.9 0.6-1.8zm-7.3-108.4c-0.3-0.2 0.9 0.1 1.7-0.3-0.5 0.9-1.9 1.4-1.7 0.3zm-6.3-36.2c0.4 1.6 0.3 1.6 0.4 2.1 0.5 0.2-0.6 1.1-0.8 1.7-0.9-0.8-0.3-2.3 0.4-3.8zm-113.7 213.3c-1 2.5-3.2 4.2-3.5 5.8-0.7 0.4-1.5 0.4-2.2 1.2-0.3 1 0.2 1.7-0.8 3-0.4-0.3-0.7-0.3-1 0.3-0.1-0.3-0.2-0.6-0.5-0.7 0.5-0.3 1-0.3 1.5-0.4-0.1-1.1 0.7-2.6 0.6-3.6 0.5-0.7 0.9-0.4 1.4 0 0-0.6 0.2-0.8 0.6-0.5 0-1.3 1-1.8 1.2-3.2 0.9-0.4 1.8-0.3 2.7-1.9zm54.3-54.4c0.9 0.4-1.1 2.1-1.4 3.1-0.4 0.2-0.8-0.3-1.3 0.6 0.2-0.6-0.3-0.9 0.3-1.6 0.8 0.7 1.6-0.9 2.4-2.1z"/>
		</g>
	</g>
</svg>