<svg xmlns="http://www.w3.org/2000/svg" viewBox="0 0 1200 800" width="1200" height="800"><g transform="translate(320.0 187.0) rotate(0.0 280.0 213.0) scale(0.6584362139917695 0.6586270871985158)"><svg width="850.5" height="646.8" viewBox="0 0 850.5 646.8"><path d="M568.1 309.7c-.9-1-.8-1.1-1.7-2.1s-1.3-.6-2.2-1.6-1-.9-1.9-1.9-.3-1.6-1.1-2.6c-.9-1-1.5-.5-2.4-1.5s-.4-1.4-1.3-2.4-1.4-.6-2.3-1.6-.4-1.5-1.2-2.5l-1.8-2c-.9-1-1.2-.7-2.1-1.7s-1.1-.8-2-1.8-.8-1.1-1.7-2.1l-1.8-2c-.9-1-.3-1.7-1.4-2.4-.3.8-1 1.6-1.3 2.4s-.8 1.5-1.2 2.3-.3 1.8-.8 2.5c-.4.7-1.4 1.1-1.9 1.9-.5.7-.5 1.8-1.1 2.4-.6.7-1.2 1.3-1.8 1.9s-1.5.9-2.1 1.5-1.1 1.4-1.8 1.9-1.6.8-2.3 1.3-1.1 1.6-1.9 2-1.9 0-2.7.4-1.4 1-2.2 1.4c-.8.3-1.7.4-2.5.7-.8.2-1.6.7-2.5.9-.8.2-1.7.6-2.5.8-.9.1-1.8 0-2.6.1-.9.1-1.7.1-2.6.1s-1.8.3-2.6.2c-.9-.1-1.7-.9-2.5-1-.9-.1-1.7-.4-2.5-.5-.9-.2-1.8 0-2.6-.2-.8-.3-1.5-.9-2.3-1.2s-1.6-.6-2.4-1-1.5-.8-2.3-1.2-1.7-.5-2.4-1-1.6-.7-2.3-1.3c-.7-.5-1.2-1.3-1.9-1.8-.6-.6-1.5-1-2.1-1.6s-.9-1.6-1.4-2.2c-.6-.7-1.4-1.1-1.9-1.8s-.2-1.9-.7-2.7c-.4-.7-1.3-1.3-1.7-2-.4-.8-.4-1.7-.7-2.5s-1.3-1.4-1.6-2.2-.5-1.7-.7-2.5-.2-1.8-.3-2.6c-.1-.9.3-1.8.2-2.7s0-1.7 0-2.6-.1-1.7 0-2.6-.4-1.8-.3-2.7.1-1.8.3-2.6 1.4-1.4 1.6-2.3c.3-.8.5-1.6.8-2.4s.3-1.7.7-2.5.7-1.6 1.1-2.4c.4-.7 1.1-1.3 1.6-2.1.5-.7 1.1-1.3 1.6-2s.6-1.8 1.2-2.4 1.5-1 2.2-1.5c.6-.6 1.6-.8 2.3-1.3s.9-1.7 1.7-2.1c.7-.5 1.5-.9 2.3-1.3s1.6-.8 2.3-1.2l2.4-1.2c.8-.3 1.8-.2 2.6-.4.8-.3 1.7-.1 2.6-.3.8-.2 1.3-.6 2.2-.7-.5-1.2-.3-1.4-1.2-2.4s-1.2-.8-2.1-1.8-1.2-.7-2.1-1.8c-.9-1-.4-1.5-1.3-2.5s-1.3-.7-2.1-1.7c-.9-1-.5-1.4-1.4-2.4s-.8-1.1-1.7-2.1l-1.8-2c-.9-1-1.3-.7-2.2-1.7s-.4-1.4-1.3-2.4-1.4-.5-2.3-1.6c-.9-1-1-1-1.9-2s-.7-1.2-1.6-2.2l-1.8-2c-.9-1-.7-1.2-1.6-2.2s-1.1-.8-2-1.9c-.9-1-.5-1.3-1.4-2.4-.9-1-1-1-1.9-2s-1.5-.5-2.4-1.5-.5-1.4-1.4-2.4-.8-1.1-1.7-2.1-1-.9-1.9-1.9l-1.8-2c-.9-1-.5-1.3-1.4-2.3l-1.8-2c-.9-1-1.3-.6-2.2-1.6s-.6-1.2-1.5-2.2-1.1-.8-2-1.8-1.1-.8-2-1.8-.7-1.1-1.6-2.1-.8-1-1.7-2.1c-.9-1-.6-1.3-1.5-2.3s-1.1-.8-2-1.8l-1.8-2c-.9-1-.5-1.3-1.4-2.3l-1.8-2c-.9-1-1-.9-1.9-1.9l-1.8-2c-.9-1-.6-1.3-1.4-2.3-.9-1-1.4-.6-2.3-1.6s-.4-1.4-1.3-2.4-1-.9-1.9-1.9-.7-1.1-1.6-2.1l-1.8-2-1.8-2c-.9-1-1-.9-1.9-1.9s-1-.9-1.9-1.9l-1.8-2c-.9-1-1-.9-1.9-1.9l-1.8-2c-.9-1-1-.9-1.9-1.9s-.3-1.5-1.2-2.5-1.5-.5-2.4-1.5-.6-1.2-1.5-2.2-1.2-.7-2.1-1.8c-.9-1-.5-1.4-1.3-2.4-.9-1-.7-1.2-1.6-2.2s-1.4-.6-2.3-1.6-.4-1.4-1.3-2.4-.8-1.1-1.7-2.1-1.6-.4-2.5-1.4l-1.8-2c-.9-1-.7-1.2-1.6-2.2s-.3-1.5-1.2-2.5-1.1-.8-2-1.8-1-.9-1.9-1.9-.8-1.1-1.7-2.1-1-.9-1.9-1.9l-1.8-2c-.9-1-.9-1-1.7-2-.9-1-.7-1.2-1.6-2.2s-.8-1.1-1.7-2.1-1.3-.7-2.2-1.7-.7-1.1-1.6-2.2c-.9-1-1-.9-1.9-1.9s-.5-1.3-1.4-2.3-1.4-.5-2.3-1.5-.3-1.5-1.2-2.5-1.1-.8-2-1.9c-.6-.7-1.6-1-2.2-1.6-.6-.7-.8-1.6-1.5-2.3-.6-.6-1.6-.9-2.2-1.5s-.8-1.7-1.4-2.3-1.1-1.4-1.7-2.1c-.6-.6-1.4-1.1-2.1-1.7s-1.8-.7-2.4-1.2c-.7-.6-1.1-1.4-1.8-2s-1.2-1.4-1.8-1.9c-.7-.6-1.7-.8-2.3-1.3-.7-.5-1.3-1.1-2-1.7l-2.1-1.5c-.7-.5-1.4-1.1-2.1-1.6s-1.5-.9-2.3-1.4c-.7-.5-1.1-1.6-1.8-2.1s-1.7-.6-2.5-1c-.8-.5-1.8-.5-2.5-.9-.8-.4-1.1-1.6-1.9-2.1-.8-.4-1.9-.3-2.6-.7-.8-.4-1.6-.7-2.4-1.1s-1.5-.9-2.3-1.3-1.4-1.1-2.2-1.4c-.8-.4-1.6-.8-2.4-1.1-.8-.4-1.7-.5-2.5-.8s-1.7-.5-2.5-.8-1.5-1-2.3-1.3-1.5-1-2.4-1.3c-.8-.3-1.8-.3-2.6-.6s-1.6-.7-2.5-.9c-.8-.3-1.8-.2-2.6-.4s-1.6-.8-2.5-1c-.8-.2-1.7-.3-2.6-.5s-1.8 0-2.7-.2-1.6-1.1-2.4-1.2c-.9-.2-1.7-.3-2.6-.4-.9-.2-1.7-.5-2.6-.6-.9-.2-1.8-.2-2.6-.3-.9-.1-1.7-.3-2.6-.4s-1.8.3-2.7.2-1.7-.9-2.6-1-1.8.4-2.7.3-1.7-.2-2.6-.3-1.8 0-2.6 0c-.9 0-1.7-.4-2.6-.5-.9 0-1.8.6-2.7.6-1.4 0-1.4-.4-2.7-.4-1.4 0-1.4.5-2.7.5-1.4 0-1.4-.3-2.7-.3h-2.7c-1.4 0-1.4-.3-2.7-.3-1.4 0-1.4.6-2.7.6-1.4 0-1.4-.8-2.7-.8-1.4 0-1.4.2-2.7.2-1.4 0-1.4.3-2.7.3-1.4 0-1.4-.3-2.7-.3-1.4 0-1.4-.1-2.7-.1-1.4 0-1.4-.2-2.7-.2-1.4 0-1.4 0-2.7-.1-1.4 0-1.4.8-2.7.8h-2.7c-1.4 0-1.4-.9-2.7-.9-1.4 0-1.4.6-2.7.6h-2.7c-1.3 0-1.4.2-2.7.2-1.4 0-1.4-.5-2.7-.5-1.4 0-1.4-.3-2.7-.3-1.4 0-1.4.1-2.7.1-1.4 0-1.4.2-2.7.2-1.4 0-1.4.5-2.7.5-1.4 0-1.4-.6-2.7-.6-.9 0-1.7.5-2.6.6-.9.2-1.7.3-2.5.7-.8.3-2 .1-2.7.6-.8.5-1.2 1.4-1.9 2-.6.6-1.4 1.2-1.9 1.9s-.3 1.8-.7 2.7c-.4.8-.7 1.6-.9 2.4-.2.9-1.2 1.7-1.2 2.6s.8 1.7.9 2.6-.1 1.8.2 2.7c.3.8 1.2 1.4 1.7 2.2.7 1.1.2 1.5.9 2.6s.6 1.2 1.3 2.3 1.1.9 1.8 2 1 1 1.7 2.1.4 1.3 1.1 2.5c.7 1.1.6 1.2 1.3 2.3s.9 1 1.6 2.1.4 1.3 1.1 2.5c.7 1.1.6 1.2 1.3 2.4.7 1.1 1 .9 1.7 2.1.7 1.1.3 1.4 1 2.5s.9 1 1.6 2.1 1.2.8 1.9 2c.7 1.1.3 1.4 1 2.5s.9 1 1.6 2.2c.7 1.1 1 1 1.7 2.1s.2 1.5.9 2.6.7 1.2 1.4 2.3 1 .9 1.8 2.1c.7 1.1.5 1.3 1.2 2.4s1.1.9 1.8 2 0 1.5.7 2.7c.7 1.1 1.3.8 2 1.9s.6 1.2 1.3 2.3.4 1.3 1.1 2.5c.7 1.1 1.2.9 1.9 2s.9 1 1.6 2.2c.7 1.1.5 1.3 1.2 2.4s.9 1 1.6 2.2c.7 1.1.3 1.4 1 2.5s1.1.9 1.8 2.1c.7 1.1.3 1.4 1 2.5s.7 1.2 1.4 2.3.8 1.1 1.5 2.2.5 1.2 1.2 2.4c.7 1.1.7 1.2 1.4 2.3s1 1 1.7 2.1.6 1.2 1.3 2.4c.7 1.1.8 1.1 1.5 2.2s.6 1.2 1.3 2.3.8 1.1 1.5 2.2 1 .9 1.7 2.1c.7 1.1.1 1.5.8 2.6s.8 1.1 1.5 2.2.6 1.2 1.3 2.3.9 1 1.6 2.1.9 1 1.6 2.1 1 1 1.7 2.1 0 1.6.7 2.7 1.3.8 2 1.9.7 1.1 1.4 2.3c.7 1.1.5 1.3 1.2 2.4s.7 1.1 1.4 2.3c.7 1.1.6 1.2 1.3 2.3s.8 1.1 1.5 2.2.9 1 1.6 2.2c.7 1.1.3 1.4 1 2.5s1.3.8 2 1.9.2 1.5.9 2.6.7 1.2 1.4 2.3 1.1.9 1.8 2.1c.7 1.1.4 1.4 1.1 2.5s.9 1 1.6 2.2c.7 1.1 1 1 1.7 2.1s.3 1.4 1 2.6c.7 1.1.6 1.2 1.2 2.3.7 1.1.8 1 1.5 2.2.7 1.1.6 1.2 1.3 2.3s.6 1.2 1.3 2.3.7 1.1 1.4 2.3c.7 1.1 1.1.9 1.8 2s.9 1 1.6 2.1.8 1.1 1.5 2.2.3 1.4 1 2.5 1.1.9 1.8 2 .1 1.5.8 2.6.9 1 1.6 2.1 1.1.9 1.8 2 .6 1.2 1.2 2.3c.7 1.1.5 1.2 1.2 2.4.7 1.1 1 .9 1.7 2.1.7 1.1.2 1.5.9 2.6s1.3.7 2 1.9c.7 1.1-.1 1.6.6 2.7s1.2.8 1.9 1.9.9 1 1.6 2.1.6 1.2 1.3 2.3.8 1.1 1.5 2.2.4 1.3 1.1 2.4.3 1.4 1 2.5 1.4.7 2.1 1.8.8 1.1 1.5 2.2.6 1.2 1.3 2.3.1 1.5.8 2.6l1.4 2.2c.7 1.1.9 1 1.6 2.1s.3 1.4 1 2.5 1.3.8 1.9 1.9l1.4 2.2c.7 1.1.5 1.2 1.2 2.3s.6 1.2 1.2 2.3c.7 1.1 1.1.9 1.8 2l1.4 2.2c.7 1.1.3 1.4 1 2.5s.9 1 1.6 2.1.3 1.4 1 2.5.9 1 1.6 2.1 1.1.9 1.8 2 0 1.6.7 2.7 1.4.7 2.1 1.8.6 1.2 1.3 2.3.6 1.2 1.3 2.3.4 1.3 1.1 2.4.6 1.2 1.3 2.3.5 1.2 1.2 2.4c.7 1.1 1 .9 1.7 2.1.7 1.1.9 1 1.6 2.2.7 1.1.6 1.2 1.3 2.3s1 .9 1.7 2.1c.7 1.1 0 1.6.7 2.7s1.2.8 1.9 1.9.8 1.1 1.5 2.2.4 1.3 1.1 2.4.5 1.2 1.2 2.4l1.4 2.2c.7 1.1.9 1 1.6 2.2.7 1.1.3 1.4 1 2.5s1 .9 1.7 2.1c.7 1.1.6 1.2 1.3 2.3.5.7.9 1.5 1.5 2.2.6.6 1.5.9 2.1 1.5.7.5 1.5.8 2.2 1.2.8.4 1.6.4 2.4.6s1.5 1 2.4 1.1c.8.1 1.7-.5 2.5-.6 1.3-.1 1.4.5 2.7.4s1.3-.7 2.6-.8 1.3 0 2.7-.2c1.3-.1 1.4.5 2.7.4s1.3-.3 2.6-.4 1.3-.2 2.7-.3c1.3-.1 1.3-.5 2.6-.7 1.3-.1 1.4.4 2.7.2 1.3-.1 1.3.1 2.7-.1 1.3-.1 1.3-.3 2.6-.4s1.3-.2 2.7-.3c1.3-.1 1.4.2 2.7.1s1.3-.2 2.7-.3c1.3-.1 1.3 0 2.7-.1 1.3-.1 1.3-.4 2.6-.5s1.3-.3 2.7-.4c1.3-.1 1.3-.1 2.7-.3 1.3-.1 1.4.2 2.7.1s1.3-.6 2.6-.7 1.3-.3 2.7-.4c1.3-.1 1.4.5 2.7.4s1.3-.8 2.6-1c1.3-.1 1.4.5 2.7.4s1.3-.7 2.6-.8 1.4.1 2.7 0 1.3 0 2.7-.1c1.3-.1 1.4.2 2.7.1s1.3-.5 2.6-.6 1.3-.3 2.6-.4 1.4.2 2.7.1 1.3-.7 2.6-.8 1.4.3 2.7.2 1.3-.2 2.7-.3c1.3-.1 1.4.4 2.7.3s1.3-.3 2.6-.4 1.3-.1 2.7-.2c1.3-.1 1.3-.8 2.6-.9s1.4.8 2.7.7 1.3-.8 2.6-.9 1.4.4 2.7.3 1.3-.6 2.6-.7 1.3-.4 2.6-.5 1.4.3 2.7.2 1.3-.5 2.6-.6 1.4.5 2.7.4 1.3-.5 2.6-.6 1.3 0 2.7-.1c1.3-.1 1.3-.3 2.7-.4 1.3-.1 1.3-.2 2.7-.3 1.3-.1 1.4.6 2.7.4 1.3-.1 1.3-.6 2.6-.7s1.3-.3 2.7-.4c1.3-.1 1.3-.2 2.7-.3 1.3-.1 1.3-.2 2.7-.3 1.3-.1 1.3 0 2.7-.1 1.3-.1 1.4.4 2.7.3s1.3-.4 2.6-.5 1.3-.2 2.7-.3c1.3-.1 1.3-.3 2.7-.4 1.3-.1 1.4.3 2.7.1 1.3-.1 1.3-.4 2.6-.6 1.3-.1 1.4.2 2.7.1s1.3-.2 2.7-.3c1.3-.1 1.3-.6 2.6-.7s1.4.7 2.7.6 1.3-.7 2.6-.9c1.3-.1 1.4.2 2.7.1s1.3-.6 2.6-.7 1.4.7 2.8.6 1.3-.6 2.6-.7c.9-.1 1.8-.5 2.6-.8.9-.3 1.8-.4 2.6-.8s1.9-.6 2.6-1.2.8-1.8 1.4-2.5 1.2-1.4 1.6-2.2 1.5-1.4 1.8-2.3-.1-1.9 0-2.8.5-1.9.4-2.8-.3-1.9-.6-2.8-1.3-1.4-1.8-2.2c-1.7-.8-1.7-1.9-2.4-2.6zm-199.9-4.2c-.9 0-1.8.5-2.6.4-.9-.1-1.8 0-2.6-.2-.9-.1-1.8-.3-2.6-.5-.9-.2-1.6-.9-2.4-1.1-.8-.3-1.6-.7-2.4-1s-1.5-.8-2.3-1.2-1.8-.2-2.6-.7c-.8-.4-1.2-1.4-1.9-1.9s-1.9-.4-2.6-.9-1.3-1.2-2-1.7c-.6-.6-.9-1.6-1.5-2.2s-1.8-.7-2.3-1.4c-.6-.7-.6-1.8-1.1-2.5s-1.1-1.4-1.5-2.1-.7-1.6-1.1-2.4-1.2-1.4-1.5-2.2 0-1.8-.3-2.7c-.3-.8-.5-1.6-.7-2.5-.2-.8-1-1.6-1.1-2.4-.1-.9-.2-1.7-.3-2.6s.4-1.7.4-2.6-.6-1.8-.5-2.6c.1-.9.3-1.7.5-2.6.1-.9.4-1.7.6-2.6s0-1.8.3-2.6.7-1.6 1-2.4 1-1.5 1.4-2.3 1-1.4 1.5-2.2c.4-.7 1-1.4 1.5-2.1s.6-1.7 1.2-2.4 1.4-1.1 2-1.7.9-1.6 1.5-2.2 1.6-.8 2.3-1.4c.7-.5 1.5-.8 2.3-1.3.7-.5 1.5-.8 2.3-1.3.8-.4 1.4-1.1 2.2-1.5s1.5-1 2.3-1.3 1.6-.8 2.4-1 1.7-.5 2.6-.6c.8-.2 1.7-.3 2.6-.4s1.7-.3 2.6-.3c.9-.1 1.8.6 2.6.6.9 0 1.8-.7 2.6-.6.9.1 1.7.9 2.5 1 .9.1 1.9-.6 2.7-.4.9.2 1.5 1 2.4 1.3l2.4.9c.8.3 1.5.8 2.3 1.1.8.4 1.7.5 2.5.9s1.3 1.2 2 1.7 1.7.6 2.4 1.2c.7.5 1.2 1.3 1.8 1.9s1.6.9 2.2 1.5 1.4 1.1 1.9 1.8c.6.7.8 1.6 1.3 2.3s.8 1.5 1.3 2.3c.4.7 1.3 1.3 1.7 2.1s.4 1.7.7 2.6c.3.8.8 1.5 1.1 2.4.3.8.3 1.7.5 2.6.2.8.9 1.6 1.1 2.5.1.9-.6 1.8-.5 2.7s0 1.7 0 2.6.4 1.7.3 2.6-.2 1.7-.3 2.6 0 1.8-.2 2.6c-.2.9-.6 1.7-.9 2.5s-1 1.5-1.3 2.3-.4 1.7-.8 2.5-.6 1.6-1.1 2.4c-.4.7-.9 1.5-1.4 2.2s-1.3 1.1-1.9 1.8-.7 1.7-1.3 2.3-1.2 1.3-1.9 1.9c-.6.6-1.5.9-2.2 1.4s-1.4.9-2.2 1.4c-.7.5-1.3 1.3-2 1.7-.8.4-1.7.5-2.5.9s-1.6.7-2.4 1-1.5 1-2.3 1.2-1.8.2-2.6.4-1.7.4-2.6.5-1.7.5-2.6.5c-1.2-.1-2.1-.5-2.9-.5z" fill="#4502C6"/><path d="M15.6.1s0 .1 0 0c-.9.1-1.8.2-2.7.4s-1.7.6-2.5.9c-.9.3-2 0-2.8.5S6 2.9 5.3 3.5c-.6.5-1.1 1.3-1.7 2s-.9 1.6-1.4 2.4S1.1 9.4.8 10.3C.5 11.1.3 12 .2 13c-.2.9-.1 1.8-.1 2.7 0 1.3.3 1.3.3 2.7 0 1.3-.3 1.3-.3 2.7 0 1.3-.5 1.3-.5 2.7 0 1.3.4 1.3.4 2.7 0 1.3.3 1.3.3 2.7 0 1.3-.4 1.3-.4 2.7v2.7c0 1.3-.3 1.3-.3 2.7 0 1.3.8 1.3.8 2.7 0 1.3-.7 1.3-.7 2.7 0 1.3-.2 1.3-.2 2.7 0 1.3.1 1.3.1 2.7 0 1.3.1 1.3.1 2.7 0 1.3.6 1.3.6 2.7 0 1.3.1 1.3.1 2.7 0 1.3-.2 1.3-.2 2.7 0 1.3.1 1.3.1 2.7 0 1.3-.5 1.3-.5 2.7 0 1.3.1 1.3.1 2.7 0 1.3.6 1.3.6 2.7 0 1.3-.1 1.3-.1 2.7 0 1.3-.5 1.3-.5 2.7 0 1.3.2 1.3.2 2.7 0 1.3.2 1.3.2 2.7 0 1.3-.3 1.3-.3 2.7 0 1.3.3 1.3.3 2.7 0 1.3.3 1.3.3 2.7 0 1.3-.7 1.3-.7 2.7 0 1.3-.1 1.3-.1 2.7v2.7c0 1.3.2 1.3.2 2.7 0 1.3.1 1.3.1 2.7 0 1.3-.4 1.3-.4 2.7 0 1.3.5 1.3.5 2.7 0 1.3-.5 1.3-.5 2.7 0 1.3.7 1.3.7 2.7 0 1.3-.4 1.3-.4 2.7 0 1.3.4 1.3.4 2.7 0 1.3-.3 1.3-.3 2.7 0 1.3-.3 1.3-.3 2.7 0 1.3.6 1.3.6 2.7 0 1.3-.4 1.3-.4 2.7 0 1.3-.2 1.3-.2 2.7 0 1.3.6 1.3.6 2.7 0 1.3.2 1.3.2 2.7 0 1.3-.6 1.3-.6 2.7v2.7c0 1.3-.1 1.3-.1 2.7v2.7c0 1.3-.1 1.3-.1 2.7 0 1.3.4 1.3.4 2.7 0 1.3.6 1.3.6 2.7 0 1.3-.1 1.3-.1 2.7 0 1.3-.8 1.3-.8 2.7 0 1.3.5 1.3.5 2.7 0 1.3-.1 1.3-.1 2.7 0 1.3-.3 1.3-.3 2.7 0 1.3.6 1.3.6 2.7 0 1.3-.1 1.3-.1 2.7 0 1.3.2 1.3.2 2.7 0 1.3-.2 1.3-.2 2.7 0 1.3-.2 1.3-.2 2.7 0 1.3.2 1.3.2 2.7 0 1.3-.8 1.3-.8 2.7 0 1.3.7 1.3.7 2.7 0 1.3-.3 1.3-.3 2.7 0 1.3.3 1.3.3 2.7 0 1.3-.1 1.3-.1 2.7 0 1.3.1 1.3.1 2.7 0 1.3-.7 1.3-.7 2.7 0 1.3.1 1.3.1 2.7 0 1.3-.2 1.3-.2 2.7 0 1.3.8 1.3.8 2.7 0 1.3-.7 1.3-.7 2.7 0 1.3.2 1.3.2 2.7 0 1.3-.3 1.3-.3 2.7s-.3 1.5.7 2.4c.9.9 1.1-.2 2.4-.2s1.3.6 2.6.6 1.3-.3 2.6-.3 1.3-.2 2.6-.2 1.3.6 2.6.6 1.3-.7 2.6-.7 1.3.6 2.6.6 1.3.3 2.6.3 1.3-.5 2.6-.5h5.2c1.3 0 1.3.2 2.7.2h2.7c1.3 0 1.3.3 2.6.3s1.3-.5 2.6-.5 1.3.4 2.6.4 1.3-.7 2.6-.7 1.3.5 2.6.5 1.3-.3 2.6-.3 1.3.7 2.6.7 1.3-.1 2.7-.1c1.3 0 1.3.1 2.7.1 1.3 0 1.3-.9 2.7-.9 1.3 0 1.3.8 2.6.8h2.6c1.3 0 1.3-.3 2.6-.3h2.6c1.3 0 1.3-.3 2.6-.3s1.3-.2 2.7-.2h2.7c1.3 0 1.3.1 2.7.1 1.3 0 1.3.1 2.6.1s1.3.2 2.6.2h2.7c1.3 0 1.3.2 2.7.2 1.3 0 1.3.1 2.7.1 1.3 0 1.3-.5 2.7-.5 1.3 0 1.3.1 2.7.1 1.3 0 1.3-.1 2.7-.1 1.3 0 1.3-.1 2.7-.1 1.3 0 1.3.2 2.7.2 1.3 0 1.3.3 2.7.3 1.3 0 1.3-.3 2.7-.3 1.3 0 1.3-.3 2.7-.3 1.3 0 1.3.3 2.7.3 1.3 0 1.3.6 2.7.6 1.3 0 1.3-.8 2.7-.8 1.3 0 1.3.1 2.7.1 1.3 0 1.3.7 2.7.7 1.3 0 1.3-.6 2.6-.6s1.3.5 2.7.5h2.7c1.3 0 1.3.2 2.6.2s1.3-.8 2.7-.8h2.7c1.3 0 1.3.8 2.7.8 1.3 0 1.3.1 2.7.1 1.3 0 1.3-1 2.7-1 1.3 0 1.3.6 2.7.6 1.3 0 1.3-.1 2.7-.1h2.7c1.3 0 1.3.1 2.7.1h2.7c1.3 0 1.3.3 2.7.3h2.7c1.3 0 1.3.1 2.7.1 1.3 0 1.3-1 2.7-1h2.7c1.3 0 1.6 1.3 2.4.2s0-1.2-.3-2.5-.6-1.2-.9-2.5l-.6-2.6c-.3-1.3-.4-1.3-.7-2.6s-.6-1.2-1-2.5c-.3-1.3.3-1.5-.1-2.8-.3-1.3-.8-1.2-1.1-2.5s.2-1.4-.1-2.7-.1-1.4-.4-2.7-.5-1.3-.8-2.6-.5-1.3-.8-2.6-.3-1.3-.7-2.6c-.3-1.3 0-1.4-.4-2.7-.3-1.3-.5-1.3-.9-2.6-.3-1.3-.6-1.2-.9-2.5s-.6-1.2-.9-2.6c-.3-1.3-.2-1.3-.6-2.6-.3-1.3-.2-1.3-.5-2.7-.3-1.3-.6-1.2-1-2.5-.3-1.3.3-1.5 0-2.8l-.6-2.6c-.3-1.3-.9-1.2-1.2-2.5s0-1.4-.4-2.7c-.3-1.3-.5-1.3-.8-2.6s.3-1.5 0-2.8-.7-1.2-1.1-2.5c-.3-1.3-.4-1.3-.7-2.6s.1-1.4-.2-2.7-.7-1.2-1.1-2.5c-.3-1.3-.6-1.2-.9-2.6-.3-1.3.2-1.4-.1-2.7s-.1-1.4-.5-2.7c-.3-1.3-.7-1.2-1-2.5s0-1.4-.3-2.7-1.2-1.1-1.5-2.4.3-1.5-.1-2.8c-.3-1.3-.9-1.2-1.2-2.5l-.6-2.6c-.3-1.3.2-1.4-.1-2.7s-.6-1.2-.9-2.6c-.3-1.3-.6-1.3-.9-2.6s-.4-1.3-.7-2.6-.1-1.4-.5-2.7c-.2-.9-.7-1.7-.9-2.5-.2-.9-.4-1.7-.6-2.6s.1-1.9-.2-2.7c-.3-.9-1-1.6-1.2-2.4-.3-.8-.9-1.6-1.1-2.4-.3-.8-.1-1.8-.4-2.7-.3-.8-.2-1.8-.5-2.7-.3-.8-1.3-1.4-1.6-2.2s-.9-1.6-1.3-2.4-.6-1.7-.9-2.5c-.4-.8-.4-1.8-.7-2.6-.4-.8-.6-1.7-1-2.5s-1.2-1.4-1.6-2.2l-1.2-2.4c-.4-.8-.6-1.7-1.1-2.5-.4-.8-1.6-1.1-2-1.9-.5-.8-.7-1.6-1.2-2.4s-.6-1.7-1.1-2.5c-.5-.7-.8-1.6-1.3-2.3s-1.1-1.4-1.6-2.1-1.7-1-2.2-1.7-.8-1.7-1.3-2.4-.7-1.7-1.3-2.4-1.4-1.2-2-1.9-1.5-1.1-2.1-1.7c-.6-.7-1.1-1.4-1.7-2.1s-1.3-1.2-1.9-1.9-.7-1.8-1.3-2.5c-.6-.6-1.6-.9-2.2-1.6-.6-.6-1.4-1.1-2.1-1.7-.6-.6-.8-1.8-1.4-2.4-.7-.6-1.3-1.2-2-1.8s-1.4-1.1-2.1-1.7-1.5-1-2.2-1.6-1.5-1-2.2-1.5c-.7-.6-1.2-1.3-1.9-1.9-.7-.5-1.6-.9-2.3-1.4s-1.5-1-2.2-1.5-1.2-1.5-1.9-2-1.5-.9-2.3-1.4c-.7-.5-1.5-1-2.2-1.5-.8-.5-1.5-.9-2.3-1.4s-1.9-.4-2.6-.8c-.8-.4-1.4-1.1-2.2-1.6-.8-.4-1.5-1-2.3-1.4s-1.6-.9-2.4-1.3-1.6-.9-2.4-1.3-1.8-.3-2.6-.7-1.7-.5-2.5-.9-1.4-1.3-2.2-1.7c-.8-.3-1.7-.6-2.5-.9s-1.9-.1-2.7-.4-1.6-.8-2.5-1.1C62 7.9 61.3 7.3 60.4 7c-.8-.3-1.8-.1-2.7-.4s-1.6-.8-2.5-1-1.8-.3-2.6-.5c-.9-.2-1.7-.6-2.6-.8s-1.6-.9-2.5-1.1-1.9.3-2.8.1-1.7-.5-2.6-.6c-.9-.2-1.8-.2-2.6-.4-.9-.1-1.8-.3-2.6-.4-.9-.1-1.7-.4-2.6-.5S32.6.9 31.7.8s-1.8.4-2.7.3C28 1 27.2.3 26.3.2s-1.8.1-2.7 0c-.9 0-1.8-.5-2.7-.5s-1.8.7-2.7.6c-.8.1-1.7-.2-2.6-.2z" fill="#FF3904"/><path d="M849.2 306.1c-1.3-.4-1.3-.3-2.6-.3h-2.7c-1.3 0-1.3.2-2.7.2-1.3 0-1.3.1-2.7.1-1.3 0-1.3-.1-2.7-.1-1.3 0-1.3-.2-2.7-.2-1.3 0-1.3-.3-2.7-.3-1.3 0-1.3-.1-2.7-.1-1.3 0-1.3.4-2.7.4-1.3 0-1.3.4-2.7.4-1.3 0-1.3-.5-2.7-.5-1.3 0-1.3.5-2.7.5-1.3 0-1.3.1-2.7.1-1.3 0-1.3-.9-2.7-.9-1.3 0-1.3.7-2.7.7-1.3 0-1.3-.5-2.7-.5-1.3 0-1.3.3-2.7.3-1.3 0-1.3.4-2.7.4-1.3 0-1.3-.4-2.7-.4-1.3 0-1.3-.3-2.7-.3-1.3 0-1.3.4-2.7.4-1.3 0-1.3.2-2.7.2-1.3 0-1.3-.4-2.7-.4-.9 0-1.8.6-2.6.6-.9-.1-1.7-.5-2.6-.6s-1.6-.9-2.4-1.1c-.9-.2-1.7-.4-2.5-.6-.8-.3-1.8 0-2.6-.3s-1.4-1.1-2.2-1.5-1.8-.3-2.6-.7-1.4-1.1-2.1-1.6-1.5-.9-2.2-1.5c-.7-.5-1.1-1.4-1.7-2s-1.8-.6-2.4-1.3c-.6-.6-1.1-1.4-1.7-2.1s-1-1.4-1.5-2.1-.7-1.6-1.1-2.4c-.4-.7-.9-1.5-1.3-2.3s-1.1-1.4-1.4-2.2-.3-1.8-.5-2.6c-.3-.8-1-1.5-1.2-2.4-.2-.8.2-1.8.1-2.7s0-1.7-.1-2.6-.1-1.7-.1-2.6-.5-1.8-.4-2.7.7-1.7.8-2.6.3-1.7.5-2.6-.3-1.9 0-2.8 1.5-1.4 1.8-2.2.5-1.7.9-2.5.8-1.6 1.3-2.3c.5-.8.5-1.8 1-2.6.5-.7 1.6-1 2.2-1.7s.9-1.6 1.6-2.2l1.9-1.9c.7-.6 1.7-.7 2.4-1.2s1-1.6 1.8-2.1 1.6-.8 2.4-1.2 1.7-.6 2.5-1 1.7-.5 2.6-.8c.8-.3 1.6-1 2.4-1.3.9-.2 1.8-.2 2.7-.4s1.8 0 2.7-.1 1.5-.5 2.4-.5c-.8-.4-1.2-.9-2-1.4-.8-.4-1.4-1-2.2-1.5l-2.4-1.2c-.8-.4-1.6-.7-2.4-1.1s-1.7-.6-2.4-1.1c-.8-.4-1.6-.7-2.4-1.1s-1.5-.9-2.3-1.3-1.5-.9-2.3-1.3-1.7-.6-2.5-1-1.4-1.2-2.2-1.6-1.6-.7-2.4-1.1-1.8-.4-2.6-.8-1.5-.9-2.3-1.3-1.7-.6-2.5-.9-1.6-.9-2.4-1.2-1.8-.3-2.6-.6-1.6-.7-2.4-1.1c-.8-.3-1.5-1-2.3-1.3s-1.9.1-2.7-.3c-.8-.3-1.4-1.2-2.3-1.5-.8-.3-1.7-.5-2.5-.8s-1.8-.3-2.6-.6-1.8-.3-2.6-.6-1.5-1.1-2.3-1.4-1.8-.2-2.6-.5-1.5-1.1-2.4-1.3c-.8-.3-1.9.2-2.8-.1s-1.7-.4-2.6-.6-1.5-1.2-2.4-1.4-1.7-.6-2.5-.8c-.9-.2-1.8-.1-2.7-.3s-1.6-.8-2.5-1-1.8-.1-2.7-.3-1.7-.6-2.5-.8c-.9-.2-1.7-.7-2.5-.8-.9-.2-1.9.3-2.7.1-.9-.2-1.7-.4-2.6-.5-.9-.2-1.7-.5-2.6-.7s-1.8-.2-2.6-.4c-.9-.2-1.7-.8-2.5-.9-.9-.1-1.8-.1-2.7-.3-.9-.1-1.8 0-2.7-.2-.9-.1-1.8-.2-2.6-.3-.9-.1-1.8-.2-2.6-.3-.9-.1-1.8-.2-2.6-.2-.9-.1-1.8.1-2.7 0s-1.7-.6-2.6-.7-1.8.3-2.7.3-1.8-.1-2.6-.1c-.9 0-1.8-.2-2.6-.2-1.3 0-1.3.5-2.7.5h-2.7c-1.3 0-1.3-.3-2.7-.3-1.3 0-1.3-.6-2.7-.6-1.3 0-1.3.3-2.7.3-1.3 0-1.3.5-2.7.5-1.3 0-1.3-.1-2.7-.1-1.3 0-1.3-.5-2.7-.5-1.3 0-1.3.6-2.7.6-1.3 0-1.3-.9-2.7-.9-1.3 0-1.3.5-2.7.5-1.3 0-1.3-.2-2.7-.2-1.3 0-1.3.2-2.7.2-1.3 0-1.3.4-2.7.4-1.3 0-1.3-.6-2.7-.6-1.3 0-1.3-.1-2.7-.1-1.3 0-1.3.5-2.7.5-1.3 0-1.3-.2-2.7-.2-1.3 0-1.3.3-2.7.3-1.3 0-1.3.2-2.7.2-1.3 0-1.3-1-2.7-1-1.3 0-1.3.8-2.7.8-1.3 0-1.3-.7-2.7-.7-1.3 0-1.3.5-2.7.5-1.3 0-1.3-.4-2.7-.4-1.3 0-1.3-.1-2.7-.1-1.3 0-1.3.3-2.7.3-1.3 0-1.3.2-2.7.2-1.3 0-1.3-.6-2.7-.6h-2.7c-1.3 0-1.3.3-2.7.3-1.3 0-1.3.6-2.7.6H569c-1.3 0-1.3-.2-2.7-.2-1.3 0-1.3-.3-2.7-.3-1.3 0-1.3-.1-2.7-.1-1.3 0-1.3.2-2.7.2-1.3 0-1.3-.3-2.7-.3-1.3 0-1.3.6-2.7.6h-5.4c-1.4 0-1.3-.4-2.7-.4-1.3 0-1.3.6-2.7.6s-1.3-.7-2.7-.7-1.3.3-2.7.3-1.3.4-2.7.4-1.3-.5-2.7-.5c-1.3 0-1.3.1-2.7.1s-1.3.2-2.7.2c-1.3 0-1.3-.6-2.7-.6-1.3 0-1.3.8-2.7.8-1.3 0-1.3-.7-2.7-.7-1.3 0-1.3.1-2.7.1-1.3 0-1.3.4-2.7.4-1.3 0-1.3-.3-2.7-.3-1.3 0-1.3.3-2.7.3-1.3 0-1.3-.7-2.7-.7-1.3 0-1.3.5-2.7.5h-2.7c-1.3 0-1.3-.3-2.7-.3-1.3 0-1.3-.1-2.7-.1-1.3 0-1.3-.3-2.7-.3-1.3 0-1.3.3-2.7.3-1.3 0-1.3-.3-2.7-.3-1.3 0-1.3.3-2.7.3-1.3 0-1.3.2-2.7.2-1.3 0-1.3.2-2.7.2-1.3 0-1.3-.4-2.7-.4-1.3 0-1.3.3-2.7.3-1.3 0-1.3-.2-2.7-.2-1.3 0-1.3-.2-2.7-.2-1.3 0-1.3.5-2.7.5-1.3 0-1.3.1-2.7.1-1.3 0-1.3-.1-2.7-.1h-2.7c-1.3 0-1.3-.2-2.7-.2s-1.3.2-2.7.2c-1.3 0-1.3-.5-2.7-.5-1.3 0-1.3.6-2.7.6-1.3 0-1.3-.1-2.7-.1-1.3 0-1.3-.1-2.7-.1-1.3 0-1.3-.6-2.7-.6-1.3 0-1.3.7-2.7.7-1.3 0-1.3-.4-2.7-.4-1.3 0-1.3-.3-2.7-.3h-2.7c-1.3 0-1.3.5-2.7.5-1.3 0-1.3.5-2.7.5-1.3 0-1.3-.1-2.7-.1-1.3 0-1.3-.5-2.7-.5-1.3 0-1.3-.1-2.7-.1-1.3 0-1.3.5-2.7.5-1.3 0-1.3.3-2.7.3-1.3 0-1.3-.9-2.7-.9-1.3 0-1.3.3-2.7.3-1.3 0-1.3.2-2.7.2h-2.7c-1.3 0-1.3.2-2.7.2-1.3 0-1.3-.3-2.7-.3h-2.7c-1.3 0-1.3-.1-2.7-.1-1.3 0-1.3.2-2.7.2s-1.3-.5-2.7-.5c-1.3 0-1.3.5-2.7.5-1.3 0-1.3.3-2.7.3-1.3 0-1.3-.3-2.7-.3-1.3 0-1.3-.2-2.7-.2-1.3 0-1.3-.1-2.7-.1-1.3 0-1.3.5-2.7.5h-2.7c-1.3 0-1.3.3-2.7.3-1.3 0-1.3-.6-2.7-.6-1.3 0-1.3.3-2.7.3-1.3 0-1.3.1-2.7.1h-2.7c-1.3 0-1.3-.6-2.7-.6-1.3 0-1.3.7-2.7.7-1.3 0-1.3-.5-2.7-.5h-2.7c-1.3 0-1.3.6-2.7.6-1.3 0-1.3-.5-2.7-.5-1.3 0-1.3-.1-2.7-.1-1.3 0-1.3.5-2.7.5s-1.3-.3-2.7-.3c-1.3 0-1.3.4-2.7.4h-2.7c-1.3 0-1.3-.3-2.7-.3-1.3 0-1.3-.2-2.7-.2-1.3 0-1.3-.2-2.7-.2-1.3 0-1.3.4-2.7.4h-2.7c-1.3 0-1.3-.4-2.7-.4-1.3 0-1.3.5-2.7.5-1.3 0-1.3-.2-2.7-.2-1.3 0-1.3.4-2.7.4-1.3 0-1.3.2-2.7.2-1.3 0-1.3-.2-2.7-.2h-2.7c-1.3 0-1.3-.7-2.7-.7s-1.3.2-2.7.2-1.3.7-2.7.7h-2.7c-1.3 0-1.3-.7-2.7-.7-1.3 0-1.3-.3-2.7-.3-1.3 0-1.3.3-2.7.3-1.3 0-1.3.5-2.7.5-1.3 0-1.3-.6-2.7-.6-1.3 0-1.3-.1-2.7-.1-1.3 0-1.3.9-2.7.9-1.3 0-1.3-.9-2.7-.9-1.3 0-1.3.6-2.7.6-1.3 0-1.3-.2-2.7-.2-1.3 0-1.3-.3-2.7-.3-1.3 0-1.3.2-2.7.2-1.3 0-1.3-.3-2.7-.3-1.3 0-1.3.2-2.7.2-1.3 0-1.3.1-2.7.1h-2.7c-1.3 0-1.3-.4-2.7-.4-1.3 0-1.3.5-2.7.5-1.3 0-1.3-.3-2.7-.3-1.3 0-1.3-.1-2.7-.1-1.3 0-1.3.6-2.7.6-1.3 0-1.3-.3-2.7-.3h-2.7c-1.3 0-1.3.3-2.7.3-1.3 0-1.3-.3-2.7-.3-1.3 0-1.3-.1-2.7-.1-1.3 0-1.3.1-2.7.1h-2.7c-1.3 0-1.3.4-2.7.4-1.3 0-1.3-.3-2.7-.3-1.3 0-1.3-.2-2.7-.2-1.3 0-1.3.5-2.7.5-1.3 0-1.3-.4-2.7-.4-1.3 0-1.3.1-2.7.1-1.3 0-1.3-.1-2.7-.1-1.3 0-1.3.2-2.7.2h-2.7c-1.3 0-1.3.4-2.7.4-1.3 0-1.3-.7-2.7-.7-1.3 0-1.3.2-2.7.2-1.3 0-1.3.2-2.7.2-1.3 0-1.3.2-2.7.2-1.3 0-1.3.2-2.7.2h-5.4c-1.3 0-1.3-.4-2.7-.4-1.3 0-1.3-.4-2.7-.4-1.3 0-1.3.6-2.7.6-1.3 0-1.3-.2-2.7-.2-1.3 0-1.3-.6-2.7-.6H137c-1.3 0-1.3.9-2.7.9-1.3 0-1.3.1-2.7.1-1.3 0-1.3-.7-2.7-.7-1.3 0-1.3-.2-2.7-.2-1.3 0-1.3.4-2.7.4-1.3 0-1.3-.1-2.7-.1-1.3 0-1.3.5-2.7.5-1.3 0-1.3-.8-2.7-.8-1.3 0-1.3.3-2.7.3-1.3 0-1.3-.1-2.7-.1-1.3 0-1.3-.1-2.7-.1-1.3 0-1.3.1-2.7.1-1.3 0-1.3.2-2.7.2-1.3 0-1.3-.5-2.7-.5-1.3 0-1.3.4-2.7.4-1.3 0-1.3-.3-2.7-.3-1.3 0-1.3-.2-2.7-.2-1.3 0-1.3.2-2.7.2-1.3 0-1.3.1-2.7.1-1.3 0-1.3.5-2.7.5-1.3 0-1.3-.3-2.7-.3h-2.7c-1.3 0-1.3-.3-2.7-.3-1.3 0-1.3.1-2.7.1-1.3 0-1.3.4-2.7.4-1.3 0-1.3.2-2.7.2-1.3 0-1.3-.5-2.7-.5-1.3 0-1.3.5-2.7.5h-2.7c-1.3 0-1.3-.6-2.7-.6-1.3 0-1.3.6-2.7.6-1.3 0-1.3-.6-2.7-.6-1.3 0-1.3.4-2.7.4-1.3 0-1.3-.4-2.7-.4-1.3 0-1.3.5-2.7.5-1.3 0-1.3-.6-2.7-.6-1.3 0-1.3.6-2.7.6-1.3 0-1.3-.1-2.7-.1-1.3 0-1.3-.1-2.7-.1-1.3 0-1.3-.5-2.7-.5-1.3 0-1.3.9-2.7.9-1.3 0-1.3-.6-2.7-.6-1.3 0-1.3.4-2.7.4-1.3 0-1.3-.5-2.7-.5h-2.7c-1.3 0-1.3-.2-2.7-.2-1.3 0-1.3.6-2.7.6-1.3 0-1.3-.3-2.7-.3-1.3 0-1.3-.3-2.7-.3-1.3 0-1.3.7-2.7.7-1.3 0-1.3-.1-2.7-.1-1.3 0-1.3-.7-2.7-.7-1.3 0-1.3.6-2.7.6s-1.9-1.3-2.8-.4c-.9 1 .2 1.5.2 2.9 0 1.3-.1 1.3-.1 2.7 0 1.3-.4 1.3-.4 2.7 0 1.3.3 1.3.3 2.7 0 1.3.4 1.3.4 2.7 0 1.3-.3 1.3-.3 2.7 0 1.3.3 1.3.3 2.7 0 1.3-.3 1.3-.3 2.7 0 1.3-.3 1.3-.3 2.7v2.7c0 1.3.3 1.3.3 2.7 0 1.3-.4 1.3-.4 2.7 0 1.3.3 1.3.3 2.7 0 1.3-.1 1.3-.1 2.7 0 1.3.2 1.3.2 2.7v5.4c0 1.3.6 1.3.6 2.7 0 1.3-.9 1.3-.9 2.7 0 1.3.7 1.3.7 2.7 0 1.3-.5 1.3-.5 2.7v2.7c0 1.3.3 1.3.3 2.7 0 1.3-.4 1.3-.4 2.7 0 1.3.3 1.3.3 2.7 0 1.3.2 1.3.2 2.7 0 1.3-.7 1.3-.7 2.7 0 1.3.7 1.3.7 2.7 0 1.3-.3 1.3-.3 2.7 0 1.3-.1 1.3-.1 2.7 0 1.3-.3 1.3-.3 2.7 0 1.3-.2 1.3-.2 2.7 0 1.3.4 1.3.4 2.7 0 1.3.5 1.3.5 2.7 0 1.3-.2 1.3-.2 2.7 0 1.3-.2 1.3-.2 2.7 0 1.3-.5 1.3-.5 2.7 0 1.3.4 1.3.4 2.7 0 1.3-.4 1.3-.4 2.7 0 1.3.5 1.3.5 2.7 0 1.3-.5 1.3-.5 2.7 0 1.3.4 1.3.4 2.7 0 1.3-.5 1.3-.5 2.7v2.7c0 1.3.4 1.3.4 2.7 0 1.3-.3 1.3-.3 2.7s.5 1.3.5 2.7c0 .9-.2 1.8-.1 2.6 0 .9.4 1.7.5 2.6s-.2 1.8-.1 2.7 0 1.8.1 2.7c.2.9.4 1.7.6 2.6s.9 1.6 1.2 2.4c.2.8.7 1.6 1 2.5.3.8.4 1.7.7 2.5s.9 1.5 1.3 2.3.1 1.9.5 2.7 1.4 1.2 1.9 2c.4.8.7 1.6 1.2 2.3s.8 1.6 1.3 2.3 1.1 1.4 1.7 2.1c.5.7 1 1.4 1.6 2.1s1 1.5 1.6 2.1 1.4 1.1 2 1.8c.6.6 1.3 1.3 1.9 1.8.7.6 1.5 1 2.2 1.5s1.3 1.2 2 1.7 1.8.4 2.6.9c.7.5 1 1.7 1.8 2.1s1.8.4 2.5.9c.8.4 1.5 1 2.3 1.4s1.6.6 2.5 1c.8.3 1.8.2 2.6.5s1.5 1.2 2.3 1.4 1.8.1 2.6.3c.9.2 1.7.4 2.6.6s1.7.7 2.5.9c.9.1 1.8-.4 2.7-.3s1.7.6 2.6.6 1.8-.3 2.6-.3c1.3 0 1.3.7 2.7.7 1.3 0 1.3-.9 2.7-.9 1.3 0 1.3.2 2.7.2 1.3 0 1.3.2 2.7.2 1.3 0 1.3.5 2.7.5 1.3 0 1.3-.9 2.7-.9 1.3 0 1.3.3 2.7.3 1.3 0 1.3.2 2.7.2 1.3 0 1.3.1 2.7.1 1.3 0 1.3-.4 2.7-.4 1.3 0 1.3.7 2.7.7 1.3 0 1.3-.8 2.7-.8 1.3 0 1.3.2 2.7.2 1.3 0 1.3-.2 2.7-.2 1.3 0 1.3.8 2.7.8 1.3 0 1.3-.3 2.7-.3 1.3 0 1.3-.2 2.7-.2 1.3 0 1.3.3 2.7.3 1.3 0 1.3-.4 2.7-.4 1.3 0 1.3-.2 2.7-.2 1.3 0 1.3.7 2.7.7 1.3 0 1.3-.8 2.7-.8 1.3 0 1.3.4 2.7.4 1.3 0 1.3.1 2.7.1s1.3-.1 2.7-.1 1.3-.1 2.7-.1c1.3 0 1.3.4 2.7.4 1.3 0 1.3-.1 2.7-.1 1.3 0 1.3-.2 2.7-.2 1.3 0 1.3.3 2.7.3 1.3 0 1.3-.5 2.7-.5h2.7c1.3 0 1.3.4 2.7.4 1.3 0 1.3-.4 2.7-.4 1.3 0 1.3.2 2.7.2 1.3 0 1.3-.1 2.7-.1 1.3 0 1.3.5 2.7.5 1.3 0 1.3-.3 2.7-.3 1.3 0 1.3-.2 2.7-.2 1.3 0 1.3.5 2.7.5 1.3 0 1.3-.7 2.7-.7 1.3 0 1.3.4 2.7.4 1.3 0 1.3.3 2.7.3 1.3 0 1.3-.1 2.7-.1 1.3 0 1.3-.3 2.7-.3 1.3 0 1.3-.2 2.7-.2 1.3 0 1.3.5 2.7.5 1.3 0 1.3-.2 2.7-.2 1.3 0 1.3-.5 2.7-.5 1.3 0 1.3.2 2.7.2 1.3 0 1.3-.3 2.7-.3 1.3 0 1.3.2 2.7.2 1.3 0 1.3.1 2.7.1h2.7c1.3 0 1.3.2 2.7.2h2.7c1.3 0 1.3.3 2.7.3 1.3 0 1.3-.3 2.7-.3 1.3 0 1.3-.6 2.7-.6 1.3 0 1.3.6 2.7.6 1.3 0 1.3.2 2.7.2 1.3 0 1.3-.5 2.7-.5 1.3 0 1.3-.1 2.7-.1 1.3 0 1.3.4 2.7.4 1.3 0 1.3-.2 2.7-.2 1.3 0 1.3-.3 2.7-.3 1.3 0 1.3.3 2.7.3 1.3 0 1.3-.1 2.7-.1 1.3 0 1.3.6 2.7.6 1.3 0 1.3-.1 2.7-.1 1.3 0 1.3-.4 2.7-.4 1.3 0 1.3.3 2.7.3 1.3 0 1.3.3 2.7.3 1.3 0 1.3-.2 2.7-.2 1.3 0 1.3.2 2.7.2 1.3 0 1.3-.2 2.7-.2 1.3 0 1.3.2 2.7.2 1.3 0 1.3-.6 2.7-.6 1.3 0 1.3-.1 2.7-.1 1.3 0 1.3.6 2.7.6 1.3 0 1.3-.1 2.7-.1 1.3 0 1.3-.1 2.7-.1h2.7c1.3 0 1.3.3 2.7.3 1.3 0 1.3.2 2.7.2 1.3 0 1.3-.7 2.7-.7 1.3 0 1.3.2 2.7.2 1.3 0 1.3.5 2.7.5 1.3 0 1.3-.5 2.7-.5 1.3 0 1.3.2 2.7.2 1.3 0 1.3-.5 2.7-.5 1.3 0 1.3.8 2.7.8 1.3 0 1.3-.7 2.7-.7h2.7c1.3 0 1.3-.1 2.7-.1 1.3 0 1.3.8 2.7.8 1.3 0 1.3-.5 2.7-.5 1.3 0 1.3-.2 2.7-.2 1.3 0 1.3.4 2.7.4 1.3 0 1.3-.7 2.7-.7 1.3 0 1.3 1 2.7 1 1.3 0 1.3-.3 2.7-.3 1.3 0 1.3-.3 2.7-.3 1.3 0 1.3.3 2.7.3s1.3-.1 2.7-.1c1.3 0 1.3-.3 2.7-.3 1.3 0 1.3.7 2.7.7 1.3 0 1.3-.3 2.7-.3 1.3 0 1.3.3 2.7.3 1.3 0 1.3-.5 2.7-.5h2.7c1.3 0 1.3.2 2.7.2h2.7c1.3 0 1.3-.2 2.7-.2h2.7c1.3 0 1.3-.2 2.7-.2 1.3 0 1.3.2 2.7.2 1.3 0 1.3-.2 2.7-.2 1.3 0 1.3-.1 2.7-.1 1.3 0 1.3.8 2.7.8 1.3 0 1.3-.4 2.7-.4 1.3 0 1.3-.1 2.7-.1 1.3 0 1.3.4 2.7.4 1.3 0 1.3-.2 2.7-.2 1.3 0 1.3.1 2.7.1 1.3 0 1.3-.4 2.7-.4 1.3 0 1.3-.2 2.7-.2 1.3 0 1.3.7 2.7.7 1.3 0 1.3-.4 2.7-.4 1.3 0 1.3.1 2.7.1 1.3 0 1.3-.3 2.7-.3 1.3 0 1.3.2 2.7.2 1.3 0 1.3.1 2.7.1 1.3 0 1.3-.2 2.7-.2 1.3 0 1.3.2 2.7.2 1.3 0 1.3.3 2.7.3h2.7c1.3 0 1.3-.5 2.7-.5 1.3 0 1.3.1 2.7.1 1.3 0 1.3.3 2.7.3 1.3 0 1.3-.1 2.7-.1 1.3 0 1.3-.4 2.7-.4 1.3 0 1.3-.4 2.7-.4 1.3 0 1.3.5 2.7.5 1.3 0 1.3-.3 2.7-.3 1.3 0 1.3.7 2.7.7 1.3 0 1.3-.5 2.7-.5h2.7c1.3 0 1.3-.2 2.7-.2h2.7c1.3 0 1.3.1 2.7.1 1.3 0 1.3-.1 2.7-.1 1.3 0 1.3.6 2.7.6 1.3 0 1.3.1 2.7.1 1.3 0 1.3-.8 2.7-.8 1.3 0 1.3.5 2.7.5 1.3 0 1.3-.6 2.7-.6 1.3 0 1.3.6 2.7.6 1.3 0 1.3.1 2.7.1 1.3 0 1.3.1 2.7.1 1.3 0 1.3-.8 2.7-.8 1.3 0 1.3.2 2.7.2 1.3 0 1.3.5 2.7.5 1.3 0 1.3.1 2.7.1 1.3 0 1.3-.6 2.7-.6 1.3 0 1.3.4 2.7.4 1.3 0 1.3-.5 2.7-.5 1.3 0 1.3.6 2.7.6 1.3 0 1.3-.1 2.7-.1 1.3 0 1.3-.6 2.7-.6 1.3 0 1.3.1 2.7.1 1.3 0 1.3.7 2.7.7 1.3 0 1.3-.8 2.7-.8h2.7c1.3 0 1.3.8 2.7.8h2.7c1.3 0 1.3-.7 2.7-.7h2.7c1.3 0 1.3.2 2.7.2s1.3.7 2.7.7c1.3 0 1.3-.7 2.7-.7h2.7c1.3 0 1.3.6 2.7.6 1.3 0 1.3-.7 2.7-.7 1.3 0 1.3.7 2.7.7 1.3 0 1.3-.2 2.7-.2h2.7c1.3 0 1.3-.6 2.7-.6 1.3 0 1.3.4 2.7.4h2.7c1.3 0 1.3.5 2.7.5 1.3 0 1.3-.2 2.7-.2 1.3 0 1.3-.4 2.7-.4 1.3 0 1.3.4 2.7.4 1.3 0 1.3.2 2.7.2 1.3 0 1.3-.8 2.7-.8 1.3 0 1.3.5 2.7.5 1.3 0 1.3.4 2.7.4h5.4c1.3 0 1.3-.3 2.7-.3 1.3 0 1.3-.1 2.7-.1 1.3 0 1.3.2 2.7.2 1.3 0 1.3-.1 2.7-.1 1.3 0 1.3.2 2.7.2 1.3 0 1.3-.6 2.7-.6 1.3 0 1.3-.1 2.7-.1 1.3 0 1.3.5 2.7.5h5.4s1.3.2 2.7.2c1.3 0 1.3-.6 2.7-.6 1.3 0 1.3.5 2.7.5 1.3 0 1.3.4 2.7.4 1.3 0 1.3-.6 2.7-.6 1.3 0 1.3.2 2.7.2 1.3 0 1.3.2 2.7.2 1.3 0 1.3-.7 2.7-.7h2.7c1.3 0 1.3.7 2.7.7 1.3 0 1.3-.8 2.7-.8 1.3 0 1.3.4 2.7.4 1.3 0 1.3-.2 2.7-.2 1.3 0 1.3.1 2.7.1h2.7c1.3 0 1.3.5 2.7.5 1.3 0 1.3.3 2.7.3 1.3 0 1.3-.6 2.7-.6 1.3 0 1.3.2 2.7.2 1.3 0 1.3.3 2.7.3 1.3 0 1.3.1 2.7.1h2.7c1.3 0 1.3-.1 2.7-.1 1.3 0 1.3-.4 2.7-.4 1.3 0 1.3.4 2.7.4 1.3 0 1.3-.8 2.7-.8 1.3 0 1.3.2 2.7.2s1.3.1 2.7.1h2.7c1.3 0 1.3-.2 2.7-.2 1.3 0 1.3.2 2.7.2 1.3 0 1.3.2 2.7.2 1.3 0 1.3-.5 2.7-.5 1.3 0 1.3.3 2.7.3 1.3 0 1.3.1 2.7.1 1.3 0 1.3-.4 2.7-.4 1.3 0 1.3.5 2.7.5 1.3 0 1.3-.4 2.7-.4 1.3 0 1.3.5 2.7.5h2.7c1.3 0 1.3-.4 2.7-.4 1.3 0 1.3.1 2.7.1 1.3 0 1.3.3 2.7.3h2.7c1.3 0 1.3-.3 2.7-.3h2.7c1.3 0 1.3-.1 2.7-.1 1.3 0 1.3.3 2.7.3 1.3 0 1.3.4 2.7.4 1.3 0 1.3-.1 2.7-.1 1.3 0 1.3-.7 2.7-.7 1.3 0 1.3.3 2.7.3 1.3 0 1.3.5 2.7.5 1.3 0 1.3-.2 2.7-.2h2.7c1.3 0 1.3-.7 2.7-.7 1.3 0 1.3.5 2.7.5 1.3 0 1.3-.1 2.7-.1 1.3 0 1.3.6 2.7.6 1.3 0 1.3-.7 2.7-.7 1.3 0 1.3.7 2.7.7 1.3 0 1.3-.7 2.7-.7 1.3 0 1.3.5 2.7.5 1.3 0 1.3.2 2.7.2.9 0 1.7-.7 2.6-.7s1.7 0 2.6-.1 1.8 0 2.6-.1c.9-.1 1.6-.8 2.5-.9s1.7-.1 2.6-.3 1.9.4 2.7.2 1.5-1.2 2.3-1.4 1.8 0 2.7-.3c.8-.3 1.7-.4 2.5-.7s1.3-1.5 2.1-1.8c.8-.4 1.6-.7 2.3-1.1.8-.4 1.9-.2 2.6-.6.8-.4 1.2-1.4 1.9-1.9.7-.4 1.6-.8 2.3-1.2.7-.5 1.4-1 2.2-1.5.7-.5 1.9-.4 2.5-1 .7-.5.9-1.7 1.6-2.2.7-.6 1.3-1.1 1.9-1.7s1.2-1.3 1.8-1.9 1.2-1.3 1.8-1.9 1.2-1.2 1.8-1.9 1.2-1.3 1.7-2 1.6-1 2.1-1.7.6-1.7 1.1-2.4 1.4-1.2 1.8-2c.4-.7.4-1.8.8-2.5.4-.8.8-1.5 1.2-2.3s1.3-1.3 1.7-2.1.3-1.8.6-2.6.3-1.7.6-2.6c.3-.8 1.1-1.5 1.3-2.3s.4-1.7.6-2.6c.2-.8.4-1.7.6-2.6s.4-1.7.6-2.6c.1-.9 0-1.8.1-2.6.1-.9-.2-1.8-.1-2.6.1-.9 1-1.7 1-2.6s-.1-1.8-.1-2.6c0-.9.1-1.9 0-2.8 0-.9-.8-1.8-.9-2.7s.2-1.9.1-2.8c1-2.1.5-2.7.3-3.6zm-620.8.1c-.9 0-1.7-.9-2.6-1s-1.7.1-2.6-.1c-.9-.1-1.7-.2-2.6-.4s-1.8-.1-2.6-.3c-.8-.3-1.6-.7-2.4-1s-1.4-1-2.2-1.4-1.9 0-2.7-.5c-.8-.4-1.1-1.5-1.8-2s-1.6-.7-2.3-1.2-1.5-1-2.1-1.6-1.5-1-2.1-1.7c-.6-.6-.9-1.6-1.4-2.2-.6-.7-1.4-1.1-1.9-1.9-.5-.7-.9-1.5-1.3-2.3-.4-.7-.9-1.5-1.3-2.3s-.5-1.7-.8-2.5-.9-1.5-1.1-2.4c-.3-.8-.6-1.7-.8-2.5s-.6-1.7-.7-2.6.4-1.8.3-2.7-.6-1.7-.6-2.6 0-1.8.1-2.6c.1-.9.7-1.7.9-2.5.1-.9.5-1.7.7-2.5.2-.9.1-1.8.4-2.6s.3-1.8.6-2.6 1.3-1.3 1.7-2.1.3-1.8.8-2.5c.4-.7.8-1.6 1.3-2.3s1.1-1.4 1.7-2c.6-.7 1.2-1.3 1.8-1.9s1.3-1.2 2-1.7c.6-.6 1.1-1.4 1.8-2 .7-.5 1.6-.8 2.3-1.3s1.5-.9 2.3-1.3 1.4-1.1 2.2-1.4c.8-.4 1.7-.4 2.6-.7.8-.3 1.6-.6 2.5-.9.8-.2 1.8-.1 2.6-.2.8-.2 1.6-1 2.4-1.1.9-.1 1.7-.3 2.6-.4s1.8-.2 2.6-.2c.9 0 1.8.1 2.6.2.9.1 1.7.8 2.5 1 .9.1 1.7.1 2.6.3s1.6.7 2.4.9c.8.3 1.7.3 2.5.6s1.7.4 2.5.7c.8.4 1.5.9 2.2 1.4.8.4 1.8.4 2.6.8.7.5 1.3 1.3 1.9 1.8.7.5 1.5 1 2.1 1.6s1.3 1.2 1.9 1.8 1.2 1.3 1.8 1.9c.6.7 1.2 1.3 1.7 2s.2 1.9.7 2.7c.4.7 1.2 1.3 1.6 2.1s.6 1.6 1 2.4c.3.8.4 1.7.7 2.5s.7 1.6.9 2.4 1.1 1.6 1.2 2.4c.1.9-.6 1.8-.6 2.7.1.9.3 1.7.3 2.6s-.3 1.7-.4 2.6 0 1.7-.1 2.6 0 1.8-.2 2.6c-.2.9-.2 1.8-.5 2.6s-.5 1.7-.9 2.5c-.3.8-1.3 1.3-1.7 2.1s-.1 2-.5 2.7-1.4 1.2-1.9 1.9-1.2 1.3-1.7 1.9c-.6.7-.8 1.6-1.4 2.2s-1.5 1-2.1 1.6-1.3 1.1-2 1.6-1.2 1.3-1.9 1.8-1.6.7-2.4 1.1-1.5 1-2.2 1.3c-.8.4-1.8.3-2.6.6l-2.4.9c-.8.2-1.5 1-2.4 1.2-.8.2-1.7.2-2.6.3s-1.7.1-2.6.2c-1.2.3-2 .9-2.9.9zm281-69.3c.9 0 1.8-.7 2.6-.7.9.1 1.8.1 2.6.3.9.1 1.7.7 2.5.9.9.2 1.7.3 2.6.5.8.3 1.8.3 2.6.6s1.5.9 2.3 1.3 1.6.7 2.4 1.1 1.2 1.4 1.9 1.9l2.1 1.5c.7.5 1.3 1.2 1.9 1.8s1.3 1.1 1.9 1.7 1.1 1.3 1.7 2 1.3 1.2 1.8 1.9 1 1.4 1.5 2.2c.4.7.7 1.6 1.1 2.4s.8 1.5 1.2 2.3c.3.8.8 1.6 1.1 2.4s0 1.8.2 2.6 1 1.6 1.2 2.4c.1.9.2 1.8.3 2.6.1.9-.5 1.8-.5 2.6 0 .9.6 1.8.5 2.7s-.7 1.7-.8 2.6-.7 1.6-.9 2.5-.5 1.7-.7 2.5c-.3.8 0 1.8-.3 2.7-.3.8-.5 1.7-.9 2.5s-1.2 1.4-1.6 2.1-.5 1.8-1 2.5-1.4 1.1-2 1.8-1.1 1.4-1.7 2-1 1.5-1.7 2.1c-.6.6-1.8.5-2.5 1.1-.7.5-1.3 1.2-2 1.7s-1.6.6-2.4 1.1c-.8.4-1.2 1.5-2 1.9s-1.9.1-2.7.4-1.5 1-2.3 1.2-1.7.5-2.5.6c-.8.2-1.7.4-2.6.5s-1.7 0-2.6.1-1.7.6-2.6.6-1.7-.7-2.6-.7c-.9-.1-1.8.3-2.6.2-.9-.1-1.6-1-2.4-1.2-.9-.2-1.7-.4-2.5-.6-.8-.3-1.8-.1-2.6-.4s-1.5-1-2.2-1.3c-.8-.4-1.8-.4-2.5-.8-.8-.4-1.5-.9-2.2-1.4s-1.5-1-2.1-1.5c-.7-.5-1.2-1.2-1.9-1.8-.6-.6-1-1.4-1.7-2-.6-.6-1.4-1.1-1.9-1.7-.6-.7-1.6-1-2.1-1.7s-.8-1.6-1.3-2.3c-.4-.7-1-1.4-1.4-2.2s-.4-1.7-.8-2.5c-.3-.8-.5-1.7-.7-2.5-.3-.8-.5-1.7-.7-2.5s0-1.7-.1-2.6-1.1-1.6-1.1-2.5c-.1-.9.4-1.8.4-2.6 0-.9-.6-1.8-.5-2.6.1-.9.8-1.7.9-2.5.1-.9.5-1.7.7-2.5s-.2-1.9.1-2.7 1.3-1.4 1.7-2.2c.3-.8-.1-1.9.3-2.7s.8-1.6 1.3-2.3c.4-.7 1.2-1.3 1.7-2s.7-1.7 1.2-2.3c.5-.7 1.7-.8 2.3-1.4s1.1-1.4 1.7-2 1.3-1.1 2-1.6 1.2-1.4 1.9-1.8c.7-.5 1.5-.9 2.3-1.3s1.8-.4 2.5-.7c.8-.4 1.5-.7 2.4-1 .8-.3 1.6-.7 2.4-1s1.5-1 2.4-1.2c.8-.2 1.8.4 2.7.3s1.8-.5 2.7-.6c.8-.9 1.7-.8 2.6-.8zm-141.2-.7c.9 0 1.7.5 2.6.6s1.7.4 2.6.5 1.9-.5 2.7-.3c.9.2 1.5 1.1 2.3 1.4s1.8.1 2.6.4 1.7.5 2.5.8c.8.4 1.5 1 2.2 1.4.8.4 1.6.8 2.3 1.3s1.6.9 2.2 1.4c.7.5 1 1.5 1.7 2.1.6.6 1.1 1.3 1.7 2 .6.6 1.4 1.1 2 1.7.6.7 1.1 1.3 1.6 2.1.5.7 1.2 1.3 1.6 2.1.4.7.2 1.8.6 2.6s1 1.4 1.3 2.3c.3.8 1.2 1.4 1.5 2.3.3.8 0 1.8.2 2.7.2.8.4 1.7.5 2.5.1.9.7 1.7.7 2.6.1.9-.1 1.8-.1 2.6 0 .9-.3 1.7-.4 2.6s.2 1.8.1 2.6c-.1.9-.2 1.8-.4 2.6-.2.9-.7 1.6-1 2.5-.3.8-.8 1.6-1.1 2.4s-.2 1.8-.6 2.6-1.1 1.4-1.6 2.2c-.4.7-.8 1.6-1.3 2.3s-1.3 1.2-1.9 1.9-1.1 1.3-1.7 1.9-1.3 1.2-1.9 1.8-1.1 1.4-1.8 1.9-1.5 1-2.2 1.4c-.7.5-1.5.9-2.3 1.3s-1.6.8-2.4 1.1c-.8.4-1.7.4-2.5.7s-1.4 1.4-2.2 1.7c-.8.2-1.9-.2-2.7 0s-1.6.6-2.5.7-1.7.5-2.6.5c-.9.1-1.8.1-2.6.1-.9 0-1.7-.6-2.6-.6-.9-.1-1.7-.1-2.6-.3-.9-.1-1.7-.3-2.6-.5s-1.7-.4-2.5-.6c-.8-.3-1.5-.8-2.3-1.1s-1.8-.1-2.6-.5-1.7-.5-2.5-.9-1.3-1.3-2-1.8-1.3-1.2-2-1.7-1.3-1.1-2-1.7c-.6-.6-1.8-.7-2.4-1.3s-.9-1.5-1.5-2.2-.9-1.5-1.4-2.2-1.1-1.4-1.5-2.1-1.1-1.4-1.5-2.2-.6-1.7-.9-2.5-.4-1.7-.7-2.5-.5-1.6-.7-2.5c-.2-.8-.7-1.6-.8-2.5s-.2-1.7-.3-2.6.4-1.7.4-2.6-.2-1.7-.1-2.6.4-1.7.6-2.5c.1-.9.2-1.7.4-2.5.2-.9-.2-1.9.1-2.7s.6-1.6 1-2.5c.3-.8.5-1.7.9-2.5s1.3-1.3 1.7-2 1.2-1.3 1.7-2 .4-1.8 1-2.5 1.7-.8 2.3-1.5c.6-.6.9-1.5 1.6-2.1.6-.6 1.6-.8 2.3-1.3s1.3-1.1 2-1.6 1.3-1.1 2.1-1.6c.8-.4 1.4-1.1 2.2-1.5s1.8-.1 2.6-.4 1.5-.9 2.4-1.1c.8-.2 1.6-.8 2.5-1 .8-.2 1.7-.4 2.6-.5s1.8.3 2.7.3c.9-.2 1.8-.9 2.7-.9zM648.8 306c-.9 0-1.7-.4-2.6-.5s-1.8.3-2.7.2-1.8-.1-2.6-.3c-.9-.2-1.7-.6-2.5-.9s-1.5-1.1-2.3-1.4-1.7-.4-2.5-.8-1.6-.7-2.4-1.1-1.5-.9-2.2-1.4-1.4-1.1-2.1-1.6-1.3-1.1-2-1.7c-.6-.6-1.6-.8-2.2-1.5-.6-.6-.7-1.7-1.3-2.4s-1.5-1-2-1.7-.7-1.6-1.1-2.4c-.4-.7-.9-1.5-1.3-2.2-.4-.8-.5-1.7-.8-2.5s-.8-1.5-1-2.4c-.3-.8-1-1.5-1.2-2.4-.2-.8-.3-1.7-.5-2.6-.1-.9.1-1.8.1-2.6-.1-.9.3-1.7.3-2.6s-.2-1.7-.1-2.6-.2-1.8-.1-2.6c.1-.9 0-1.8.1-2.7.2-.9 1.1-1.5 1.4-2.3s.5-1.6.9-2.5c.3-.8.7-1.6 1.1-2.3.4-.8.6-1.6 1-2.4.4-.7 1.3-1.2 1.8-1.9l1.5-2.1c.6-.7 1-1.4 1.6-2s1-1.5 1.6-2.1 1.4-1 2.1-1.5 1.2-1.4 1.9-1.9 1.7-.6 2.4-1.1c.8-.4 1.7-.4 2.5-.8s1.3-1.5 2.1-1.8 1.7-.5 2.5-.7 1.8.1 2.7-.1c.8-.2 1.6-.9 2.5-1s1.7-.3 2.6-.4 1.8.7 2.6.7c.9 0 1.7-.3 2.6-.2s1.7.2 2.6.3 1.7.5 2.5.7c.9.2 1.7.3 2.5.6s1.8.1 2.6.4 1.5.9 2.3 1.3 1.8.3 2.6.7 1.6.8 2.3 1.3 1 1.6 1.7 2.1 1.7.7 2.3 1.3 1.2 1.3 1.8 1.9 1.3 1.2 1.9 1.8c.6.7 1.1 1.4 1.6 2.1s.5 1.8.9 2.5 1.5 1.1 1.9 1.9 0 1.9.3 2.7l.9 2.4c.3.8.5 1.6.7 2.5.2.8 1.1 1.6 1.2 2.4.1.9.2 1.8.2 2.6.1.9 0 1.8 0 2.6 0 .9-.5 1.7-.6 2.6s0 1.7-.2 2.6c-.1.9-.4 1.7-.6 2.5-.2.9-.1 1.8-.4 2.6s-.8 1.5-1.2 2.3c-.3.8-.5 1.7-.9 2.4-.4.8-.9 1.5-1.4 2.2-.4.7-.6 1.7-1.1 2.4s-1.2 1.2-1.8 1.9-.8 1.6-1.4 2.3c-.6.6-1.6.8-2.3 1.4-.6.6-.9 1.6-1.6 2.1s-1.6.8-2.3 1.3-1.6.8-2.3 1.2c-.8.4-1.4 1-2.2 1.4s-1.6.7-2.4 1-1.7.3-2.6.6c-.8.2-1.7.4-2.5.5-.8.2-1.7.5-2.5.6-.9.1-1.7.8-2.5.8-.6.2-1.5.3-2.4.3z" fill="#4502C6"/><path d="M850.3 325.1c-.1.9-.5 1.8-.6 2.6-.1.9-.4 1.7-.6 2.5-.2.9-.1 1.8-.3 2.6s-.1 1.8-.3 2.6-.4 1.7-.7 2.5-1.2 1.4-1.5 2.3c-.3.8-.8 1.6-1.1 2.4-.4.8-.2 1.8-.6 2.6s-1.4 1.2-1.8 2-.2 1.9-.7 2.6c-.4.7-.8 1.6-1.3 2.3s-1.6 1-2.1 1.7-1.1 1.3-1.6 2-.5 1.8-1.1 2.5-1.1 1.4-1.7 2-1.3 1.2-1.9 1.8-1.5.9-2.2 1.5c-.6.6-1.1 1.4-1.8 2s-1.2 1.3-1.9 1.8-1.8.5-2.5 1-1.3 1.1-2.1 1.6c-.7.5-1.6.7-2.3 1.2-.7.4-1.3 1.2-2.1 1.6s-1.5 1-2.3 1.3c-.8.4-1.6.7-2.4 1s-1.5.9-2.3 1.2-1.6.8-2.4 1.1-1.8 0-2.7.2c-.8.2-1.6.8-2.4 1s-1.8-.1-2.7 0c-.9.2-1.6 1.2-2.4 1.3-.9.1-1.7.4-2.6.5s-1.8-.3-2.7-.2-1.7.6-2.6.6-1.8-.7-2.6-.7h-2.7c-1.3 0-1.3.6-2.7.6-1.3 0-1.3-.7-2.7-.7s-1.3.1-2.7.1c-1.3 0-1.3-.1-2.7-.1-1.3 0-1.3.5-2.7.5-1.3 0-1.3.3-2.7.3-1.3 0-1.3-.1-2.7-.1-1.3 0-1.3-.2-2.7-.2-1.3 0-1.3-.1-2.7-.1-1.3 0-1.3.1-2.7.1-1.3 0-1.3.3-2.7.3-1.3 0-1.3-1-2.7-1-1.3 0-1.3 1-2.7 1-1.3 0-1.3-.7-2.7-.7-1.3 0-1.3.1-2.7.1-1.3 0-1.3-.2-2.7-.2-1.3 0-1.3-.2-2.7-.2s-1.3.4-2.7.4c-1.3 0-1.3-.5-2.7-.5-1.3 0-1.3.5-2.7.5-1.3 0-1.3.2-2.7.2-1.3 0-1.3.1-2.7.1s-1.3-.6-2.7-.6c-1.3 0-1.3-.2-2.7-.2h-2.7c-1.4 0-1.3.6-2.7.6-1.3 0-1.3-.4-2.7-.4h-2.7c-1.4 0-1.3-.3-2.7-.3-1.3 0-1.3.7-2.7.7s-1.3-.5-2.7-.5c-1.3 0-1.3.5-2.7.5-1.3 0-1.3-.5-2.7-.5h-2.7c-1.3 0-1.3.2-2.7.2-1.3 0-1.3-.3-2.7-.3-1.3 0-1.3.4-2.7.4-1.3 0-1.3-.2-2.7-.2-1.3 0-1.3.4-2.7.4h-2.7c-1.3 0-1.3-.5-2.7-.5-1.3 0-1.3-.1-2.7-.1h-2.7c-1.3 0-1.3.2-2.7.2-1.3 0-1.3.5-2.7.5-1.3 0-1.3-.8-2.7-.8-1.3 0-1.3.6-2.7.6-1.3 0-1.3-.3-2.7-.3-1.3 0-1.3.2-2.7.2-1.3 0-1.3-.4-2.7-.4-1.3 0-1.3-.1-2.7-.1-1.3 0-1.3.2-2.7.2-1.3 0-1.3-.1-2.7-.1-1.3 0-1.3.6-2.7.6h-2.7c-1.3 0-1.3-.6-2.7-.6-1.3 0-1.3.2-2.7.2h-2.7c-1.3 0-1.3.4-2.7.4-1.3 0-1.3-.2-2.7-.2-1.3 0-1.3.2-2.7.2-1.3 0-1.3-.6-2.7-.6-1.3 0-1.3.6-2.7.6-1.3 0-1.3-.3-2.7-.3s-1.3.3-2.7.3-1.3-.6-2.7-.6-1.3.6-2.7.6-1.3-.1-2.7-.1c-1.3 0-1.3-.3-2.7-.3-1.3 0-1.3-.4-2.7-.4s-1.3 1-2.7 1c-1.3 0-1.3-.3-2.7-.3-1.3 0-1.3-.4-2.7-.4-1.3 0-1.3.6-2.7.6-1.3 0-1.3-.1-2.7-.1-1.3 0-1.3-.6-2.7-.6-1.3 0-1.3.8-2.7.8-1.3 0-1.3-.9-2.7-.9-1.3 0-1.3.6-2.7.6-1.3 0-1.3-.6-2.7-.6-1.3 0-1.3.5-2.7.5-1.3 0-1.3-.5-2.7-.5-1.3 0-1.3.5-2.7.5-1.3 0-1.3-.1-2.7-.1-1.3 0-1.3-.5-2.7-.5-1.3 0-1.3.1-2.7.1-1.3 0-1.3.7-2.7.7h-2.7c-1.3 0-1.3-.3-2.7-.3-1.3 0-1.3.2-2.7.2-1.3 0-1.3-.6-2.7-.6h-2.7c-1.3 0-1.3.5-2.7.5-1.3 0-1.3-.5-2.7-.5-1.3 0-1.3.2-2.7.2-1.3 0-1.3-.3-2.7-.3-1.3 0-1.3.2-2.7.2-1.3 0-1.3.2-2.7.2h-2.7c-1.4 0-1.3.1-2.7.1-1.3 0-1.3.1-2.7.1s-1.3.3-2.7.3c-1.3 0-1.3-.1-2.7-.1s-1.3-.4-2.7-.4c-1.3 0-1.3-.2-2.7-.2-1.3 0-1.3.5-2.7.5-1.3 0-1.3-.2-2.7-.2-1.3 0-1.3-.1-2.7-.1-1.3 0-1.3.4-2.7.4-1.3 0-1.3.1-2.7.1-1.3 0-1.3-.9-2.7-.9-1.3 0-1.3.9-2.7.9h-2.7c-1.3 0-1.3-.1-2.7-.1-1.3 0-1.3-.7-2.7-.7-1.3 0-1.3-.2-2.7-.2-1.3 0-1.3.8-2.7.8-1.3 0-1.3-.5-2.7-.5-1.3 0-1.3.1-2.7.1-1.3 0-1.3-.2-2.7-.2-1.3 0-1.3.2-2.7.2-1.3 0-1.3-.1-2.7-.1-1.3 0-1.3-.2-2.7-.2-1.3 0-1.3.6-2.7.6-1.3 0-1.3.1-2.7.1-1.3 0-1.3-.5-2.7-.5-1.3 0-1.3-.4-2.7-.4-1.3 0-1.3.1-2.7.1s-1.3.4-2.7.4c-1.3 0-1.3.2-2.7.2-1.3 0-1.3-.5-2.7-.5-1.3 0-1.3.1-2.7.1h-5.4c-1.3 0-1.3.1-2.7.1-1.3 0-1.3-.3-2.7-.3-1.3 0-1.3.7-2.7.7-1.3 0-1.3-.3-2.7-.3-1.3 0-1.3.2-2.7.2-1.3 0-1.3-.6-2.7-.6-1.3 0-1.3-.1-2.7-.1-1.3 0-1.3.9-2.7.9-1.3 0-1.3-.1-2.7-.1-1.3 0-1.3-.7-2.7-.7-1.3 0-1.3-.2-2.7-.2-1.3 0-1.3.8-2.7.8-1.3 0-1.3.1-2.7.1-1.3 0-1.3-.5-2.7-.5h-2.7c-1.4 0-1.3.1-2.7.1-1.3 0-1.3-.3-2.7-.3-1.3 0-1.3.4-2.7.4-1.3 0-1.3.3-2.7.3-1.3 0-1.3-.8-2.7-.8-1.3 0-1.3.5-2.7.5-1.3 0-1.3.2-2.7.2-1.3 0-1.3-.4-2.7-.4-1.3 0-1.3.3-2.7.3h-2.7c-1.3 0-1.3-.1-2.7-.1-1.3 0-1.3-.2-2.7-.2-1.3 0-1.3-.3-2.7-.3-1.3 0-1.3.4-2.7.4-1.3 0-1.3.2-2.7.2-1.3 0-1.3-.1-2.7-.1h-2.7c-1.3 0-1.3-.3-2.7-.3-1.3 0-1.3.1-2.7.1-1.3 0-1.3-.1-2.7-.1-1.3 0-1.3.6-2.7.6-1.3 0-1.3-.6-2.7-.6h-2.7c-1.3 0-1.3.6-2.7.6-1.3 0-1.3-.5-2.7-.5-1.3 0-1.3-.3-2.7-.3-1.3 0-1.3.3-2.7.3-1.3 0-1.3-.2-2.7-.2-1.3 0-1.3.7-2.7.7s-1.3-.5-2.7-.5c-1.3 0-1.3-.1-2.7-.1-1.3 0-1.3.5-2.7.5-1.3 0-1.3-.7-2.7-.7-1.3 0-1.3-.1-2.7-.1-1.3 0-1.3.7-2.7.7-1.3 0-1.3-.8-2.7-.8-1.3 0-1.3.8-2.7.8-1.3 0-1.3-.6-2.7-.6-1.3 0-1.3.4-2.7.4h-5.4c-1.3 0-1.3-.5-2.7-.5-1.3 0-1.3.3-2.7.3-1.3 0-1.3.3-2.7.3-1.3 0-1.3-.8-2.7-.8-1.3 0-1.3-.1-2.7-.1h-2.7c-1.3 0-1.3-.1-2.7-.1-1.3 0-1.3.3-2.7.3-1.3 0-1.3.5-2.7.5-1.3 0-1.3-.5-2.7-.5-1.3 0-1.3.7-2.7.7-1.3 0-1.3-.2-2.7-.2-1.3 0-1.3-.1-2.7-.1-1.3 0-1.3.1-2.7.1-1.3 0-1.3-.3-2.7-.3-1.3 0-1.3.2-2.7.2-1.3 0-1.3-.1-2.7-.1-1.3 0-1.3-.1-2.7-.1-1.3 0-1.3-.2-2.7-.2-1.3 0-1.3.4-2.7.4H215c-1.3 0-1.3-.6-2.7-.6-1.3 0-1.3.6-2.7.6-1.3 0-1.3.3-2.7.3-1.3 0-1.3-.9-2.7-.9-1.3 0-1.3.2-2.7.2-1.3 0-1.3.3-2.7.3-1.3 0-1.3-.6-2.7-.6-1.3 0-1.3.3-2.7.3-1.3 0-1.3.5-2.7.5-1.3 0-1.3-.3-2.7-.3-1.3 0-1.3.3-2.7.3-1.3 0-1.3.1-2.7.1-1.3 0-1.3-.8-2.7-.8-1.3 0-1.3.8-2.7.8-1.3 0-1.3-.2-2.7-.2-1.3 0-1.3-.1-2.7-.1-1.3 0-1.3-.5-2.7-.5-1.3 0-1.3.2-2.7.2-1.3 0-1.3-.2-2.7-.2h-5.4c-1.3 0-1.3.2-2.7.2-1.3 0-1.3.5-2.7.5-1.3 0-1.3-.1-2.7-.1-1.3 0-1.3-.4-2.7-.4-1.3 0-1.3.2-2.7.2-1.3 0-1.3-.1-2.7-.1-1.3 0-1.3.1-2.7.1-1.3 0-1.3.4-2.7.4-1.3 0-1.3-.4-2.7-.4h-2.7c-1.3 0-1.3.1-2.7.1-1.3 0-1.3-.5-2.7-.5-1.3 0-1.3.1-2.7.1-1.3 0-1.3.4-2.7.4-1.3 0-1.3.3-2.7.3-1.3 0-1.3-.5-2.7-.5-1.3 0-1.3-.1-2.7-.1-1.3 0-1.3.5-2.7.5-1.3 0-1.3-.2-2.7-.2-1.3 0-1.3-.2-2.7-.2-1.3 0-1.3.6-2.7.6h-2.7c-1.3 0-1.3-.4-2.7-.4-1.3 0-1.3.4-2.7.4-1.3 0-1.3-.3-2.7-.3-1.3 0-1.3-.1-2.7-.1-1.3 0-1.3.1-2.7.1h-2.7c-1.3 0-1.3-.3-2.7-.3-1.3 0-1.3.3-2.7.3-1.3 0-1.3.1-2.7.1-1.3 0-1.3-.1-2.7-.1-1.3 0-1.3-.3-2.7-.3h-2.7c-1.3 0-1.3.3-2.7.3-1.3 0-1.3-.3-2.7-.3-1.3 0-1.3.2-2.7.2-1.3 0-1.3-.3-2.7-.3-1.3 0-1.3.4-2.7.4-1.3 0-1.3-.3-2.7-.3s-1.3-.4-2.7-.4c-.9 0-1.8.1-2.6.1-.9 0-1.8-.1-2.6-.1-.9-.1-1.8.1-2.7 0s-1.8-.2-2.6-.3c-.9-.2-1.8-.2-2.6-.4-.9-.2-1.6-.9-2.4-1.2-.8-.2-1.6-.7-2.5-1-.8-.3-1.6-.8-2.4-1.1s-1.8-.2-2.6-.6-1.8-.4-2.6-.8-1.2-1.4-2-1.9c-.8-.4-1.8-.4-2.6-.9-.7-.5-1.2-1.4-1.9-1.9s-1.3-1.2-2-1.7-1.7-.7-2.4-1.3-1.1-1.4-1.7-2-1.3-1.2-1.9-1.8-1.5-1-2.1-1.7-.6-1.8-1.1-2.5-1.4-1.1-1.9-1.9c-.5-.7-.6-1.7-1.1-2.4s-.9-1.5-1.4-2.2c-.4-.8-1-1.4-1.4-2.2s-.9-1.5-1.2-2.3c-.4-.8-1-1.5-1.3-2.3s-.8-1.6-1.1-2.4-.6-1.7-.8-2.5.1-1.8-.1-2.7-.4-1.7-.6-2.6-.5-1.7-.6-2.6-.1-1.8-.2-2.6c-.1-.9-.5-1.7-.5-2.6s.2-1.8.2-2.6l-.1.1c1.3 0 1.3-.3 2.7-.3 1.3 0 1.3.6 2.7.6 1.3 0 1.3-.9 2.7-.9 1.3 0 1.3.3 2.7.3 1.3 0 1.3.5 2.7.5 1.3 0 1.3-.1 2.7-.1 1.3 0 1.3-.6 2.7-.6 1.3 0 1.3.5 2.7.5 1.3 0 1.3-.3 2.7-.3 1.3 0 1.3.5 2.7.5 1.3 0 1.3-.4 2.7-.4 1.3 0 1.3-.4 2.7-.4 1.3 0 1.3.7 2.7.7 1.3 0 1.3-.1 2.7-.1 1.3 0 1.3-.6 2.7-.6 1.3 0 1.3.6 2.7.6 1.3 0 1.3-.5 2.7-.5h2.7c1.3 0 1.3.1 2.7.1 1.3 0 1.3-.1 2.7-.1 1.3 0 1.3.2 2.7.2 1.3 0 1.3-.2 2.7-.2 1.3 0 1.3.5 2.7.5 1.3 0 1.3-.3 2.7-.3 1.3 0 1.3-.4 2.7-.4 1.3 0 1.3.4 2.7.4 1.3 0 1.3.1 2.7.1 1.3 0 1.3-.4 2.7-.4 1.3 0 1.3.6 2.7.6 1.3 0 1.3-.2 2.7-.2 1.3 0 1.3-.1 2.7-.1 1.3 0 1.3.2 2.7.2 1.3 0 1.3-.3 2.7-.3 1.3 0 1.3.4 2.7.4h2.7c1.3 0 1.3-.6 2.7-.6 1.3 0 1.3.5 2.7.5 1.3 0 1.3-.4 2.7-.4 1.3 0 1.3-.1 2.7-.1 1.3 0 1.3-.2 2.7-.2 1.3 0 1.3.5 2.7.5 1.3 0 1.3.1 2.7.1 1.3 0 1.3.1 2.7.1 1.3 0 1.3-.7 2.7-.7 1.3 0 1.3 1 2.7 1 1.3 0 1.3-.1 2.7-.1 1.3 0 1.3.1 2.7.1 1.3 0 1.3-.5 2.7-.5h8.1c1.3 0 1.3.4 2.7.4 1.3 0 1.3-.4 2.7-.4 1.3 0 1.3.3 2.7.3 1.3 0 1.3-.3 2.7-.3 1.3 0 1.3-.3 2.7-.3 1.3 0 1.3.7 2.7.7 1.3 0 1.3-.4 2.7-.4 1.3 0 1.3-.5 2.7-.5 1.3 0 1.3.1 2.7.1 1.3 0 1.3-.1 2.7-.1 1.3 0 1.3.8 2.7.8 1.3 0 1.3.2 2.7.2 1.3 0 1.3-.6 2.7-.6 1.3 0 1.3.7 2.7.7 1.3 0 1.3-.3 2.7-.3 1.3 0 1.3-.4 2.7-.4 1.3 0 1.3.2 2.7.2s1.3.1 2.7.1 1.3.4 2.7.4c1.3 0 1.3-.9 2.7-.9s1.3.1 2.7.1c1.3 0 1.3.2 2.7.2 1.3 0 1.3-.4 2.7-.4 1.3 0 1.3.5 2.7.5 1.3 0 1.3-.1 2.7-.1 1.3 0 1.3-.2 2.7-.2h2.7c1.3 0 1.3.1 2.7.1h2.7c1.3 0 1.3.2 2.7.2h2.7c1.3 0 1.3.1 2.7.1 1.3 0 1.3-.7 2.7-.7 1.3 0 1.3.2 2.7.2 1.3 0 1.3-.4 2.7-.4 1.3 0 1.3.4 2.7.4 1.3 0 1.3.2 2.7.2 1.3 0 1.3-.3 2.7-.3 1.3 0 1.3-.1 2.7-.1 1.3 0 1.3.6 2.7.6 1.3 0 1.3-.6 2.7-.6 1.3 0 1.3.6 2.7.6 1.3 0 1.3-.6 2.7-.6 1.3 0 1.3-.1 2.7-.1 1.3 0 1.3-.2 2.7-.2 1.3 0 1.3.9 2.7.9h2.7c1.3 0 1.3-.2 2.7-.2 1.3 0 1.3.1 2.7.1 1.3 0 1.3-.4 2.7-.4h5.4c1.3 0 1.3-.4 2.7-.4 1.3 0 1.3.4 2.7.4 1.3 0 1.3-.3 2.7-.3 1.3 0 1.3.2 2.7.2h2.7c1.3 0 1.3.3 2.7.3 1.3 0 1.3-.6 2.7-.6 1.3 0 1.3.2 2.7.2 1.3 0 1.3-.2 2.7-.2h2.7c1.3 0 1.3.7 2.7.7h2.7s1.3-.1 2.7-.1 1.3-.4 2.7-.4c1.3 0 1.3.5 2.7.5 1.3 0 1.3-.7 2.7-.7 1.3 0 1.3.8 2.7.8 1.3 0 1.3-.6 2.7-.6 1.3 0 1.3.7 2.7.7 1.3 0 1.3-.7 2.7-.7 1.3 0 1.3-.1 2.7-.1 1.3 0 1.3.3 2.7.3 1.3 0 1.3-.3 2.7-.3 1.3 0 1.3.8 2.7.8h2.7c1.3 0 1.3-.5 2.7-.5 1.3 0 1.3.2 2.7.2 1.3 0 1.3-.1 2.7-.1 1.3 0 1.3-.2 2.7-.2h2.7c1.3 0 1.3-.2 2.7-.2h2.7c1.3 0 1.3.5 2.7.5 1.3 0 1.3.3 2.7.3 1.3 0 1.3.1 2.7.1 1.3 0 1.3-.2 2.7-.2 1.3 0 1.3-.3 2.7-.3 1.3 0 1.3.1 2.7.1h2.7c1.3 0 1.3-.2 2.7-.2 1.3 0 1.3-.1 2.7-.1 1.3 0 1.3-.3 2.7-.3 1.3 0 1.3.7 2.7.7 1.3 0 1.3-.1 2.7-.1s1.3.1 2.7.1c1.3 0 1.3.2 2.7.2s1.3-.6 2.7-.6c1.3 0 1.3.6 2.7.6 1.3 0 1.3-.8 2.7-.8 1.3 0 1.3.4 2.7.4h2.7c1.3 0 1.3.2 2.7.2 1.3 0 1.3.1 2.7.1 1.3 0 1.3-.2 2.7-.2h2.7c1.3 0 1.3-.1 2.7-.1 1.3 0 1.3.2 2.7.2 1.3 0 1.3.3 2.7.3 1.3 0 1.3-.1 2.7-.1h8.1c1.3 0 1.3-.5 2.7-.5 1.3 0 1.3.1 2.7.1 1.3 0 1.3-.2 2.7-.2 1.3 0 1.3-.3 2.7-.3 1.3 0 1.3.6 2.7.6 1.3 0 1.3-.2 2.7-.2h2.7c1.3 0 1.3-.5 2.7-.5 1.3 0 1.3.2 2.7.2s1.3-.1 2.7-.1c1.3 0 1.3.2 2.7.2 1.3 0 1.3.3 2.7.3 1.3 0 1.3.1 2.7.1 1.3 0 1.3-.4 2.7-.4 1.3 0 1.3.4 2.7.4h2.7c1.3 0 1.3.3 2.7.3 1.3 0 1.3-.7 2.7-.7 1.3 0 1.3.1 2.7.1 1.3 0 1.3-.1 2.7-.1 1.3 0 1.3.7 2.7.7 1.3 0 1.3-.4 2.7-.4 1.3 0 1.3.4 2.7.4 1.3 0 1.3-.2 2.7-.2 1.3 0 1.3-.5 2.7-.5 1.3 0 1.3.1 2.7.1 1.3 0 1.3.2 2.7.2 1.3 0 1.3.4 2.7.4 1.3 0 1.3.1 2.7.1 1.3 0 1.3-.3 2.7-.3 1.3 0 1.3-.5 2.7-.5 1.3 0 1.3-.1 2.7-.1 1.3 0 1.3.2 2.7.2 1.3 0 1.3.2 2.7.2 1.3 0 1.3.1 2.7.1 1.3 0 1.3.2 2.7.2 1.3 0 1.3.2 2.7.2 1.3 0 1.3-.7 2.7-.7 1.3 0 1.3-.1 2.7-.1 1.3 0 1.3.5 2.7.5 1.3 0 1.3.4 2.7.4 1.3 0 1.3-.9 2.7-.9h2.7c1.3 0 1.3.5 2.7.5 1.3 0 1.3-.3 2.7-.3 1.3 0 1.3.6 2.7.6 1.3 0 1.3.1 2.7.1 1.3 0 1.3-.5 2.7-.5 1.3 0 1.3-.1 2.7-.1 1.3 0 1.3-.1 2.7-.1 1.3 0 1.3.6 2.7.6 1.3 0 1.3-.4 2.7-.4 1.3 0 1.3-.3 2.7-.3 1.3 0 1.3.3 2.7.3 1.3 0 1.3-.3 2.7-.3 1.3 0 1.3.6 2.7.6 1.3 0 1.3-.3 2.7-.3 1.3 0 1.3-.2 2.7-.2 1.3 0 1.3.5 2.7.5s1.3-.1 2.7-.1h2.7c1.3 0 1.3.3 2.7.3 1.3 0 1.3-.7 2.7-.7 1.3 0 1.3.6 2.7.6 1.3 0 1.3-.4 2.7-.4 1.3 0 1.3.6 2.7.6 1.3 0 1.3-.3 2.7-.3 1.3 0 1.3-.2 2.7-.2h2.7c1.3 0 1.3-.1 2.7-.1 1.3 0 1.3-.3 2.7-.3s1.3.6 2.7.6c1.3 0 1.3-.1 2.7-.1 1.3 0 1.3-.4 2.7-.4 1.3 0 1.3.4 2.7.4 1.3 0 1.3-.5 2.7-.5 1.3 0 1.3.9 2.7.9 1.3 0 1.3-.1 2.7-.1 1.3 0 1.3-.1 2.7-.1h2.7c1.3 0 1.3.3 2.7.3 1.3 0 1.3-.5 2.7-.5 1.3 0 1.3-.4 2.7-.4 1.3 0 1.3.1 2.7.1 1.3 0 1.3.4 2.7.4 1.3 0 1.3-.1 2.7-.1 1.3 0 1.3-.3 2.7-.3h5.4c1.3 0 1.3.1 2.7.1 1.3 0 1.3.2 2.7.2 1.3 0 1.3.4 2.7.4 1.3 0 1.3-.3 2.7-.3 1.3 0 1.3.6 2.7.6 1.3 0 1.3-.4 2.7-.4 1.3 0 1.3-.4 2.7-.4 1.3 0 1.3-.2 2.7-.2 1.3 0 1.3.1 2.7.1 1.3 0 1.3.4 2.7.4 1.3 0 1.3.3 2.7.3 1.3 0 1.3-.8 2.7-.8h2.7s1.3.9 2.7.9c1.3 0 1.3-.1 2.7-.1 1.3 0 1.3-.5 2.7-.5 1.3 0 1.3.4 2.7.4h2.7c1.3 0 1.3-.8 2.7-.8 1.3 0 1.3.7 2.7.7 1.3 0 1.3-.6 2.7-.6 1.3 0 1.3.3 2.7.3 1.3 0 1.3.3 2.7.3 1.3 0 1.3-.3 2.7-.3 1.3 0 1.3-.1 2.7-.1 1.3 0 1.3.4 2.7.4 1.3 0 1.3.2 2.7.2 1.3 0 1.3-.2 2.7-.2 1.3 0 1.3-.6 2.7-.6 1.3 0 1.3.4 2.7.4 1.3 0 1.3.5 2.7.5 1.3 0 1.3-.7 2.7-.7 1.3 0 1.3.7 2.7.7 1.3 0 1.3-.9 2.7-.9h2.7c1.3 0 1.3.5 2.7.5 1.3 0 1.3.2 2.7.2 1.3 0 1.3-.4 2.7-.4 1.3 0 1.3.1 2.7.1 1.3 0 1.3.2 2.7.2 1.3 0 1.3-.4 2.7-.4 1.3 0 1.3-.1 2.7-.1 1.3 0 1.3.1 2.7.1 1.3 0 1.3.2 2.7.2 1.3 0 1.3.3 2.7.3 1.3 0 1.3-.1 2.7-.1 1.3 0 1.3.4 2.7.4 1.3 0 1.3-.1 2.7-.1 1.3 0 1.3-.1 2.7-.1 1.3 0 1.3.3 2.7.3 1.3 0 1.3-.9 2.7-.9 1.3 0 1.3.6 2.7.6 1.3 0 1.3.2 2.7.2 1.3 0 1.3.2 2.7.2 1.3 0 1.3-.1 2.7-.1 1.3 0 1.3-.7 2.7-.7 1.3 0 1.3.6 2.7.6 1.3 0 1.3-.7 2.7-.7 1.3 0 1.3.7 2.7.7 1.3 0 1.3-.5 2.7-.5 1.3 0 1.3.5 2.7.5 1.3 0 1.3-.1 2.7-.1 1.3 0 1.3-.8 2.7-.8 1.3 0 1.3.4 2.7.3-1.9 1.2-1.8.9-.5 1.4z" fill="#FF3904"/><path d="M204.7 647c-1.4 0-1.4-.9-2.7-.9-1.4 0-1.4.6-2.7.6-1.4 0-1.4-.6-2.7-.6-1.4 0-1.4 1-2.7 1-1.4 0-1.4-.7-2.7-.7-1.4 0-1.4.1-2.7.1-1.4 0-1.4.4-2.7.4-1.4 0-1.4.2-2.7.2-1.4 0-1.4-.5-2.7-.5-1.4 0-1.4.1-2.7.1-1.4 0-1.4-.5-2.7-.5-1.4 0-1.4.7-2.7.7-1.4 0-1.4-.5-2.7-.5-1.4 0-1.4.4-2.7.4h-2.7c-1.4 0-1.4-.5-2.7-.5-1.4 0-1.4.8-2.7.8-1.4 0-1.4-.3-2.7-.3-1.4 0-1.4.1-2.7.1-1.4 0-1.4.1-2.7.1-1.4 0-1.4-.5-2.7-.5-1.4 0-1.4-.2-2.7-.2-1.4 0-1.4.7-2.7.7-1.4 0-1.4-.5-2.7-.5-1.4 0-1.4.1-2.7.1-.9 0-1.9.6-2.7.4-.9-.2-1.7-.8-2.5-1.1s-1.7-.7-2.4-1.2c-.8-.5-1.6-1-2.2-1.6s-1.2-1.4-1.7-2.1-1.2-1.4-1.6-2.3c-.4-.8 0-1.9-.2-2.8s-.6-1.7-.6-2.6-.3-1.8-.1-2.7c.1-.9 1-1.6 1.3-2.4s.3-1.8.7-2.6c.7-1.1.7-1.2 1.3-2.3.7-1.1.9-1 1.6-2.1s1-.9 1.7-2.1c.7-1.1.5-1.2 1.2-2.4.7-1.1.5-1.3 1.2-2.4s.7-1.1 1.4-2.3c.7-1.1.8-1.1 1.5-2.2s.9-1 1.6-2.1.8-1.1 1.5-2.2.2-1.4.9-2.6c.7-1.1 1.1-.9 1.8-2s.1-1.5.8-2.6 1-1 1.7-2.1.7-1.2 1.3-2.3c.7-1.1.3-1.4 1-2.5s1.5-.7 2.2-1.8.1-1.5.8-2.6.9-1 1.6-2.1 1-.9 1.7-2.1c.7-1.1.6-1.2 1.3-2.3s.5-1.2 1.2-2.4c.7-1.1.6-1.2 1.3-2.3s1-.9 1.7-2.1c.7-1.1.3-1.4 1-2.5s.4-1.3 1.1-2.5c.7-1.1 1-1 1.7-2.1s1-.9 1.7-2.1c.7-1.1.1-1.5.8-2.6s1.1-.9 1.8-2 .6-1.2 1.3-2.3.4-1.3 1.1-2.4.9-1 1.6-2.2c.7-1.1 1.2-.8 1.9-2 .7-1.1.3-1.4 1-2.5s.4-1.3 1.1-2.5c.7-1.1.8-1 1.5-2.2.7-1.1 1.2-.8 1.9-2 .7-1.1.2-1.4.9-2.6.7-1.1 1.1-.9 1.8-2s.5-1.3 1.2-2.4.8-1.1 1.5-2.2.6-1.2 1.3-2.3.6-1.2 1.3-2.3.4-1.3 1.1-2.4.9-1 1.6-2.1.3-1.3 1-2.5c.7-1.1 1-.9 1.7-2.1.7-1.1.6-1.2 1.3-2.3s.4-1.3 1.1-2.4.8-1 1.5-2.2c.7-1.1.9-1 1.6-2.2.7-1.1 1.2-.8 1.9-2 .7-1.1.4-1.3 1.1-2.4s.5-1.2 1.2-2.4c.7-1.1.8-1.1 1.4-2.2.7-1.1.7-1.2 1.3-2.3.7-1.1.6-1.2 1.3-2.3s1.1-.9 1.7-2c.7-1.1 0-1.6.7-2.7s1-.9 1.7-2.1c.7-1.1 1.1-.9 1.8-2s.3-1.4 1-2.5.8-1 1.5-2.2c.7-1.1.2-1.5.8-2.6.7-1.1 1-1 1.6-2.1.7-1.1 1.2-.8 1.9-2 .7-1.1.1-1.5.8-2.6l1.4-2.2c.7-1.1 1-.9 1.7-2.1.7-1.1.4-1.3 1.1-2.4s1.1-.9 1.7-2c.7-1.1 0-1.5.7-2.7.7-1.1 1.4-.7 2.1-1.8s.3-1.4 1-2.5.7-1.1 1.4-2.3c.7-1.1.4-1.3 1.1-2.4s1.2-.8 1.9-1.9.5-1.2 1.2-2.4c.7-1.1.4-1.3 1.1-2.4s1.2-.8 1.9-2c.7-1.1.5-1.2 1.2-2.4.7-1.1.6-1.2 1.3-2.3s.3-1.4 1-2.5.9-1 1.6-2.1.9-1 1.6-2.1.4-1.3 1.1-2.5c.7-1.1.8-1.1 1.5-2.2s1-1 1.7-2.1.1-1.5.8-2.6.6-1.2 1.3-2.3 1.3-.7 2-1.9c.7-1.1.3-1.3 1-2.5.7-1.1.5-1.3 1.1-2.4.7-1.1 1.1-.9 1.8-2s.7-1.1 1.4-2.3c.7-1.1 1-1 1.7-2.1s.2-1.4.9-2.6c.7-1.1.3-1.3 1-2.5.7-1.1 1.4-.7 2.1-1.8s.5-1.2 1.2-2.4c.7-1.1.1-1.5.8-2.6s1.1-.9 1.8-2 1-1 1.6-2.1c.7-1.1.1-1.5.8-2.6s1-1 1.6-2.1c.7-1.1.5-1.2 1.2-2.4.7-1.1 1-1 1.7-2.1s.2-1.4.9-2.5 1.2-.8 1.9-1.9.1-1.5.8-2.6.9-1 1.6-2.2c.7-1.1.6-1.2 1.3-2.3s.9-1 1.6-2.1.4-1.3 1.1-2.4 1.3-.8 2-1.9.6-1.2 1.3-2.3.6-1.2 1.3-2.3.8-1 1.5-2.2c.7-1.1.3-1.3 1-2.5.7-1.1.5-1.3 1.2-2.4s1-1 1.6-2.1c.7-1.1.2-1.4.9-2.6.7-1.1 1-.9 1.7-2.1.7-1.1 1.1-.9 1.8-2s.4-1.3 1.1-2.4.1-1.5.8-2.6 1.4-.7 2.1-1.8.3-1.4 1-2.5.8-1.1 1.4-2.2c.7-1.1.4-1.3 1.1-2.4s1.2-.8 1.9-2c.7-1.1.6-1.2 1.3-2.3s.7-1.1 1.4-2.3c.7-1.1.5-1.3 1.2-2.4s.8-1.1 1.5-2.2.4-1.3 1.1-2.4.9-1 1.6-2.2c.5-.7.6-1.8 1.1-2.4.6-.6 1.3-1.3 1.9-1.8.7-.5 1.6-.8 2.3-1.1s1.6-.6 2.4-.8 1.7-.3 2.5-.4 1.7.3 2.5.4c1.3 0 1.3-.1 2.7-.1 1.3 0 1.3-.6 2.7-.6 1.3 0 1.3.7 2.7.7 1.3 0 1.3-.3 2.7-.3 1.3 0 1.3-.4 2.7-.4 1.3 0 1.3.7 2.7.7 1.3 0 1.3-.7 2.7-.7 1.3 0 1.3.4 2.7.4 1.3 0 1.3-.4 2.7-.4 1.3 0 1.3-.2 2.7-.2 1.3 0 1.3.7 2.7.7h5.4c1.3 0 1.3-.4 2.7-.4 1.3 0 1.3.1 2.7.1 1.3 0 1.3-.1 2.7-.1 1.3 0 1.3-.4 2.7-.4 1.3 0 1.3.8 2.7.8 1.3 0 1.3.2 2.7.2 1.3 0 1.3-.7 2.7-.7h2.7c1.3 0 1.3-.1 2.7-.1 1.3 0 1.3.3 2.7.3 1.3 0 1.3.6 2.7.6 1.3 0 1.3-.7 2.7-.7 1.3 0 1.3-.2 2.7-.1 1.3 0 1.3.4 2.7.4 1.3 0 1.3-.3 2.7-.3 1.3 0 1.3.4 2.7.5 1.3 0 1.3-.4 2.7-.4 1.3 0 1.3-.1 2.7-.1 1.3 0 1.3.3 2.7.3 1.3 0 1.3-.4 2.7-.4 1.3 0 1.3.2 2.7.2 1.3 0 1.3.3 2.7.3 1.3 0 1.3.2 2.7.2 1.3 0 1.3-.5 2.7-.5 1.3 0 1.3.3 2.7.3h2.7c1.3 0 1.3.1 2.7.1 1.3 0 1.3.2 2.7.2 1.3 0 1.3-.7 2.7-.7 1.3 0 1.3.7 2.7.7 1.3 0 1.3-.8 2.7-.8h2.7c1.3 0 1.3.2 2.7.2 1.3 0 1.3-.2 2.7-.2 1.3 0 1.3.1 2.7.1 1.3 0 1.3.1 2.7.1 1.3 0 1.3.8 2.7.8 1.3 0 1.3-.6 2.7-.6 1.3 0 1.3.4 2.7.5 1.3 0 1.3-.3 2.7-.3 1.3 0 1.3-.3 2.7-.3 1.3 0 1.3.2 2.7.2 1.3 0 1.3-.1 2.7-.1 1.3 0 1.3.1 2.7.1 1.3 0 1.3.1 2.7.1 1.3 0 1.3.5 2.7.5 1.3 0 1.3-.1 2.7-.1 1.3 0 1.3-.5 2.7-.5 1.3 0 1.3.2 2.7.2h2.7c1.3 0 1.3-.4 2.7-.4 1.3 0 1.3.4 2.7.4 1.3 0 1.3.1 2.7.1 1.3 0 1.3-.1 2.7-.1 1.3 0 1.3-.5 2.7-.5 1.3 0 1.3.7 2.7.7 1.3 0 1.3-.1 2.7-.1.9.1 2-.3 2.8 0 .9.3 1.6 1.1 2.4 1.6.8.4 1.4 1.1 2.1 1.7s2 .6 2.6 1.3.8 1.8 1.2 2.6.7 1.7 1 2.6.9 1.8.9 2.7c.1.9-.9 1.8-1 2.7s.1 1.8-.2 2.7-.5 1.8-1 2.6-1 1.6-1.6 2.3c-.8 1-.8 1.1-1.6 2.1s-.9 1-1.7 2-.9 1-1.7 2.1c-.8 1-.7 1.1-1.6 2.2s-1 .9-1.9 1.9c-.8 1-.6 1.2-1.5 2.3-.8 1-.9 1-1.7 2.1-.8 1-1 .9-1.8 2-.8 1-1.2.8-2 1.8s-.7 1.1-1.5 2.2c-.8 1-.3 1.4-1.2 2.5-.8 1-.9 1-1.7 2s-1.3.7-2.1 1.7-.5 1.3-1.3 2.4c-.8 1-1.3.7-2.1 1.7s-.5 1.3-1.4 2.3c-.8 1-.4 1.4-1.2 2.4s-1 .9-1.9 1.9c-.8 1-1.1.8-1.9 1.9-.8 1-.7 1.1-1.5 2.2-.8 1-1.2.8-2 1.8s-.7 1.1-1.6 2.2c-.8 1-.6 1.3-1.4 2.3s-1 .9-1.8 2c-.8 1-.8 1-1.7 2.1-.8 1-.8 1-1.7 2.1-.8 1-.3 1.4-1.2 2.5-.8 1-1.5.5-2.3 1.6-.8 1-.7 1.2-1.5 2.2s-.7 1.2-1.5 2.2-1 .9-1.9 1.9c-.8 1-1 1-1.8 2s-.7 1.1-1.5 2.2c-.8 1-.7 1.2-1.5 2.2s-.7 1.2-1.5 2.2-1.2.7-2.1 1.8c-.8 1-.5 1.3-1.4 2.3-.8 1-1 .9-1.8 2-.8 1-.4 1.4-1.2 2.4s-1.4.6-2.3 1.6c-.8 1-.9 1-1.7 2.1-.8 1-.6 1.2-1.4 2.3-.8 1-.7 1.1-1.5 2.2-.8 1-.8 1.1-1.6 2.1s-.9.9-1.8 2c-.8 1-.8 1.1-1.6 2.1s-1 .9-1.8 2c-.8 1-.7 1.2-1.5 2.2s-.8 1.1-1.6 2.1-.9 1-1.7 2.1c-.8 1-1.1.8-1.9 1.9-.8 1-.3 1.5-1.1 2.5s-1.1.8-1.9 1.9c-.8 1-.6 1.2-1.4 2.3-.8 1-1.3.6-2.2 1.7-.8 1-.9 1-1.7 2.1-.8 1-.5 1.3-1.3 2.4-.8 1-.6 1.2-1.5 2.2-.8 1-1.3.7-2.1 1.7s-.2 1.5-1 2.6c-.8 1-1.3.7-2.1 1.7s-.7 1.2-1.5 2.2-.9 1-1.8 2c-.8 1-.6 1.2-1.4 2.3-.8 1-1.2.7-2.1 1.8-.8 1-.4 1.4-1.2 2.5-.8 1-.9 1-1.7 2s-.6 1.2-1.5 2.2c-.8 1-1.4.6-2.2 1.7-.8 1-.8 1.1-1.6 2.1s-1 .9-1.9 1.9c-.8 1-.3 1.5-1.1 2.5s-1.4.6-2.2 1.6-.4 1.4-1.2 2.4-1.2.7-2.1 1.8c-.8 1-.8 1.1-1.6 2.1s-.7 1.1-1.6 2.2c-.8 1-.6 1.2-1.4 2.3-.8 1-.8 1.1-1.6 2.1s-1.3.7-2.1 1.7-.8 1-1.7 2.1c-.8 1-.2 1.6-1 2.6s-1.3.7-2.1 1.7-.7 1.1-1.6 2.2c-.8 1-.7 1.1-1.5 2.2-.8 1-1.1.8-2 1.8-.8 1-.4 1.4-1.3 2.4-.8 1-1.3.7-2.1 1.7s-.6 1.2-1.5 2.3c-.8 1-.9 1-1.7 2.1-.8 1-.6 1.2-1.4 2.3-.8 1-.9 1-1.7 2s-1.2.8-2 1.8-.9 1-1.8 2c-.8 1-.7 1.2-1.5 2.2s-.7 1.1-1.6 2.2c-.8 1-.7 1.2-1.5 2.2s-.7 1.2-1.5 2.2-1.4.6-2.3 1.6c-.8 1-.7 1.2-1.5 2.2s-.7 1.2-1.5 2.2-.6 1.2-1.4 2.3c-.8 1-1.1.9-1.9 1.9s-1 .9-1.8 2c-.8 1-.8 1.1-1.6 2.2-.8 1-.4 1.4-1.2 2.4s-1 .9-1.9 1.9c-.8 1-.9 1-1.7 2.1-.8 1-1.1.8-1.9 1.9-.8 1-.3 1.5-1.1 2.5s-.8 1-1.7 2.1c-.8 1-1.4.6-2.2 1.7-.8 1-.7 1.2-1.5 2.2s-.5 1.3-1.3 2.4c-.8 1-1.5.5-2.4 1.5-.8 1-.2 1.5-1.1 2.6-.8 1-1.4.6-2.2 1.7-.8 1-.5 1.3-1.4 2.3-.8 1-.7 1.2-1.5 2.2s-.8 1.1-1.6 2.1-1.1.8-2 1.9c-.8 1-.4 1.4-1.2 2.5-.8 1-1.1.8-2 1.9-.8 1-.8 1-1.7 2.1-.8 1-1.1.8-1.9 1.9-.8 1-.4 1.4-1.3 2.4-.8 1.1-1.1.9-1.9 1.9s-.8 1.1-1.6 2.1c-.6.7-1.1 1.4-1.7 2-.6.7-1.2 1.3-1.8 1.9s-1.5 1-2.2 1.6c-.6.6-1.2 1.3-1.8 1.9s-1.4 1.1-2 1.7-.7 1.9-1.3 2.5c-.7.6-1.9.5-2.6 1-.7.6-.7 1.9-1.4 2.4-.7.6-1.7.7-2.4 1.3s-1.6.8-2.3 1.4c-.7.5-1.1 1.5-1.8 2s-1.7.7-2.4 1.2-1.3 1.1-2.1 1.6c-.7.5-1.2 1.4-1.9 1.9s-1.6.7-2.4 1.2c-.7.5-1.5.9-2.3 1.3-.8.5-1.4 1-2.2 1.5-.8.4-1.7.6-2.5 1s-1.3 1.3-2.1 1.7-1.7.6-2.5 1-1.7.6-2.4 1c-.8.4-1.6.7-2.4 1.1s-1.5.9-2.3 1.3-1.3 1.4-2.1 1.7-1.9 0-2.7.3-1.5 1.1-2.3 1.4-1.6.7-2.5 1c-.8.3-1.9-.1-2.7.2s-1.6.7-2.5 1c-.8.3-1.6.9-2.4 1.2-.8.2-1.7.3-2.6.6-.8.2-1.8.1-2.7.3s-1.7.4-2.6.6-1.6 1.1-2.4 1.3c-.9.2-1.8 0-2.7.2s-1.7.6-2.5.8c-.9.2-1.8-.1-2.7 0s-1.7.4-2.6.5-1.8 0-2.6.1c-.9.1-1.7.6-2.6.6-.9.1-1.8-.2-2.7-.1s-1.7.3-2.6.4-1.8-.3-2.7-.2c-.9 0-1.7.7-2.6.7-2.5-.4-3.4-.2-4.3-.2z" fill="#4502C6"/></svg></g></svg>