<svg width="163" height="53" viewBox="0 0 163 53" fill="none" xmlns="http://www.w3.org/2000/svg">
<path d="M35.926 1.23621C35.5761 0.886338 35.1621 0.711406 34.6956 0.711406H27.8031C27.3366 0.711406 26.9343 0.886338 26.6077 1.23621C26.2812 1.58608 26.1179 2.0001 26.1179 2.46659V5.13728C24.9458 3.68531 23.4472 2.46659 21.6162 1.48112C19.7911 0.495647 17.5869 0.00582799 15.0095 0.00582799C12.5721 0.00582799 10.4262 0.419843 8.57768 1.23621C6.72337 2.05841 5.18976 3.20716 3.97104 4.68245C2.75232 6.15774 1.8135 7.90709 1.16041 9.91886C0.501483 11.9364 0.128286 14.164 0.0349872 16.6014C-0.0116624 17.8201 -0.0116624 19.0622 0.0349872 20.3275C0.128286 22.8583 0.501483 25.1324 1.16041 27.15C1.8135 29.1676 2.75232 30.8878 3.97104 32.3165C5.18976 33.7451 6.72337 34.8472 8.57768 35.6227C10.4262 36.3983 12.5721 36.7832 15.0095 36.7832C17.4936 36.7832 19.5928 36.3866 21.3013 35.5878C23.0099 34.7889 24.4327 33.7859 25.5581 32.5614V37.273C25.5581 39.1973 25.2899 40.7192 24.7476 41.8446C24.2053 42.9701 23.4006 43.7689 22.3218 44.2354C21.243 44.7019 19.8844 44.941 18.2458 44.941C16.7938 44.941 15.6334 44.7311 14.7646 44.3054C13.8957 43.8856 13.2543 43.3549 12.8286 42.7252C12.4088 42.0954 12.0764 41.4948 11.8432 40.935C11.6566 40.416 11.4116 40.0545 11.1026 39.8445C10.7994 39.6346 10.4378 39.5297 10.0122 39.5297H2.48992C2.02342 39.5297 1.59775 39.6929 1.22455 40.0195C0.851355 40.346 0.688079 40.7659 0.734728 41.2848C0.781378 41.9904 1.0846 42.9701 1.65023 44.2354C2.21002 45.5008 3.16051 46.7778 4.49585 48.0665C5.83119 49.3552 7.64469 50.4573 9.94801 51.3728C12.2455 52.2883 15.1261 52.7431 18.5957 52.7431C22.5317 52.7431 25.8264 52.0959 28.4737 50.8072C31.1211 49.5185 33.127 47.6525 34.4857 45.2151C35.8443 42.7776 36.5266 39.8037 36.5266 36.2875L36.4566 2.46659C36.4508 2.0001 36.2758 1.58608 35.926 1.23621ZM25.5523 20.6774C25.5056 21.9894 25.2257 23.2431 24.7068 24.4385C24.1878 25.6339 23.4064 26.6194 22.351 27.3891C21.2955 28.1647 19.9252 28.5495 18.24 28.5495C16.4556 28.5495 15.0503 28.1647 14.024 27.3891C12.9919 26.6136 12.2397 25.5989 11.7732 24.3336C11.3067 23.0682 11.021 21.6629 10.9277 20.1176C10.881 19.0388 10.881 17.9367 10.9277 16.8113C11.021 15.3127 11.3008 13.9307 11.7732 12.6654C12.2397 11.4 12.9919 10.3795 14.024 9.6098C15.0561 8.83425 16.4615 8.44939 18.24 8.44939C19.9252 8.44939 21.2955 8.82259 22.351 9.57482C23.4064 10.327 24.1878 11.295 24.7068 12.4904C25.2199 13.6858 25.5056 14.9395 25.5523 16.2515C25.5989 16.7705 25.6223 17.5052 25.6223 18.4674C25.6223 19.4237 25.5989 20.1643 25.5523 20.6774ZM65.8167 0.711406H62.7961C60.5453 0.711406 58.5627 1.10792 56.8541 1.90679C55.1398 2.70567 53.6994 3.83109 52.5274 5.28306V2.46659C52.5274 2.0001 52.3524 1.58608 52.0026 1.23621C51.6527 0.886338 51.2387 0.711406 50.7722 0.711406H43.8797C43.4132 0.711406 43.0109 0.886338 42.6843 1.23621C42.3578 1.58608 42.1945 2.0001 42.1945 2.46659V35.512C42.1945 36.0309 42.3578 36.4508 42.6843 36.7773C43.0109 37.1039 43.4132 37.2671 43.8797 37.2671H51.262C51.7752 37.2671 52.2008 37.1039 52.5274 36.7773C52.8539 36.4508 53.0172 36.0309 53.0172 35.512V16.8813C53.0172 14.7704 53.6003 13.1435 54.7724 11.9948C55.9445 10.846 57.5597 10.2746 59.6239 10.2746H65.8108C66.2773 10.2746 66.6797 10.1113 67.0062 9.78474C67.3328 9.45819 67.496 9.03835 67.496 8.51937V2.46659C67.496 1.95345 67.3328 1.52777 67.0062 1.20122C66.6855 0.874677 66.2832 0.711406 65.8167 0.711406ZM103.504 7.42311C102.052 5.05564 100.011 3.23048 97.3867 1.93595C94.7627 0.647258 91.5964 0 87.8936 0C84.1441 0 80.9544 0.647258 78.3304 1.93595C75.7064 3.22464 73.6654 5.05564 72.2135 7.42311C70.7615 9.79057 69.9626 12.5895 69.8227 15.8259C69.776 16.718 69.7527 17.7618 69.7527 18.9572C69.7527 20.1526 69.776 21.2197 69.8227 22.1585C69.9626 25.3482 70.7265 28.1355 72.1085 30.5263C73.4905 32.9171 75.4964 34.7539 78.1205 36.0484C80.7445 37.3371 84.0042 37.9844 87.8936 37.9844C91.7363 37.9844 94.9726 37.3371 97.5967 36.0484C100.221 34.7597 102.227 32.9171 103.609 30.5263C104.991 28.1355 105.755 25.3482 105.894 22.1585C105.988 21.2197 106.034 20.1526 106.034 18.9572C106.034 17.7618 105.988 16.718 105.894 15.8259C105.755 12.5954 104.956 9.79057 103.504 7.42311ZM94.996 21.8028C94.9027 24.5668 94.267 26.666 93.095 28.0947C91.9229 29.5233 90.1852 30.2406 87.8936 30.2406C85.5961 30.2406 83.8525 29.5292 82.6571 28.0947C81.4618 26.666 80.8145 24.5668 80.7212 21.8028C80.6745 21.0973 80.6512 20.1643 80.6512 18.9922C80.6512 17.8201 80.6745 16.8813 80.7212 16.1816C80.8145 13.4642 81.4618 11.3767 82.6571 9.92468C83.8525 8.47272 85.5961 7.74382 87.8936 7.74382C90.191 7.74382 91.9229 8.47272 93.095 9.92468C94.267 11.3767 94.8968 13.4642 94.996 16.1816C95.0426 16.8871 95.0659 17.826 95.0659 18.9922C95.0659 20.1643 95.0426 21.1031 94.996 21.8028ZM149.459 26.8293L138.432 4.53083L136.701 1.02629C136.432 0.478155 135.873 0.134115 135.266 0.134115H130.211C129.598 0.134115 129.044 0.478155 128.776 1.02629L127.044 4.53083L121.732 15.2661L114.641 0.92133C114.373 0.373197 113.813 0.0291577 113.207 0.0291577H105.44C104.268 0.0291577 103.492 1.24787 103.988 2.30915L115.86 27.6573L118.799 33.9375L120.327 37.0514C120.397 37.1972 120.484 37.3196 120.583 37.4246C121.33 38.101 122.601 37.9552 123.091 36.9523L126.706 29.5758L127.505 27.8789L132.741 16.6947L142.264 37.0281C142.835 38.2468 144.561 38.2643 145.156 37.0514L149.471 28.2463C149.681 27.8031 149.681 27.2783 149.459 26.8293Z" fill="url(#paint0_linear_523_3478)"/>
<path d="M157.052 11.0057L156.976 3.71668C156.982 3.62922 156.935 3.55341 156.865 3.51259L151.337 0.532849C151.128 0.416225 151.233 0.0955112 151.472 0.124667L162.341 0.14216C162.493 0.159654 162.58 0.322923 162.51 0.457041L157.472 11.1223C157.361 11.3322 157.035 11.2448 157.052 11.0057Z" fill="url(#paint1_linear_523_3478)"/>
<path d="M151.088 23.6985L150.796 16.3454C150.802 16.2579 150.755 16.1821 150.685 16.1413L145.087 13.3715C144.878 13.2548 144.983 12.9341 145.222 12.9633L156.248 12.9808C156.4 12.9983 156.487 13.1615 156.417 13.2957L151.496 23.8093C151.397 24.0251 151.076 23.9376 151.088 23.6985Z" fill="url(#paint2_linear_523_3478)"/>
<path d="M44.2539 49.0735C43.77 49.0735 43.3646 48.9994 43.0332 48.8468C42.7063 48.6942 42.4534 48.5024 42.279 48.2669C42.1046 48.0315 42.0087 47.783 42 47.5214C42 47.4778 42.0174 47.4386 42.0523 47.3994C42.0872 47.3645 42.1308 47.3471 42.1831 47.3471H42.6103C42.6757 47.3471 42.7281 47.3645 42.7586 47.395C42.7935 47.4299 42.8153 47.4691 42.824 47.5127C42.8589 47.6479 42.9286 47.7787 43.0332 47.9094C43.1379 48.0402 43.2904 48.1492 43.4866 48.2364C43.6828 48.3236 43.94 48.3672 44.2496 48.3672C44.7291 48.3672 45.0822 48.2844 45.3046 48.1143C45.5313 47.9443 45.6446 47.7176 45.6446 47.4342C45.6446 47.2381 45.5836 47.0811 45.4659 46.9634C45.3482 46.8457 45.1651 46.7367 44.9209 46.6408C44.6768 46.5449 44.3586 46.4446 43.9705 46.3313C43.5651 46.2136 43.2294 46.0871 42.9591 45.9476C42.6932 45.8081 42.4926 45.6337 42.3618 45.4288C42.2311 45.2239 42.1657 44.9623 42.1657 44.6441C42.1657 44.3433 42.2441 44.073 42.4098 43.8376C42.5711 43.6021 42.8065 43.4147 43.1117 43.2752C43.4169 43.1357 43.7831 43.0659 44.2147 43.0659C44.5591 43.0659 44.8599 43.1139 45.1215 43.2054C45.3787 43.297 45.5967 43.419 45.7667 43.5716C45.9411 43.7242 46.0719 43.8899 46.1591 44.0643C46.2463 44.2387 46.2942 44.4087 46.3029 44.5787C46.3029 44.6179 46.2899 44.6572 46.2593 44.6921C46.2332 44.7269 46.1852 44.7444 46.1242 44.7444H45.6795C45.6403 44.7444 45.601 44.7313 45.5574 44.7095C45.5139 44.6877 45.4833 44.6441 45.4615 44.5831C45.4267 44.3564 45.3002 44.1645 45.0779 44.0076C44.8556 43.8507 44.5678 43.7722 44.2103 43.7722C43.8485 43.7722 43.5564 43.8419 43.3297 43.9814C43.103 44.1209 42.9896 44.3389 42.9896 44.631C42.9896 44.8185 43.0419 44.9754 43.1466 45.1019C43.2512 45.2283 43.4212 45.3373 43.6479 45.4332C43.8746 45.5291 44.1754 45.6294 44.5417 45.734C44.9863 45.8561 45.3525 45.9869 45.6359 46.122C45.9193 46.2572 46.1286 46.4272 46.2681 46.6321C46.4032 46.837 46.473 47.0942 46.473 47.4125C46.473 47.7612 46.3814 48.062 46.1983 48.3105C46.0152 48.559 45.758 48.7465 45.4267 48.8773C45.0953 49.0081 44.7073 49.0735 44.2539 49.0735Z" fill="white"/>
<path d="M47.5844 43.8414C47.5277 43.8414 47.4841 43.824 47.4449 43.7891C47.41 43.7542 47.3926 43.7063 47.3926 43.6496V43.2005C47.3926 43.1439 47.41 43.0959 47.4449 43.0567C47.4798 43.0174 47.5277 43 47.5844 43H48.1119C48.1686 43 48.2165 43.0174 48.2558 43.0567C48.295 43.0959 48.3125 43.1439 48.3125 43.2005V43.6496C48.3125 43.7063 48.295 43.7499 48.2558 43.7891C48.2165 43.824 48.1686 43.8414 48.1119 43.8414H47.5844ZM47.6542 48.9901C47.5975 48.9901 47.5539 48.9727 47.5146 48.9378C47.4798 48.9029 47.4623 48.855 47.4623 48.7983V44.8398C47.4623 44.7831 47.4798 44.7395 47.5146 44.7002C47.5495 44.6654 47.5975 44.6479 47.6542 44.6479H48.0552C48.1119 44.6479 48.1555 44.6654 48.1947 44.7002C48.2296 44.7351 48.2471 44.7831 48.2471 44.8398V48.7983C48.2471 48.855 48.2296 48.8986 48.1947 48.9378C48.1599 48.9727 48.1119 48.9901 48.0552 48.9901H47.6542Z" fill="white"/>
<path d="M49.7465 48.9907C49.6898 48.9907 49.6462 48.9733 49.607 48.9384C49.5721 48.9035 49.5547 48.8556 49.5547 48.7989V44.8404C49.5547 44.7837 49.5721 44.7401 49.607 44.7009C49.6419 44.666 49.6898 44.6486 49.7465 44.6486H50.1214C50.1781 44.6486 50.2217 44.666 50.2609 44.7009C50.2958 44.7358 50.3133 44.7837 50.3133 44.8404V45.1325C50.4397 44.9581 50.601 44.8229 50.7972 44.7183C50.9934 44.6137 51.2244 44.5657 51.4991 44.5657C52.1269 44.5614 52.5715 44.8142 52.8331 45.333C52.9595 45.0976 53.147 44.9145 53.3911 44.775C53.6353 44.6355 53.9143 44.5657 54.2282 44.5657C54.5159 44.5657 54.7819 44.6311 55.0173 44.7663C55.2527 44.9014 55.4402 45.102 55.5753 45.3723C55.7105 45.6426 55.7802 45.9826 55.7802 46.388V48.8033C55.7802 48.8599 55.7628 48.9035 55.7279 48.9428C55.693 48.9777 55.6451 48.9951 55.5884 48.9951H55.196C55.1394 48.9951 55.0958 48.9777 55.0565 48.9428C55.0173 48.9079 55.0042 48.8599 55.0042 48.8033V46.4665C55.0042 46.157 54.9606 45.9085 54.8691 45.7297C54.7819 45.551 54.6598 45.4246 54.5116 45.3548C54.359 45.2807 54.1977 45.2458 54.0189 45.2458C53.8751 45.2458 53.7268 45.2807 53.5743 45.3548C53.426 45.4289 53.2996 45.551 53.2037 45.7297C53.1078 45.9085 53.0555 46.1526 53.0555 46.4665V48.8033C53.0555 48.8599 53.038 48.9035 53.0031 48.9428C52.9683 48.9777 52.9203 48.9951 52.8636 48.9951H52.4713C52.4146 48.9951 52.371 48.9777 52.3318 48.9428C52.2969 48.9079 52.2794 48.8599 52.2794 48.8033V46.4665C52.2794 46.157 52.2315 45.9085 52.1356 45.7297C52.0397 45.551 51.9176 45.4246 51.7694 45.3548C51.6211 45.2807 51.4598 45.2458 51.2942 45.2458C51.1503 45.2458 51.0021 45.2807 50.8539 45.3548C50.7013 45.4289 50.5792 45.551 50.4833 45.7297C50.3874 45.9085 50.3394 46.1483 50.3394 46.4578V48.8033C50.3394 48.8599 50.322 48.9035 50.2871 48.9428C50.2522 48.9777 50.2043 48.9951 50.1476 48.9951H49.7465V48.9907Z" fill="white"/>
<path d="M57.1801 50.5776C57.1234 50.5776 57.0798 50.5601 57.0406 50.5253C57.0057 50.4904 56.9883 50.4424 56.9883 50.3858V44.8403C56.9883 44.7837 57.0057 44.7401 57.0406 44.7008C57.0755 44.6659 57.1234 44.6485 57.1801 44.6485H57.5638C57.6204 44.6485 57.664 44.6659 57.7033 44.7008C57.7381 44.7357 57.7556 44.7837 57.7556 44.8403V45.2065C57.8907 45.0234 58.0651 44.8708 58.2918 44.7488C58.5141 44.6267 58.7932 44.5657 59.1289 44.5657C59.4384 44.5657 59.7043 44.618 59.9267 44.7226C60.1446 44.8272 60.3277 44.9711 60.4716 45.1586C60.6155 45.3417 60.7201 45.5509 60.7942 45.7864C60.8683 46.0218 60.9076 46.2703 60.9207 46.5362C60.925 46.6234 60.9294 46.7193 60.9294 46.8196C60.9294 46.9199 60.925 47.0158 60.9207 47.103C60.9076 47.3645 60.8683 47.613 60.7942 47.8485C60.7201 48.0839 60.6155 48.2931 60.4716 48.4762C60.3277 48.655 60.149 48.8032 59.9267 48.9122C59.7087 49.0212 59.4427 49.0735 59.1289 49.0735C58.8062 49.0735 58.5359 49.0125 58.3136 48.8948C58.0913 48.7771 57.9125 48.6245 57.773 48.4501V50.3858C57.773 50.4424 57.7556 50.486 57.7207 50.5253C57.6858 50.5601 57.6422 50.5776 57.5855 50.5776H57.1801V50.5776ZM58.9501 48.3978C59.2378 48.3978 59.4645 48.3367 59.6302 48.2103C59.7959 48.0839 59.9136 47.9226 59.9833 47.7177C60.0574 47.5128 60.0967 47.2948 60.1098 47.0637C60.1141 46.9024 60.1141 46.7411 60.1098 46.5798C60.0967 46.3444 60.0574 46.1264 59.9833 45.9259C59.9092 45.721 59.7915 45.5597 59.6302 45.4332C59.4645 45.3068 59.2378 45.2458 58.9501 45.2458C58.6755 45.2458 58.4575 45.3112 58.2874 45.4376C58.1174 45.564 57.991 45.7297 57.9125 45.9259C57.8297 46.1221 57.7861 46.327 57.773 46.5319C57.7687 46.6191 57.7643 46.728 57.7643 46.8501C57.7643 46.9722 57.7687 47.0812 57.773 47.1771C57.7774 47.3733 57.8253 47.5651 57.9125 47.7526C57.9997 47.94 58.1261 48.097 58.3005 48.219C58.4706 48.3367 58.6885 48.3978 58.9501 48.3978Z" fill="white"/>
<path d="M62.1586 48.9901C62.1019 48.9901 62.0584 48.9727 62.0191 48.9378C61.9842 48.9029 61.9668 48.855 61.9668 48.7983V43.2529C61.9668 43.1962 61.9842 43.1526 62.0191 43.1133C62.054 43.0785 62.1019 43.061 62.1586 43.061H62.551C62.612 43.061 62.66 43.0785 62.6949 43.1133C62.7297 43.1482 62.7472 43.1962 62.7472 43.2529V48.7983C62.7472 48.855 62.7297 48.8986 62.6949 48.9378C62.66 48.9727 62.612 48.9901 62.551 48.9901H62.1586Z" fill="white"/>
<path d="M65.7198 49.0735C65.1399 49.0735 64.6822 48.8948 64.3421 48.5416C64.0021 48.1885 63.8146 47.7046 63.7841 47.0942C63.7797 47.0201 63.7754 46.9286 63.7754 46.8152C63.7754 46.7019 63.7797 46.606 63.7841 46.5362C63.8059 46.1395 63.8975 45.7951 64.0588 45.4986C64.2201 45.2022 64.4424 44.9711 64.7214 44.8098C65.0004 44.6485 65.3318 44.5657 65.7111 44.5657C66.1339 44.5657 66.4871 44.6529 66.7748 44.8316C67.0625 45.0103 67.2805 45.2632 67.4287 45.5902C67.5813 45.9172 67.6554 46.3008 67.6554 46.7411V46.885C67.6554 46.946 67.638 46.994 67.6031 47.0289C67.5683 47.0637 67.5203 47.0812 67.4636 47.0812H64.5732C64.5732 47.0855 64.5732 47.0986 64.5732 47.1161C64.5732 47.1335 64.5732 47.1466 64.5732 47.1596C64.5863 47.3863 64.6342 47.6 64.7214 47.7961C64.8086 47.9923 64.9394 48.1536 65.1094 48.2757C65.2795 48.3978 65.48 48.4588 65.7067 48.4588C65.9072 48.4588 66.0729 48.4283 66.2081 48.3673C66.3432 48.3062 66.4522 48.2365 66.535 48.1624C66.6179 48.0882 66.6745 48.0272 66.7007 47.9836C66.753 47.9182 66.7879 47.8746 66.8184 47.8615C66.8446 47.8485 66.8925 47.8397 66.9535 47.8397H67.3634C67.4157 47.8397 67.4549 47.8572 67.4941 47.8877C67.529 47.9182 67.5465 47.9618 67.5421 48.0185C67.5377 48.1013 67.4898 48.2016 67.407 48.3237C67.3241 48.4414 67.2064 48.5634 67.0538 48.6768C66.9012 48.7945 66.7094 48.8904 66.4871 48.9645C66.2604 49.0386 66.0075 49.0735 65.7198 49.0735ZM64.5776 46.5013H66.8664V46.4752C66.8664 46.2267 66.8228 46 66.7268 45.8082C66.6353 45.612 66.5045 45.4594 66.3301 45.346C66.1557 45.2327 65.9508 45.176 65.7111 45.176C65.4713 45.176 65.2664 45.2327 65.0964 45.346C64.9263 45.4594 64.7955 45.6163 64.7083 45.8082C64.6212 46.0043 64.5732 46.2267 64.5732 46.4752V46.5013H64.5776Z" fill="white"/>
<path d="M68.7953 48.9906C68.7387 48.9906 68.6951 48.9732 68.6558 48.9383C68.6166 48.9035 68.6035 48.8555 68.6035 48.7988V48.1972C68.6035 48.1405 68.621 48.0969 68.6558 48.0577C68.6907 48.0228 68.7387 48.0054 68.7953 48.0054H69.397C69.4536 48.0054 69.5016 48.0228 69.5408 48.0577C69.5801 48.0926 69.5975 48.1405 69.5975 48.1972V48.7988C69.5975 48.8555 69.5801 48.8991 69.5408 48.9383C69.5016 48.9732 69.4536 48.9906 69.397 48.9906H68.7953Z" fill="white"/>
<path d="M72.5255 48.991C72.4819 48.991 72.4427 48.9735 72.4078 48.9387C72.3729 48.9038 72.3555 48.8646 72.3555 48.821C72.3555 48.7948 72.3598 48.7643 72.3642 48.7294L74.435 43.3278C74.4568 43.2712 74.4873 43.2276 74.5266 43.1927C74.5658 43.1578 74.6225 43.1404 74.7009 43.1404H75.2677C75.3462 43.1404 75.4028 43.1578 75.4421 43.1927C75.4813 43.2276 75.5118 43.2712 75.5336 43.3278L77.5957 48.7294C77.6088 48.7643 77.6132 48.7948 77.6132 48.821C77.6132 48.8646 77.5957 48.9038 77.5608 48.9387C77.526 48.9735 77.4867 48.991 77.4431 48.991H77.0159C76.9505 48.991 76.8982 48.9735 76.8677 48.9387C76.8372 48.9038 76.8154 48.8733 76.8066 48.8471L76.3489 47.6613H73.611L73.1533 48.8471C73.1489 48.8733 73.1271 48.9038 73.0966 48.9387C73.0617 48.9735 73.0138 48.991 72.944 48.991H72.5255ZM73.8639 46.9463H76.1178L74.9887 43.9818L73.8639 46.9463Z" fill="white"/>
<path d="M79.9417 49.0728C79.6366 49.0728 79.3706 49.0205 79.1483 48.9115C78.9259 48.8025 78.7428 48.6542 78.6033 48.4668C78.4595 48.2793 78.3548 48.0657 78.2851 47.8259C78.2153 47.5861 78.1761 47.3333 78.163 47.0673C78.1587 46.9801 78.1543 46.893 78.1543 46.8188C78.1543 46.7404 78.1587 46.6575 78.163 46.5704C78.1761 46.3088 78.2153 46.0603 78.2851 45.8205C78.3548 45.5807 78.4595 45.3671 78.6033 45.1796C78.7472 44.9922 78.9259 44.8396 79.1483 44.7349C79.3706 44.626 79.6366 44.5736 79.9417 44.5736C80.2687 44.5736 80.5434 44.6303 80.7613 44.748C80.9793 44.8657 81.1581 45.0096 81.2976 45.184V43.2614C81.2976 43.2047 81.315 43.1611 81.3499 43.1219C81.3848 43.087 81.4327 43.0696 81.4894 43.0696H81.8905C81.9472 43.0696 81.9908 43.087 82.03 43.1219C82.0649 43.1568 82.0823 43.2047 82.0823 43.2614V48.8068C82.0823 48.8635 82.0649 48.9071 82.03 48.9463C81.9951 48.9812 81.9472 48.9986 81.8905 48.9986H81.5156C81.4545 48.9986 81.4066 48.9812 81.3717 48.9463C81.3368 48.9115 81.3194 48.8635 81.3194 48.8068V48.4581C81.1799 48.6368 81.0011 48.785 80.7788 48.9027C80.5564 49.0161 80.2774 49.0728 79.9417 49.0728ZM80.1161 48.397C80.3951 48.397 80.6175 48.3316 80.7831 48.2052C80.9488 48.0788 81.0752 47.9131 81.1581 47.7169C81.2409 47.5207 81.2845 47.3158 81.2932 47.1109C81.2976 47.0237 81.3019 46.9148 81.3019 46.7883C81.3019 46.6619 81.2976 46.5573 81.2932 46.4657C81.2889 46.2695 81.2409 46.0777 81.1537 45.8903C81.0665 45.7028 80.9401 45.5458 80.7701 45.4238C80.6 45.3017 80.3821 45.2407 80.1161 45.2407C79.8327 45.2407 79.606 45.3017 79.4404 45.4281C79.2747 45.5546 79.1527 45.7159 79.0829 45.9208C79.0088 46.1257 78.9695 46.3436 78.9565 46.5747C78.9521 46.736 78.9521 46.8973 78.9565 47.0586C78.9695 47.294 79.0088 47.512 79.0829 47.7126C79.157 47.9175 79.2747 48.0788 79.4404 48.2052C79.6104 48.336 79.8327 48.397 80.1161 48.397Z" fill="white"/>
<path d="M84.8371 48.9894C84.7542 48.9894 84.6888 48.9719 84.6409 48.9327C84.5929 48.8935 84.5581 48.8455 84.5275 48.7801L82.9842 44.9044C82.9712 44.8783 82.9668 44.8478 82.9668 44.8216C82.9668 44.7693 82.9842 44.73 83.0148 44.6952C83.0496 44.6603 83.0889 44.6472 83.1412 44.6472H83.5423C83.6033 44.6472 83.6513 44.6646 83.6861 44.6952C83.721 44.73 83.7428 44.7606 83.7515 44.7867L85.0202 48.0782L86.2888 44.7867C86.3019 44.7606 86.3193 44.73 86.3499 44.6952C86.3804 44.6603 86.4283 44.6472 86.4894 44.6472H86.8992C86.9428 44.6472 86.982 44.6646 87.0212 44.6952C87.0561 44.73 87.0736 44.7693 87.0736 44.8216C87.0736 44.8478 87.0692 44.8783 87.0561 44.9044L85.5041 48.7801C85.4823 48.8412 85.4474 48.8935 85.3995 48.9327C85.3515 48.9719 85.2861 48.9894 85.1946 48.9894H84.8371Z" fill="white"/>
<path d="M88.9918 49.0735C88.7127 49.0735 88.4599 49.0168 88.2332 48.9078C88.0065 48.7945 87.8234 48.6463 87.6839 48.4588C87.5444 48.2713 87.4746 48.0534 87.4746 47.8179C87.4746 47.4343 87.6316 47.1291 87.9411 46.8981C88.2506 46.6714 88.6604 46.5188 89.1618 46.449L90.4043 46.2746V46.0305C90.4043 45.7646 90.3258 45.5553 90.1732 45.4027C90.0206 45.2545 89.7721 45.176 89.4277 45.176C89.1836 45.176 88.983 45.224 88.8261 45.3242C88.6691 45.4245 88.5602 45.5509 88.4991 45.7079C88.4642 45.7907 88.4076 45.8343 88.3247 45.8343H87.9498C87.8888 45.8343 87.8408 45.8169 87.8103 45.782C87.7798 45.7471 87.7623 45.7035 87.7623 45.6512C87.7623 45.5684 87.7929 45.4638 87.8583 45.3417C87.9237 45.2196 88.0196 45.0975 88.1547 44.9842C88.2899 44.8665 88.4599 44.7706 88.6692 44.6877C88.8784 44.6093 89.1313 44.5657 89.4321 44.5657C89.7678 44.5657 90.0468 44.6093 90.2735 44.6965C90.5002 44.7836 90.6833 44.897 90.8141 45.0409C90.9449 45.1847 91.0408 45.3504 91.0974 45.5335C91.1541 45.7166 91.1846 45.9041 91.1846 46.0915V48.7989C91.1846 48.8555 91.1672 48.8991 91.1323 48.9384C91.0975 48.9732 91.0495 48.9907 90.9928 48.9907H90.6092C90.5481 48.9907 90.5002 48.9732 90.4653 48.9384C90.4304 48.9035 90.413 48.8555 90.413 48.7989V48.4414C90.3389 48.5416 90.243 48.6419 90.1209 48.7378C89.9988 48.8337 89.8462 48.9166 89.6631 48.982C89.4844 49.043 89.2621 49.0735 88.9918 49.0735ZM89.1705 48.4501C89.3972 48.4501 89.6065 48.4021 89.7983 48.3019C89.9858 48.206 90.1383 48.0534 90.2473 47.8485C90.3563 47.6436 90.4086 47.382 90.4086 47.0725V46.837L89.4408 46.9809C89.0441 47.0376 88.7476 47.1291 88.5471 47.2599C88.3465 47.3907 88.2463 47.5564 88.2463 47.7569C88.2463 47.9139 88.2899 48.0403 88.3858 48.1449C88.4773 48.2495 88.595 48.3237 88.7345 48.376C88.8741 48.4239 89.0179 48.4501 89.1705 48.4501Z" fill="white"/>
<path d="M92.5844 48.9907C92.5277 48.9907 92.4841 48.9732 92.4449 48.9384C92.41 48.9035 92.3926 48.8555 92.3926 48.7989V44.8403C92.3926 44.7837 92.41 44.7401 92.4449 44.7008C92.4798 44.6659 92.5277 44.6485 92.5844 44.6485H92.9768C93.0334 44.6485 93.077 44.6659 93.1163 44.7008C93.1512 44.7357 93.1686 44.7837 93.1686 44.8403V45.2065C93.3125 45.0191 93.4956 44.8621 93.7135 44.7444C93.9315 44.6267 94.2149 44.5657 94.5593 44.5657C94.9212 44.5657 95.2307 44.6441 95.4835 44.8054C95.7364 44.9624 95.9282 45.1847 96.059 45.4638C96.1898 45.7471 96.2552 46.0741 96.2552 46.4447V48.7989C96.2552 48.8555 96.2378 48.8991 96.2029 48.9384C96.168 48.9732 96.1201 48.9907 96.0634 48.9907H95.6449C95.5882 48.9907 95.5446 48.9732 95.5053 48.9384C95.4705 48.9035 95.453 48.8555 95.453 48.7989V46.4839C95.453 46.0959 95.3571 45.7907 95.1697 45.5684C94.9822 45.3504 94.7032 45.2371 94.3326 45.2371C93.9882 45.2371 93.7092 45.346 93.4999 45.5684C93.2907 45.7907 93.186 46.0915 93.186 46.4839V48.7989C93.186 48.8555 93.1686 48.8991 93.1337 48.9384C93.0988 48.9732 93.0509 48.9907 92.9942 48.9907H92.5844V48.9907Z" fill="white"/>
<path d="M99.2061 49.0737C98.8094 49.0737 98.4693 48.9952 98.1816 48.8426C97.8939 48.69 97.6715 48.4677 97.5189 48.1843C97.362 47.8966 97.2792 47.5522 97.2704 47.1511C97.2661 47.0683 97.2617 46.9549 97.2617 46.8154C97.2617 46.6759 97.2661 46.5669 97.2704 46.4797C97.2835 46.0786 97.3663 45.7342 97.5189 45.4465C97.6759 45.1587 97.8982 44.9408 98.1816 44.7882C98.4693 44.6356 98.8094 44.5571 99.2061 44.5571C99.5287 44.5571 99.8077 44.6007 100.039 44.6923C100.27 44.7795 100.462 44.8972 100.61 45.0367C100.758 45.1762 100.871 45.3244 100.95 45.4857C101.024 45.647 101.063 45.7996 101.072 45.9435C101.076 46.0002 101.059 46.0438 101.024 46.0786C100.985 46.1135 100.937 46.1309 100.88 46.1309H100.479C100.422 46.1309 100.383 46.1179 100.353 46.0917C100.327 46.0656 100.296 46.0219 100.27 45.9609C100.17 45.6863 100.034 45.4944 99.86 45.3855C99.6857 45.2721 99.472 45.2198 99.2192 45.2198C98.8835 45.2198 98.6132 45.3244 98.4039 45.5293C98.1947 45.7342 98.0813 46.0655 98.0639 46.5233C98.0595 46.7238 98.0595 46.92 98.0639 47.1075C98.0813 47.5696 98.1947 47.9009 98.4039 48.1058C98.6132 48.3107 98.8835 48.411 99.2192 48.411C99.4764 48.411 99.69 48.3543 99.86 48.2454C100.034 48.132 100.17 47.9402 100.27 47.6699C100.296 47.6089 100.327 47.5653 100.353 47.5347C100.379 47.5086 100.422 47.4911 100.479 47.4911H100.88C100.937 47.4911 100.985 47.5086 101.024 47.5435C101.063 47.5783 101.081 47.6263 101.072 47.683C101.068 47.8007 101.042 47.9184 100.998 48.0405C100.954 48.1625 100.88 48.2846 100.784 48.411C100.688 48.5375 100.566 48.6464 100.422 48.7467C100.279 48.8426 100.104 48.9211 99.9036 48.9821C99.6987 49.0475 99.4677 49.0737 99.2061 49.0737Z" fill="white"/>
<path d="M103.798 49.0735C103.218 49.0735 102.76 48.8948 102.42 48.5416C102.08 48.1885 101.893 47.7046 101.862 47.0942C101.858 47.0201 101.854 46.9286 101.854 46.8152C101.854 46.7019 101.858 46.606 101.862 46.5362C101.884 46.1395 101.976 45.7951 102.137 45.4986C102.298 45.2022 102.521 44.9711 102.8 44.8098C103.079 44.6485 103.41 44.5657 103.789 44.5657C104.212 44.5657 104.565 44.6529 104.853 44.8316C105.141 45.0103 105.359 45.2632 105.507 45.5902C105.659 45.9172 105.734 46.3008 105.734 46.7411V46.885C105.734 46.946 105.716 46.994 105.681 47.0289C105.646 47.0637 105.598 47.0812 105.542 47.0812H102.651C102.651 47.0855 102.651 47.0986 102.651 47.1161C102.651 47.1335 102.651 47.1466 102.651 47.1596C102.664 47.3863 102.712 47.6 102.804 47.7961C102.891 47.9923 103.022 48.1536 103.192 48.2757C103.362 48.3978 103.562 48.4588 103.789 48.4588C103.99 48.4588 104.155 48.4283 104.291 48.3673C104.426 48.3062 104.535 48.2365 104.618 48.1624C104.7 48.0882 104.757 48.0272 104.783 47.9836C104.835 47.9182 104.87 47.8746 104.901 47.8615C104.927 47.8485 104.975 47.8397 105.036 47.8397H105.446C105.498 47.8397 105.537 47.8572 105.577 47.8877C105.612 47.9182 105.629 47.9618 105.62 48.0185C105.616 48.1013 105.568 48.2016 105.485 48.3237C105.402 48.4414 105.285 48.5634 105.132 48.6768C104.979 48.7945 104.788 48.8904 104.565 48.9645C104.338 49.0386 104.081 49.0735 103.798 49.0735ZM102.656 46.5013H104.944V46.4752C104.944 46.2267 104.901 46 104.805 45.8082C104.713 45.612 104.583 45.4594 104.408 45.346C104.234 45.2327 104.029 45.176 103.789 45.176C103.549 45.176 103.345 45.2327 103.174 45.346C103.004 45.4594 102.874 45.6163 102.786 45.8082C102.699 46.0043 102.651 46.2267 102.651 46.4752V46.5013H102.656Z" fill="white"/>
<path d="M108.323 49.0728C108.017 49.0728 107.751 49.0205 107.529 48.9115C107.307 48.8025 107.124 48.6542 106.984 48.4668C106.84 48.2793 106.736 48.0657 106.666 47.8259C106.596 47.5861 106.557 47.3333 106.544 47.0673C106.54 46.9801 106.535 46.893 106.535 46.8188C106.535 46.7404 106.54 46.6575 106.544 46.5704C106.557 46.3088 106.596 46.0603 106.666 45.8205C106.736 45.5807 106.84 45.3671 106.984 45.1796C107.128 44.9922 107.307 44.8396 107.529 44.7349C107.751 44.626 108.017 44.5736 108.323 44.5736C108.65 44.5736 108.924 44.6303 109.142 44.748C109.36 44.8657 109.539 45.0096 109.678 45.184V43.2614C109.678 43.2047 109.696 43.1611 109.731 43.1219C109.766 43.087 109.814 43.0696 109.87 43.0696H110.271C110.328 43.0696 110.372 43.087 110.411 43.1219C110.446 43.1568 110.463 43.2047 110.463 43.2614V48.8068C110.463 48.8635 110.446 48.9071 110.411 48.9463C110.376 48.9812 110.328 48.9986 110.271 48.9986H109.896C109.835 48.9986 109.787 48.9812 109.753 48.9463C109.718 48.9115 109.7 48.8635 109.7 48.8068V48.4581C109.561 48.6368 109.382 48.785 109.155 48.9027C108.937 49.0161 108.658 49.0728 108.323 49.0728ZM108.501 48.397C108.78 48.397 109.003 48.3316 109.168 48.2052C109.334 48.0788 109.46 47.9131 109.543 47.7169C109.626 47.5207 109.67 47.3158 109.678 47.1109C109.683 47.0237 109.687 46.9148 109.687 46.7883C109.687 46.6619 109.683 46.5573 109.678 46.4657C109.674 46.2695 109.626 46.0777 109.539 45.8903C109.452 45.7028 109.325 45.5458 109.155 45.4238C108.985 45.3017 108.767 45.2407 108.501 45.2407C108.218 45.2407 107.991 45.3017 107.826 45.4281C107.66 45.5546 107.538 45.7159 107.468 45.9208C107.394 46.1257 107.355 46.3436 107.342 46.5747C107.337 46.736 107.337 46.8973 107.342 47.0586C107.355 47.294 107.394 47.512 107.468 47.7126C107.542 47.9175 107.66 48.0788 107.826 48.2052C107.991 48.336 108.214 48.397 108.501 48.397Z" fill="white"/>
<path d="M111.84 48.9906C111.784 48.9906 111.74 48.9732 111.701 48.9383C111.666 48.9035 111.648 48.8555 111.648 48.7988V48.1972C111.648 48.1405 111.666 48.0969 111.701 48.0577C111.736 48.0228 111.784 48.0054 111.84 48.0054H112.442C112.499 48.0054 112.547 48.0228 112.586 48.0577C112.625 48.0926 112.642 48.1405 112.642 48.1972V48.7988C112.642 48.8555 112.625 48.8991 112.586 48.9383C112.547 48.9732 112.499 48.9906 112.442 48.9906H111.84Z" fill="white"/>
<path d="M116.157 48.99C116.096 48.99 116.048 48.9726 116.013 48.9377C115.978 48.9029 115.965 48.8549 115.965 48.7982V43.3443C115.965 43.2833 115.982 43.2353 116.013 43.1961C116.048 43.1612 116.096 43.1438 116.157 43.1438H118.275C118.69 43.1438 119.047 43.2092 119.348 43.3443C119.653 43.4795 119.888 43.6757 120.054 43.9416C120.22 44.2076 120.303 44.5345 120.303 44.9312C120.303 45.328 120.22 45.6549 120.054 45.9165C119.888 46.1781 119.653 46.3743 119.348 46.5094C119.043 46.6446 118.685 46.71 118.275 46.71H116.798V48.7982C116.798 48.8549 116.78 48.8985 116.745 48.9377C116.71 48.9726 116.662 48.99 116.597 48.99H116.157ZM116.789 46.0124H118.232C118.642 46.0124 118.951 45.9209 119.16 45.7378C119.365 45.5547 119.47 45.2887 119.47 44.9356C119.47 44.5912 119.37 44.3253 119.169 44.1334C118.969 43.946 118.659 43.8501 118.236 43.8501H116.793V46.0124H116.789Z" fill="white"/>
<path d="M122.343 49.0735C122.064 49.0735 121.811 49.0168 121.585 48.9078C121.358 48.7945 121.171 48.6463 121.035 48.4588C120.896 48.2713 120.826 48.0534 120.826 47.8179C120.826 47.4343 120.983 47.1291 121.293 46.8981C121.602 46.6714 122.012 46.5188 122.513 46.449L123.756 46.2746V46.0305C123.756 45.7646 123.677 45.5553 123.525 45.4027C123.372 45.2545 123.124 45.176 122.779 45.176C122.535 45.176 122.335 45.224 122.178 45.3242C122.021 45.4245 121.912 45.5509 121.851 45.7079C121.816 45.7907 121.759 45.8343 121.676 45.8343H121.301C121.24 45.8343 121.192 45.8169 121.162 45.782C121.131 45.7471 121.114 45.7035 121.114 45.6512C121.114 45.5684 121.144 45.4638 121.21 45.3417C121.275 45.2196 121.371 45.0975 121.506 44.9842C121.641 44.8665 121.811 44.7706 122.021 44.6877C122.23 44.6093 122.483 44.5657 122.784 44.5657C123.119 44.5657 123.398 44.6093 123.625 44.6965C123.852 44.7836 124.035 44.897 124.166 45.0409C124.296 45.1847 124.392 45.3504 124.449 45.5335C124.506 45.7166 124.536 45.9041 124.536 46.0915V48.7989C124.536 48.8555 124.519 48.8991 124.484 48.9384C124.449 48.9732 124.401 48.9907 124.344 48.9907H123.961C123.9 48.9907 123.852 48.9732 123.817 48.9384C123.782 48.9035 123.773 48.8555 123.773 48.7989V48.4414C123.699 48.5416 123.603 48.6419 123.481 48.7378C123.359 48.8337 123.207 48.9166 123.023 48.982C122.836 49.043 122.609 49.0735 122.343 49.0735ZM122.518 48.4501C122.744 48.4501 122.954 48.4021 123.145 48.3019C123.333 48.206 123.486 48.0534 123.595 47.8485C123.704 47.6436 123.756 47.382 123.756 47.0725V46.837L122.788 46.9809C122.391 47.0376 122.095 47.1291 121.894 47.2599C121.694 47.3907 121.593 47.5564 121.593 47.7569C121.593 47.9139 121.641 48.0403 121.733 48.1449C121.825 48.2495 121.942 48.3237 122.082 48.376C122.221 48.4239 122.369 48.4501 122.518 48.4501Z" fill="white"/>
<path d="M126.41 50.576C126.366 50.576 126.327 50.5586 126.292 50.5237C126.257 50.4888 126.24 50.4496 126.24 50.406C126.24 50.3842 126.244 50.3624 126.249 50.3406C126.253 50.3188 126.266 50.2883 126.284 50.2578L126.924 48.7275L125.329 44.9608C125.303 44.8954 125.285 44.8475 125.285 44.817C125.285 44.7646 125.303 44.7254 125.337 44.6905C125.372 44.6557 125.412 44.6426 125.464 44.6426H125.874C125.935 44.6426 125.983 44.6557 126.013 44.6862C126.044 44.7123 126.066 44.7472 126.074 44.7865L127.343 47.8251L128.646 44.7865C128.664 44.7472 128.686 44.7123 128.716 44.6862C128.747 44.66 128.795 44.6426 128.856 44.6426H129.248C129.3 44.6426 129.34 44.66 129.374 44.6905C129.409 44.7211 129.427 44.7646 129.427 44.8082C129.427 44.8344 129.414 44.8867 129.383 44.9608L127.012 50.4321C126.994 50.4714 126.972 50.5063 126.942 50.5324C126.911 50.5586 126.863 50.576 126.802 50.576H126.41V50.576Z" fill="white"/>
<path d="M130.452 48.9907C130.395 48.9907 130.351 48.9733 130.312 48.9384C130.277 48.9035 130.26 48.8556 130.26 48.7989V44.8404C130.26 44.7837 130.277 44.7401 130.312 44.7009C130.347 44.666 130.395 44.6486 130.452 44.6486H130.827C130.883 44.6486 130.927 44.666 130.966 44.7009C131.001 44.7358 131.018 44.7837 131.018 44.8404V45.1325C131.145 44.9581 131.306 44.8229 131.502 44.7183C131.698 44.6137 131.929 44.5657 132.204 44.5657C132.832 44.5614 133.277 44.8142 133.538 45.333C133.665 45.0976 133.852 44.9145 134.096 44.775C134.34 44.6355 134.619 44.5657 134.933 44.5657C135.221 44.5657 135.487 44.6311 135.722 44.7663C135.958 44.9014 136.145 45.102 136.28 45.3723C136.416 45.6426 136.485 45.9826 136.485 46.388V48.8033C136.485 48.8599 136.468 48.9035 136.433 48.9428C136.398 48.9777 136.35 48.9951 136.293 48.9951H135.901C135.844 48.9951 135.801 48.9777 135.762 48.9428C135.727 48.9079 135.709 48.8599 135.709 48.8033V46.4665C135.709 46.157 135.666 45.9085 135.574 45.7297C135.487 45.551 135.365 45.4246 135.217 45.3548C135.068 45.2807 134.903 45.2458 134.724 45.2458C134.58 45.2458 134.432 45.2807 134.279 45.3548C134.127 45.4289 134.005 45.551 133.909 45.7297C133.813 45.9085 133.761 46.1526 133.761 46.4665V48.8033C133.761 48.8599 133.743 48.9035 133.708 48.9428C133.673 48.9777 133.625 48.9951 133.569 48.9951H133.176C133.12 48.9951 133.076 48.9777 133.037 48.9428C133.002 48.9079 132.985 48.8599 132.985 48.8033V46.4665C132.985 46.157 132.937 45.9085 132.841 45.7297C132.745 45.551 132.623 45.4246 132.474 45.3548C132.326 45.2807 132.165 45.2458 131.999 45.2458C131.855 45.2458 131.707 45.2807 131.555 45.3548C131.406 45.4289 131.28 45.551 131.184 45.7297C131.088 45.9085 131.036 46.1483 131.036 46.4578V48.8033C131.036 48.8599 131.018 48.9035 130.983 48.9428C130.949 48.9777 130.901 48.9951 130.844 48.9951H130.452V48.9907Z" fill="white"/>
<path d="M139.419 49.0735C138.839 49.0735 138.381 48.8948 138.041 48.5416C137.701 48.1885 137.514 47.7046 137.483 47.0942C137.479 47.0201 137.475 46.9286 137.475 46.8152C137.475 46.7019 137.479 46.606 137.483 46.5362C137.505 46.1395 137.597 45.7951 137.758 45.4986C137.919 45.2022 138.142 44.9711 138.421 44.8098C138.7 44.6485 139.031 44.5657 139.41 44.5657C139.833 44.5657 140.186 44.6529 140.474 44.8316C140.762 45.0103 140.98 45.2632 141.128 45.5902C141.276 45.9172 141.355 46.3008 141.355 46.7411V46.885C141.355 46.946 141.337 46.994 141.302 47.0289C141.267 47.0637 141.22 47.0812 141.163 47.0812H138.272C138.272 47.0855 138.272 47.0986 138.272 47.1161C138.272 47.1335 138.272 47.1466 138.272 47.1596C138.286 47.3863 138.333 47.6 138.421 47.7961C138.508 47.9923 138.639 48.1536 138.809 48.2757C138.979 48.3978 139.179 48.4588 139.406 48.4588C139.606 48.4588 139.772 48.4283 139.907 48.3673C140.042 48.3062 140.151 48.2365 140.234 48.1624C140.317 48.0882 140.374 48.0272 140.4 47.9836C140.452 47.9182 140.487 47.8746 140.518 47.8615C140.548 47.8485 140.592 47.8397 140.653 47.8397H141.063C141.115 47.8397 141.154 47.8572 141.193 47.8877C141.228 47.9182 141.246 47.9618 141.241 48.0185C141.237 48.1013 141.189 48.2016 141.106 48.3237C141.023 48.4414 140.906 48.5634 140.753 48.6768C140.6 48.7945 140.409 48.8904 140.186 48.9645C139.955 49.0386 139.702 49.0735 139.419 49.0735ZM138.272 46.5013H140.561V46.4752C140.561 46.2267 140.513 46 140.422 45.8082C140.33 45.612 140.199 45.4594 140.025 45.346C139.851 45.2327 139.646 45.176 139.406 45.176C139.166 45.176 138.961 45.2327 138.791 45.346C138.621 45.4594 138.49 45.6163 138.403 45.8082C138.316 46.0043 138.268 46.2267 138.268 46.4752V46.5013H138.272Z" fill="white"/>
<path d="M142.549 48.9907C142.493 48.9907 142.449 48.9732 142.41 48.9384C142.375 48.9035 142.357 48.8555 142.357 48.7989V44.8403C142.357 44.7837 142.375 44.7401 142.41 44.7008C142.445 44.6659 142.493 44.6485 142.549 44.6485H142.942C142.998 44.6485 143.042 44.6659 143.081 44.7008C143.116 44.7357 143.133 44.7837 143.133 44.8403V45.2065C143.277 45.0191 143.46 44.8621 143.678 44.7444C143.896 44.6267 144.18 44.5657 144.524 44.5657C144.886 44.5657 145.196 44.6441 145.448 44.8054C145.701 44.9624 145.893 45.1847 146.024 45.4638C146.155 45.7471 146.22 46.0741 146.22 46.4447V48.7989C146.22 48.8555 146.203 48.8991 146.168 48.9384C146.133 48.9732 146.085 48.9907 146.028 48.9907H145.61C145.553 48.9907 145.509 48.9732 145.47 48.9384C145.435 48.9035 145.418 48.8555 145.418 48.7989V46.4839C145.418 46.0959 145.322 45.7907 145.134 45.5684C144.947 45.3504 144.668 45.2371 144.297 45.2371C143.953 45.2371 143.674 45.346 143.465 45.5684C143.256 45.7907 143.151 46.0915 143.151 46.4839V48.7989C143.151 48.8555 143.133 48.8991 143.099 48.9384C143.064 48.9732 143.016 48.9907 142.959 48.9907H142.549V48.9907Z" fill="white"/>
<path d="M149.055 48.9901C148.741 48.9901 148.488 48.9291 148.296 48.8114C148.1 48.6937 147.961 48.5236 147.869 48.3013C147.782 48.0833 147.734 47.8217 147.734 47.5209V45.315H147.084C147.028 45.315 146.984 45.2975 146.945 45.2626C146.91 45.2278 146.893 45.1798 146.893 45.1231V44.8398C146.893 44.7831 146.91 44.7395 146.945 44.7003C146.98 44.6654 147.028 44.6479 147.084 44.6479H147.734V43.2529C147.734 43.1962 147.751 43.1526 147.786 43.1133C147.821 43.0785 147.869 43.061 147.926 43.061H148.318C148.375 43.061 148.418 43.0785 148.458 43.1133C148.493 43.1482 148.51 43.1962 148.51 43.2529V44.6479H149.548C149.609 44.6479 149.657 44.6654 149.691 44.7003C149.726 44.7351 149.744 44.7831 149.744 44.8398V45.1231C149.744 45.1798 149.726 45.2234 149.691 45.2626C149.657 45.2975 149.609 45.315 149.548 45.315H148.51V47.4599C148.51 47.7215 148.554 47.9264 148.645 48.079C148.732 48.2272 148.894 48.3057 149.12 48.3057H149.63C149.687 48.3057 149.731 48.3231 149.77 48.358C149.805 48.3928 149.822 48.4408 149.822 48.4975V48.7983C149.822 48.855 149.805 48.8986 149.77 48.9378C149.735 48.9727 149.687 48.9901 149.63 48.9901H149.055V48.9901Z" fill="white"/>
<path d="M152.129 49.0737C151.815 49.0737 151.549 49.0345 151.326 48.956C151.104 48.8775 150.921 48.7816 150.781 48.6726C150.642 48.5592 150.537 48.4503 150.468 48.3369C150.398 48.2236 150.359 48.1364 150.354 48.071C150.35 48.0099 150.367 47.962 150.411 47.9271C150.454 47.8922 150.498 47.8748 150.546 47.8748H150.921C150.947 47.8748 150.973 47.8791 150.991 47.8879C151.008 47.8966 151.039 47.9184 151.069 47.9576C151.143 48.0361 151.222 48.1146 151.313 48.193C151.4 48.2715 151.514 48.3369 151.645 48.3849C151.775 48.4328 151.937 48.459 152.133 48.459C152.416 48.459 152.652 48.4067 152.835 48.2977C153.018 48.1887 153.109 48.0274 153.109 47.8181C153.109 47.6786 153.07 47.5696 152.996 47.4824C152.922 47.3996 152.787 47.3255 152.595 47.2557C152.403 47.1903 152.142 47.1206 151.806 47.0465C151.47 46.968 151.209 46.8721 151.012 46.7587C150.816 46.6454 150.677 46.5102 150.594 46.3489C150.511 46.192 150.468 46.0089 150.468 45.8083C150.468 45.6034 150.529 45.4029 150.651 45.2111C150.773 45.0192 150.951 44.8623 151.191 44.7402C151.427 44.6182 151.723 44.5571 152.081 44.5571C152.368 44.5571 152.617 44.592 152.822 44.6661C153.027 44.7402 153.197 44.8274 153.332 44.9364C153.467 45.0454 153.567 45.1544 153.633 45.259C153.698 45.3637 153.737 45.4552 153.742 45.525C153.746 45.5816 153.729 45.6252 153.689 45.6645C153.65 45.6993 153.606 45.7168 153.554 45.7168H153.205C153.166 45.7168 153.136 45.7081 153.109 45.6906C153.083 45.6732 153.061 45.6557 153.04 45.6339C152.983 45.5598 152.918 45.4901 152.844 45.416C152.769 45.3418 152.669 45.2852 152.551 45.2372C152.434 45.1893 152.272 45.1675 152.081 45.1675C151.802 45.1675 151.592 45.2241 151.453 45.3419C151.313 45.4596 151.244 45.6078 151.244 45.7822C151.244 45.8868 151.274 45.9827 151.335 46.0656C151.396 46.1484 151.514 46.2225 151.684 46.2922C151.858 46.3576 152.111 46.4318 152.451 46.5102C152.817 46.5843 153.109 46.6803 153.319 46.8023C153.532 46.9244 153.681 47.0683 153.768 47.2296C153.855 47.3909 153.903 47.5783 153.903 47.7876C153.903 48.023 153.837 48.2366 153.702 48.4285C153.567 48.6246 153.367 48.7772 153.101 48.8906C152.835 49.0039 152.517 49.0737 152.129 49.0737Z" fill="white"/>
<path d="M155.02 48.9906C154.963 48.9906 154.92 48.9732 154.88 48.9383C154.846 48.9035 154.828 48.8555 154.828 48.7988V48.1972C154.828 48.1405 154.846 48.0969 154.88 48.0577C154.915 48.0228 154.963 48.0054 155.02 48.0054H155.622C155.678 48.0054 155.726 48.0228 155.765 48.0577C155.805 48.0926 155.822 48.1405 155.822 48.1972V48.7988C155.822 48.8555 155.805 48.8991 155.765 48.9383C155.726 48.9732 155.678 48.9906 155.622 48.9906H155.02Z" fill="white"/>
<defs>
<linearGradient id="paint0_linear_523_3478" x1="108.741" y1="-21.6332" x2="33.7653" y2="71.6519" gradientUnits="userSpaceOnUse">
<stop stop-color="#AFFCAF"/>
<stop offset="0.0346" stop-color="#9EF9B6"/>
<stop offset="0.1244" stop-color="#79F2C6"/>
<stop offset="0.2216" stop-color="#59ECD4"/>
<stop offset="0.3263" stop-color="#3FE7DF"/>
<stop offset="0.4411" stop-color="#2BE4E8"/>
<stop offset="0.5715" stop-color="#1DE1EE"/>
<stop offset="0.7305" stop-color="#14DFF2"/>
<stop offset="1" stop-color="#12DFF3"/>
</linearGradient>
<linearGradient id="paint1_linear_523_3478" x1="151.218" y1="5.67853" x2="162.526" y2="5.67853" gradientUnits="userSpaceOnUse">
<stop stop-color="#2980B9"/>
<stop offset="0.00262131" stop-color="#2A81BA"/>
<stop offset="0.0664" stop-color="#42A0D1"/>
<stop offset="0.1332" stop-color="#55B7E3"/>
<stop offset="0.2046" stop-color="#63C8F0"/>
<stop offset="0.2829" stop-color="#6AD2F8"/>
<stop offset="0.3812" stop-color="#6DD5FA"/>
<stop offset="0.6391" stop-color="#6FD6FA"/>
<stop offset="0.732" stop-color="#76D7FA"/>
<stop offset="0.7983" stop-color="#81DBFB"/>
<stop offset="0.8518" stop-color="#92E0FB"/>
<stop offset="0.8977" stop-color="#A8E6FC"/>
<stop offset="0.9383" stop-color="#C4EEFD"/>
<stop offset="0.9741" stop-color="#E3F7FE"/>
<stop offset="1" stop-color="white"/>
</linearGradient>
<linearGradient id="paint2_linear_523_3478" x1="144.979" y1="18.4482" x2="156.447" y2="18.4482" gradientUnits="userSpaceOnUse">
<stop stop-color="#D939F2"/>
<stop offset="0.4442" stop-color="#D739F2"/>
<stop offset="0.6042" stop-color="#D037F1"/>
<stop offset="0.7182" stop-color="#C535EF"/>
<stop offset="0.8104" stop-color="#B432ED"/>
<stop offset="0.8894" stop-color="#9E2EEA"/>
<stop offset="0.9581" stop-color="#832AE7"/>
<stop offset="0.9992" stop-color="#6F26E4"/>
</linearGradient>
</defs>
</svg>
