<?xml version="1.0" standalone="no"?>
<!DOCTYPE svg PUBLIC "-//W3C//DTD SVG 20010904//EN"
 "http://www.w3.org/TR/2001/REC-SVG-20010904/DTD/svg10.dtd">
<svg version="1.0" xmlns="http://www.w3.org/2000/svg"
 width="551.000000pt" height="551.000000pt" viewBox="0 0 551.000000 551.000000"
 preserveAspectRatio="xMidYMid meet">
<metadata>
Created by potrace 1.14, written by Peter Selinger 2001-2017
</metadata>
<g transform="translate(0.000000,551.000000) scale(0.100000,-0.100000)"
fill="#000000" stroke="none">
<path d="M2127 4656 c-15 -8 -500 -488 -1077 -1066 -1167 -1167 -1073 -1060
-985 -1120 64 -44 146 -70 265 -86 36 -5 300 -4 335 1 17 2 57 7 89 9 33 3 66
8 75 10 9 3 39 7 66 11 81 9 235 40 405 80 347 81 980 286 1227 396 24 10 45
19 48 19 7 0 288 117 363 151 34 16 64 29 67 29 2 0 46 19 97 43 51 24 123 56
160 72 l68 30 -1 160 c-1 122 -4 166 -16 189 -21 41 -1046 1064 -1078 1076
-37 14 -75 12 -108 -4z"/>
<path d="M3638 4557 c-48 -29 -87 -54 -87 -57 0 -3 54 -48 120 -100 121 -96
142 -112 176 -140 10 -8 72 -58 138 -110 66 -52 122 -97 125 -100 18 -19 98
-79 101 -76 2 2 20 7 39 10 19 3 60 10 90 16 30 6 73 13 95 16 l40 5 -35 -22
c-19 -12 -69 -43 -110 -69 -59 -38 -441 -269 -472 -287 -4 -2 -27 1 -50 8 -24
6 -52 13 -63 15 -11 2 -66 14 -122 27 l-101 23 -61 -35 c-33 -20 -61 -38 -61
-41 0 -3 70 -36 155 -74 85 -37 155 -69 155 -71 0 -4 -52 -61 -118 -128 -36
-37 -50 -57 -37 -53 11 3 62 17 114 31 100 28 122 27 116 -3 -2 -10 -6 -66
-10 -123 -4 -57 -8 -121 -10 -141 -2 -21 -1 -39 3 -42 4 -2 26 9 50 25 23 16
47 29 52 29 15 0 20 15 66 182 24 89 49 165 56 170 52 35 411 248 417 248 7 0
20 -52 38 -150 2 -14 12 -68 23 -120 10 -52 35 -180 56 -285 20 -104 37 -194
39 -200 1 -5 8 -45 15 -87 8 -43 18 -78 23 -78 6 0 46 23 91 51 45 29 82 52
83 53 1 1 4 28 8 61 4 33 8 71 11 85 2 14 7 59 10 100 4 41 8 82 9 90 1 8 5
47 9 85 4 39 9 84 11 100 2 17 7 64 11 105 3 41 8 77 9 80 2 3 6 43 10 89 4
46 8 91 10 101 2 9 6 53 10 96 4 43 9 86 10 95 3 15 -1 16 -32 7 -19 -5 -36
-8 -38 -6 -2 2 42 28 98 57 186 98 413 240 457 285 94 97 124 172 79 196 -25
14 -115 6 -182 -16 -26 -9 -145 -74 -265 -146 -119 -72 -222 -133 -229 -135
-11 -4 -108 33 -766 293 -159 63 -289 114 -290 113 -1 0 -41 -24 -89 -52z"/>
<path d="M3305 3084 c-68 -36 -544 -273 -590 -294 -27 -12 -79 -36 -115 -52
-294 -136 -743 -315 -1073 -427 -177 -60 -443 -144 -494 -156 -10 -3 -79 -20
-153 -39 -113 -30 -217 -53 -360 -81 -48 -10 -195 -33 -240 -39 -25 -3 -67 -8
-95 -12 -27 -3 -51 -7 -52 -8 -1 -1 233 -238 521 -526 305 -306 536 -530 554
-537 18 -7 42 -11 54 -9 13 3 29 5 36 5 15 1 2008 1985 2024 2015 8 14 20 177
13 176 0 0 -13 -7 -30 -16z"/>
</g>
</svg>
