<?xml version="1.0" encoding="utf-8"?>
<svg xml:space="preserve" viewBox="0 0 100 100" y="0" x="0" xmlns="http://www.w3.org/2000/svg" id="圖層_1" version="1.1" style="height: 100%; width: 100%; background: none; shape-rendering: auto;" width="200px" height="200px"><g class="ldl-scale" style="transform-origin: 50% 50%; transform: rotate(0deg) scale(0.59, 0.59);"><g class="ldl-ani" style="transform-origin: 50px 50px; transform: rotate(0deg); animation: 5s linear 0s infinite alternate forwards running spin-d2ebc360-b04c-4218-92ca-2b2656b32e4b;"><g class="ldl-layer"><g class="ldl-ani" style="transform-origin: 50px 50px;"><path stroke-miterlimit="10" stroke-linejoin="round" stroke-linecap="round" stroke-width="4.016" stroke="#333" fill="#f5e6c8" d="M58.368 69.302h0c0-5.33 4.321-9.651 9.651-9.651-5.33 0-9.651-4.321-9.651-9.651s4.321-9.651 9.651-9.651c-5.33 0-9.651-4.321-9.651-9.651s4.321-9.651 9.651-9.651H31.981c5.33 0 9.651 4.321 9.651 9.651s-4.321 9.651-9.651 9.651c5.33 0 9.651 4.321 9.651 9.651s-4.321 9.651-9.651 9.651c5.33 0 9.651 4.321 9.651 9.651v0c0 5.33-4.321 9.651-9.651 9.651h36.037c-5.329 0-9.65-4.321-9.65-9.651z" style="fill: rgb(245, 230, 200); stroke: rgb(51, 51, 51);"></path></g></g><g class="ldl-layer"><g class="ldl-ani" style="transform-origin: 50px 50px;"><path stroke-miterlimit="10" stroke-linejoin="round" stroke-linecap="round" stroke-width="4.016" stroke="#333" fill="#f5e6c8" d="M31.981 40.349c5.33 0 9.651-4.321 9.651-9.651s-4.321-9.651-9.651-9.651H18.956c-3.673 0-6.79 2.348-7.955 5.621v13.68h20.98z" style="fill: rgb(245, 230, 200); stroke: rgb(51, 51, 51);"></path></g></g><g class="ldl-layer"><g class="ldl-ani" style="transform-origin: 50px 50px;"><path stroke-miterlimit="10" stroke-linejoin="round" stroke-linecap="round" stroke-width="4.016" stroke="#333" fill="#f5e6c8" d="M11 59.651h20.981c5.33 0 9.651-4.321 9.651-9.651s-4.321-9.651-9.651-9.651H11v19.302z" style="fill: rgb(245, 230, 200); stroke: rgb(51, 51, 51);"></path></g></g><g class="ldl-layer"><g class="ldl-ani" style="transform-origin: 50px 50px;"><path stroke-miterlimit="10" stroke-linejoin="round" stroke-linecap="round" stroke-width="4.016" stroke="#333" fill="#f5e6c8" d="M41.632 69.302h0c0-5.33-4.321-9.651-9.651-9.651H11v13.68c1.165 3.273 4.282 5.621 7.955 5.621h13.026c5.33.001 9.651-4.32 9.651-9.65z" style="fill: rgb(245, 230, 200); stroke: rgb(51, 51, 51);"></path></g></g><g class="ldl-layer"><g class="ldl-ani" style="transform-origin: 50px 50px;"><path stroke-miterlimit="10" stroke-linejoin="round" stroke-linecap="round" stroke-width="4.016" stroke="#333" fill="#f5e6c8" d="M58.368 30.698c0 5.33 4.321 9.651 9.651 9.651H89v-13.68c-1.165-3.273-4.282-5.621-7.955-5.621H68.019c-5.33-.001-9.651 4.32-9.651 9.65z" style="fill: rgb(245, 230, 200); stroke: rgb(51, 51, 51);"></path></g></g><g class="ldl-layer"><g class="ldl-ani" style="transform-origin: 50px 50px;"><path stroke-miterlimit="10" stroke-linejoin="round" stroke-linecap="round" stroke-width="4.016" stroke="#333" fill="#f5e6c8" d="M58.368 50c0 5.33 4.321 9.651 9.651 9.651H89V40.349H68.019c-5.33 0-9.651 4.321-9.651 9.651z" style="fill: rgb(245, 230, 200); stroke: rgb(51, 51, 51);"></path></g></g><g class="ldl-layer"><g class="ldl-ani" style="transform-origin: 50px 50px;"><path stroke-miterlimit="10" stroke-linejoin="round" stroke-linecap="round" stroke-width="4.016" stroke="#333" fill="#f5e6c8" d="M68.019 59.651c-5.33 0-9.651 4.321-9.651 9.651v0c0 5.33 4.321 9.651 9.651 9.651h13.026c3.673 0 6.79-2.348 7.955-5.621v-13.68H68.019z" style="fill: rgb(245, 230, 200); stroke: rgb(51, 51, 51);"></path></g></g><metadata xmlns:d="https://loading.io/stock/"><d:name>sim card</d:name><d:tags>sim card,chip,smart card,id</d:tags><d:license>by</d:license><d:slug>7obx0b</d:slug></metadata></g></g><style id="spin-d2ebc360-b04c-4218-92ca-2b2656b32e4b" data-anikit="">@keyframes spin-d2ebc360-b04c-4218-92ca-2b2656b32e4b
{
  0% {
    animation-timing-function: cubic-bezier(0.5856,0.0703,0.4143,0.9297);
    transform: rotate(0deg);
  }
  100% {
    transform: rotate(360deg);
  }
}</style><!-- [ldio] generated by https://loading.io/ --></svg>